<?xml version="1.0" encoding="UTF-8"?>
<svg width="24px" height="24px" viewBox="0 0 24 24" version="1.1" xmlns="http://www.w3.org/2000/svg" xmlns:xlink="http://www.w3.org/1999/xlink">
    <!-- Generator: sketchtool 46.2 (44496) - http://www.bohemiancoding.com/sketch -->
    <title>B47E3145-DFF9-4532-9605-9226F594AB85</title>
    <desc>Created with sketchtool.</desc>
    <defs>
        <filter x="-23.9%" y="-15.2%" width="147.8%" height="147.8%" filterUnits="objectBoundingBox" id="filter-1">
            <feOffset dx="0" dy="16" in="SourceAlpha" result="shadowOffsetOuter1"></feOffset>
            <feGaussianBlur stdDeviation="12" in="shadowOffsetOuter1" result="shadowBlurOuter1"></feGaussianBlur>
            <feColorMatrix values="0 0 0 0 0.462745098   0 0 0 0 0.560784314   0 0 0 0 1  0 0 0 0.2 0" type="matrix" in="shadowBlurOuter1" result="shadowMatrixOuter1"></feColorMatrix>
            <feMerge>
                <feMergeNode in="shadowMatrixOuter1"></feMergeNode>
                <feMergeNode in="SourceGraphic"></feMergeNode>
            </feMerge>
        </filter>
    </defs>
    <g id="Page-1" stroke="none" stroke-width="1" fill="none" fill-rule="evenodd">
        <g id="Team-Desktop" transform="translate(-970.000000, -1871.000000)" fill="#FFFFFF">
            <g id="Group-19" transform="translate(80.000000, 1791.000000)">
                <g id="Group-5" transform="translate(576.000000, 0.000000)">
                    <g id="Group-4-Copy-3" transform="translate(288.000000, 0.000000)">
                        <g id="ava-team" filter="url(#filter-1)">
                            <g id="icns-soc" transform="translate(26.000000, 80.000000)">
                                <g id="mail">
                                    <path d="M12,24 C5.372583,24 0,18.627417 0,12 C0,5.372583 5.372583,0 12,0 C18.627417,0 24,5.372583 24,12 C24,18.627417 18.627417,24 12,24 Z M12,12.4125 L19.2,7.959375 L19.2,7.425 C19.2,6.63799423 18.55529,6 17.76,6 L6.24,6 C5.4408,6 4.8,6.634125 4.8,7.425 L4.8,7.9665 L12,12.4125 Z M19.2,15.975 L19.2,9.640875 L17.76,10.5315 L17.76,15.975 L6.24,15.975 L6.24,10.5315 L4.8,9.640875 L4.8,15.975 C4.8,16.75875 5.4408,17.4 6.24,17.4 L17.76,17.4 C18.55529,17.4 19.2,16.7620058 19.2,15.975 Z" id="Combined-Shape"></path>
                                </g>
                            </g>
                        </g>
                    </g>
                </g>
            </g>
        </g>
    </g>
</svg>