<?xml version="1.0" encoding="UTF-8"?>
<svg width="162px" height="48px" viewBox="0 0 162 48" version="1.1" xmlns="http://www.w3.org/2000/svg" xmlns:xlink="http://www.w3.org/1999/xlink">
    <!-- Generator: sketchtool 46.2 (44496) - http://www.bohemiancoding.com/sketch -->
    <title>C62F08F5-CF5F-4E7C-B428-587E7A8FEA02</title>
    <desc>Created with sketchtool.</desc>
    <defs>
        <linearGradient x1="90.7692308%" y1="4.84%" x2="-38.3307692%" y2="71.968%" id="linearGradient-1">
            <stop stop-color="#00A0FF" offset="0%"></stop>
            <stop stop-color="#00A1FF" offset="0.7%"></stop>
            <stop stop-color="#00BEFF" offset="26%"></stop>
            <stop stop-color="#00D2FF" offset="51.2%"></stop>
            <stop stop-color="#00DFFF" offset="76%"></stop>
            <stop stop-color="#00E3FF" offset="100%"></stop>
        </linearGradient>
        <linearGradient x1="107.724138%" y1="49.4235294%" x2="-130.669951%" y2="49.4235294%" id="linearGradient-2">
            <stop stop-color="#FFE000" offset="0%"></stop>
            <stop stop-color="#FFBD00" offset="40.9%"></stop>
            <stop stop-color="#FFA500" offset="77.5%"></stop>
            <stop stop-color="#FF9C00" offset="100%"></stop>
        </linearGradient>
        <linearGradient x1="86.3892216%" y1="17.81427%" x2="-49.8862275%" y2="194.389687%" id="linearGradient-3">
            <stop stop-color="#FF3A44" offset="0%"></stop>
            <stop stop-color="#C31162" offset="100%"></stop>
        </linearGradient>
        <linearGradient x1="-18.5808383%" y1="-54.5282125%" x2="42.2754491%" y2="24.6924404%" id="linearGradient-4">
            <stop stop-color="#32A071" offset="0%"></stop>
            <stop stop-color="#2DA771" offset="6.9%"></stop>
            <stop stop-color="#15CF74" offset="47.6%"></stop>
            <stop stop-color="#06E775" offset="80.1%"></stop>
            <stop stop-color="#00F076" offset="100%"></stop>
        </linearGradient>
    </defs>
    <g id="Page-1" stroke="none" stroke-width="1" fill="none" fill-rule="evenodd">
        <g id="Style" transform="translate(-1438.000000, -802.000000)">
            <rect id="Rectangle-24" fill="#F7F9FF" x="983" y="321" width="983" height="592"></rect>
            <g id="google-play-badge" transform="translate(1438.000000, 802.000000)" fill-rule="nonzero">
                <path d="M156,48 L6,48 C2.64,48 0,45.36 0,42 L0,6 C0,2.64 2.64,0 6,0 L156,0 C159.36,0 162,2.64 162,6 L162,42 C162,45.36 159.36,48 156,48 Z" id="Shape" fill="#000000"></path>
                <path d="M156,0.96 C158.76,0.96 161.04,3.24 161.04,6 L161.04,42 C161.04,44.76 158.76,47.04 156,47.04 L6,47.04 C3.24,47.04 0.96,44.76 0.96,42 L0.96,6 C0.96,3.24 3.24,0.96 6,0.96 L156,0.96 L156,0.96 Z M156,0 L6,0 C2.64,0 0,2.76 0,6 L0,42 C0,45.36 2.64,48 6,48 L156,48 C159.36,48 162,45.36 162,42 L162,6 C162,2.76 159.36,0 156,0 Z" id="Shape" fill="#000000"></path>
                <path d="M56.88,12.24 C56.88,13.2 56.64,14.04 56.04,14.64 C55.32,15.36 54.48,15.72 53.4,15.72 C52.32,15.72 51.48,15.36 50.76,14.64 C50.04,13.92 49.68,13.08 49.68,12 C49.68,10.92 50.04,10.08 50.76,9.36 C51.48,8.64 52.32,8.28 53.4,8.28 C53.88,8.28 54.36,8.4 54.84,8.64 C55.32,8.88 55.68,9.12 55.92,9.48 L55.32,10.08 C54.84,9.48 54.24,9.24 53.4,9.24 C52.68,9.24 51.96,9.48 51.48,10.08 C50.88,10.56 50.64,11.28 50.64,12.12 C50.64,12.96 50.88,13.68 51.48,14.16 C52.08,14.64 52.68,15 53.4,15 C54.24,15 54.84,14.76 55.44,14.16 C55.8,13.8 56.04,13.32 56.04,12.72 L53.4,12.72 L53.4,11.76 L56.88,11.76 L56.88,12.24 L56.88,12.24 Z M62.4,9.24 L59.16,9.24 L59.16,11.52 L62.16,11.52 L62.16,12.36 L59.16,12.36 L59.16,14.64 L62.4,14.64 L62.4,15.6 L58.2,15.6 L58.2,8.4 L62.4,8.4 L62.4,9.24 Z M66.36,15.6 L65.4,15.6 L65.4,9.24 L63.36,9.24 L63.36,8.4 L68.4,8.4 L68.4,9.24 L66.36,9.24 L66.36,15.6 Z M71.88,15.6 L71.88,8.4 L72.84,8.4 L72.84,15.6 L71.88,15.6 Z M76.92,15.6 L75.96,15.6 L75.96,9.24 L73.92,9.24 L73.92,8.4 L78.84,8.4 L78.84,9.24 L76.8,9.24 L76.8,15.6 L76.92,15.6 Z M88.32,14.64 C87.6,15.36 86.76,15.72 85.68,15.72 C84.6,15.72 83.76,15.36 83.04,14.64 C82.32,13.92 81.96,13.08 81.96,12 C81.96,10.92 82.32,10.08 83.04,9.36 C83.76,8.64 84.6,8.28 85.68,8.28 C86.76,8.28 87.6,8.64 88.32,9.36 C89.04,10.08 89.4,10.92 89.4,12 C89.4,13.08 89.04,13.92 88.32,14.64 Z M83.76,14.04 C84.24,14.52 84.96,14.88 85.68,14.88 C86.4,14.88 87.12,14.64 87.6,14.04 C88.08,13.56 88.44,12.84 88.44,12 C88.44,11.16 88.2,10.44 87.6,9.96 C87.12,9.48 86.4,9.12 85.68,9.12 C84.96,9.12 84.24,9.36 83.76,9.96 C83.28,10.44 82.92,11.16 82.92,12 C82.92,12.84 83.16,13.56 83.76,14.04 Z M90.72,15.6 L90.72,8.4 L91.8,8.4 L95.28,14.04 L95.28,8.4 L96.24,8.4 L96.24,15.6 L95.28,15.6 L91.56,9.72 L91.56,15.6 L90.72,15.6 L90.72,15.6 Z" id="Shape" stroke="#FFFFFF" stroke-width="0.5" fill="#FFFFFF"></path>
                <path d="M81.72,26.16 C78.84,26.16 76.56,28.32 76.56,31.32 C76.56,34.2 78.84,36.48 81.72,36.48 C84.6,36.48 86.88,34.32 86.88,31.32 C86.88,28.2 84.6,26.16 81.72,26.16 Z M81.72,34.32 C80.16,34.32 78.84,33 78.84,31.2 C78.84,29.4 80.16,28.08 81.72,28.08 C83.28,28.08 84.6,29.28 84.6,31.2 C84.6,33 83.28,34.32 81.72,34.32 Z M70.56,26.16 C67.68,26.16 65.4,28.32 65.4,31.32 C65.4,34.2 67.68,36.48 70.56,36.48 C73.44,36.48 75.72,34.32 75.72,31.32 C75.72,28.2 73.44,26.16 70.56,26.16 Z M70.56,34.32 C69,34.32 67.68,33 67.68,31.2 C67.68,29.4 69,28.08 70.56,28.08 C72.12,28.08 73.44,29.28 73.44,31.2 C73.44,33 72.12,34.32 70.56,34.32 Z M57.24,27.72 L57.24,29.88 L62.4,29.88 C62.28,31.08 61.8,32.04 61.2,32.64 C60.48,33.36 59.28,34.2 57.24,34.2 C54,34.2 51.6,31.68 51.6,28.44 C51.6,25.2 54.12,22.68 57.24,22.68 C58.92,22.68 60.24,23.4 61.2,24.24 L62.76,22.68 C61.44,21.48 59.76,20.52 57.36,20.52 C53.04,20.52 49.32,24.12 49.32,28.44 C49.32,32.76 53.04,36.36 57.36,36.36 C59.76,36.36 61.44,35.64 62.88,34.08 C64.32,32.64 64.8,30.6 64.8,29.04 C64.8,28.56 64.8,28.08 64.68,27.72 L57.24,27.72 L57.24,27.72 Z M111.72,29.4 C111.24,28.2 110.04,26.16 107.4,26.16 C104.76,26.16 102.6,28.2 102.6,31.32 C102.6,34.2 104.76,36.48 107.64,36.48 C109.92,36.48 111.36,35.04 111.84,34.2 L110.16,33 C109.56,33.84 108.84,34.44 107.64,34.44 C106.44,34.44 105.72,33.96 105.12,32.88 L111.96,30 L111.72,29.4 L111.72,29.4 Z M104.76,31.08 C104.76,29.16 106.32,28.08 107.4,28.08 C108.24,28.08 109.08,28.56 109.32,29.16 L104.76,31.08 Z M99.12,36 L101.4,36 L101.4,21 L99.12,21 L99.12,36 Z M95.52,27.24 C94.92,26.64 93.96,26.04 92.76,26.04 C90.24,26.04 87.84,28.32 87.84,31.2 C87.84,34.08 90.12,36.24 92.76,36.24 C93.96,36.24 94.92,35.64 95.4,35.04 L95.52,35.04 L95.52,35.76 C95.52,37.68 94.44,38.76 92.76,38.76 C91.44,38.76 90.48,37.8 90.24,36.96 L88.32,37.8 C88.92,39.12 90.36,40.8 92.88,40.8 C95.52,40.8 97.68,39.24 97.68,35.52 L97.68,26.4 L95.52,26.4 L95.52,27.24 L95.52,27.24 Z M92.88,34.32 C91.32,34.32 90,33 90,31.2 C90,29.4 91.32,28.08 92.88,28.08 C94.44,28.08 95.64,29.4 95.64,31.2 C95.64,33 94.44,34.32 92.88,34.32 Z M122.16,21 L116.76,21 L116.76,36 L119.04,36 L119.04,30.36 L122.16,30.36 C124.68,30.36 127.08,28.56 127.08,25.68 C127.08,22.8 124.68,21 122.16,21 L122.16,21 Z M122.28,28.2 L119.04,28.2 L119.04,23.04 L122.28,23.04 C123.96,23.04 124.92,24.48 124.92,25.56 C124.8,26.88 123.84,28.2 122.28,28.2 Z M136.08,26.04 C134.4,26.04 132.72,26.76 132.12,28.32 L134.16,29.16 C134.64,28.32 135.36,28.08 136.2,28.08 C137.4,28.08 138.48,28.8 138.6,30 L138.6,30.12 C138.24,29.88 137.28,29.52 136.32,29.52 C134.16,29.52 132,30.72 132,32.88 C132,34.92 133.8,36.24 135.72,36.24 C137.28,36.24 138,35.52 138.6,34.8 L138.72,34.8 L138.72,36 L140.88,36 L140.88,30.24 C140.64,27.6 138.6,26.04 136.08,26.04 L136.08,26.04 Z M135.84,34.32 C135.12,34.32 134.04,33.96 134.04,33 C134.04,31.8 135.36,31.44 136.44,31.44 C137.4,31.44 137.88,31.68 138.48,31.92 C138.24,33.36 137.04,34.32 135.84,34.32 L135.84,34.32 Z M148.44,26.4 L145.92,32.88 L145.8,32.88 L143.16,26.4 L140.76,26.4 L144.72,35.52 L142.44,40.56 L144.72,40.56 L150.84,26.4 L148.44,26.4 L148.44,26.4 Z M128.28,36 L130.56,36 L130.56,21 L128.28,21 L128.28,36 Z" id="Shape" fill="#FFFFFF"></path>
                <g id="Group" transform="translate(12.000000, 8.400000)">
                    <path d="M0.48,0.6 C0.12,0.96 0,1.56 0,2.28 L0,28.8 C0,29.52 0.24,30.12 0.6,30.48 L0.72,30.6 L15.6,15.72 L15.6,15.48 L0.48,0.6 Z" id="Shape" fill="url(#linearGradient-1)"></path>
                    <path d="M20.4,20.76 L15.48,15.84 L15.48,15.48 L20.4,10.56 L20.52,10.68 L26.4,14.04 C28.08,15 28.08,16.56 26.4,17.52 L20.4,20.76 L20.4,20.76 Z" id="Shape" fill="url(#linearGradient-2)"></path>
                    <path d="M20.52,20.64 L15.48,15.6 L0.48,30.6 C1.08,31.2 1.92,31.2 3,30.72 L20.52,20.64" id="Shape" fill="url(#linearGradient-3)"></path>
                    <path d="M20.52,10.56 L3,0.6 C1.92,-1.94289029e-16 1.08,0.12 0.48,0.72 L15.48,15.6 L20.52,10.56 L20.52,10.56 Z" id="Shape" fill="url(#linearGradient-4)"></path>
                    <path d="M20.4,20.52 L3,30.36 C2.04,30.96 1.2,30.84 0.6,30.36 L0.48,30.48 L0.6,30.6 C1.2,31.08 2.04,31.2 3,30.6 L20.4,20.52 Z" id="Shape" fill="#000000" opacity="0.2"></path>
                    <path d="M0.48,30.36 C0.12,30 0,29.4 0,28.68 L0,28.8 C0,29.52 0.24,30.12 0.6,30.48 L0.6,30.36 L0.48,30.36 Z M26.4,17.16 L20.4,20.52 L20.52,20.64 L26.4,17.28 C27.24,16.8 27.6,16.2 27.6,15.6 C27.6,16.2 27.12,16.68 26.4,17.16 L26.4,17.16 Z" id="Shape" fill="#000000" opacity="0.12"></path>
                    <path d="M3,0.72 L26.4,14.04 C27.12,14.52 27.6,15 27.6,15.6 C27.6,15 27.24,14.4 26.4,13.92 L3,0.6 C1.32,-0.36 0,0.36 0,2.28 L0,2.4 C0,0.6 1.32,-0.24 3,0.72 Z" id="Shape" fill="#FFFFFF" opacity="0.25"></path>
                </g>
            </g>
        </g>
    </g>
</svg>