<?xml version="1.0" encoding="UTF-8"?>
<svg width="18px" height="18px" viewBox="0 0 18 18" version="1.1" xmlns="http://www.w3.org/2000/svg" xmlns:xlink="http://www.w3.org/1999/xlink">
    <!-- Generator: sketchtool 46.2 (44496) - http://www.bohemiancoding.com/sketch -->
    <title>707CA040-F834-4F16-8D83-EEA2CB99B86A</title>
    <desc>Created with sketchtool.</desc>
    <defs></defs>
    <g id="Page-1" stroke="none" stroke-width="1" fill="none" fill-rule="evenodd">
        <g id="FAQ-Desktop-HD" transform="translate(-496.000000, -330.000000)" fill-rule="nonzero" fill="#768FFF">
            <g id="search" transform="translate(464.000000, 311.000000)">
                <g id="Group-2" transform="translate(32.000000, 17.000000)">
                    <g id="magnify" transform="translate(0.000000, 2.000000)">
                        <path d="M6.5,-1.97215226e-31 C10.0898509,1.33226763e-15 13,2.91014913 13,6.5 C13,8.11 12.41,9.59 11.44,10.73 L11.71,11 L12.5,11 L17.5,16 L16,17.5 L11,12.5 L11,11.71 L10.73,11.44 C9.59,12.41 8.11,13 6.5,13 C2.91014913,13 1.33226763e-15,10.0898509 8.8817842e-16,6.5 C-1.33226763e-15,2.91014913 2.91014913,-1.97215226e-31 6.5,-4.4408921e-16 L6.5,-1.97215226e-31 Z M6.5,2 C4,2 2,4 2,6.5 C2,9 4,11 6.5,11 C9,11 11,9 11,6.5 C11,4 9,2 6.5,2 Z" id="Shape"></path>
                    </g>
                </g>
            </g>
        </g>
    </g>
</svg>