<?xml version="1.0" encoding="UTF-8"?>
<svg width="14px" height="12px" viewBox="0 0 14 12" version="1.1" xmlns="http://www.w3.org/2000/svg" xmlns:xlink="http://www.w3.org/1999/xlink">
    <!-- Generator: sketchtool 46.2 (44496) - http://www.bohemiancoding.com/sketch -->
    <title>Telegram-White</title>
    <desc>Created with sketchtool.</desc>
    <defs>
        <filter x="-3.9%" y="-14.7%" width="107.9%" height="146.1%" filterUnits="objectBoundingBox" id="filter-1">
            <feOffset dx="0" dy="16" in="SourceAlpha" result="shadowOffsetOuter1"></feOffset>
            <feGaussianBlur stdDeviation="12" in="shadowOffsetOuter1" result="shadowBlurOuter1"></feGaussianBlur>
            <feColorMatrix values="0 0 0 0 0.392156863   0 0 0 0 0.305882353   0 0 0 0 0.749019608  0 0 0 0.2 0" type="matrix" in="shadowBlurOuter1" result="shadowMatrixOuter1"></feColorMatrix>
            <feMerge>
                <feMergeNode in="shadowMatrixOuter1"></feMergeNode>
                <feMergeNode in="SourceGraphic"></feMergeNode>
            </feMerge>
        </filter>
    </defs>
    <g id="Page-1" stroke="none" stroke-width="1" fill="none" fill-rule="evenodd">
        <g id="Desktop-2-ver.2" transform="translate(-933.000000, -5067.000000)" fill-rule="nonzero" fill="#FFFFFF">
            <g id="Join-slack" filter="url(#filter-1)" transform="translate(80.000000, 4977.000000)">
                <g id="button-login-copy-4" transform="translate(837.000000, 78.000000)">
                    <g id="telegram" transform="translate(16.000000, 12.000000)">
                        <path d="M5.28725146,11.231639 L5.50359649,7.8880083 L11.4376316,2.41804979 C11.7003363,2.1730083 11.3835453,2.05443983 11.035848,2.26786307 L3.71102339,7.0026971 L0.543114035,5.97510373 C-0.136827485,5.77748963 -0.144554094,5.2953112 0.697646199,4.94751037 L13.0370395,0.0782987552 C13.6010819,-0.182551867 14.1419444,0.220580913 13.9255994,1.10589212 L11.823962,11.231639 C11.6771564,11.9509544 11.252193,12.1248548 10.6649708,11.7928631 L7.46615497,9.37406639 L5.92855994,10.8996473 C5.75084795,11.0814523 5.6040424,11.231639 5.28725146,11.231639 Z" id="Shape"></path>
                    </g>
                </g>
            </g>
        </g>
    </g>
</svg>