<?xml version="1.0" encoding="UTF-8"?>
<svg width="162px" height="48px" viewBox="0 0 162 48" version="1.1" xmlns="http://www.w3.org/2000/svg" xmlns:xlink="http://www.w3.org/1999/xlink">
    <!-- Generator: sketchtool 46.2 (44496) - http://www.bohemiancoding.com/sketch -->
    <title>2B9DFE9B-9DAC-48E0-A09C-0C99ED192CEC</title>
    <desc>Created with sketchtool.</desc>
    <defs></defs>
    <g id="Page-1" stroke="none" stroke-width="1" fill="none" fill-rule="evenodd">
        <g id="Style" transform="translate(-1042.000000, -802.000000)">
            <g id="Appstore" transform="translate(1042.000000, 802.000000)">
                <rect id="backfround-copy" fill="#000000" x="0" y="0" width="162" height="48" rx="4.48"></rect>
                <path d="M62.181564,36.863109 L64.9043574,36.863109 L58.9439566,20.3845345 L56.1868422,20.3845345 L50.2264414,36.863109 L52.8577124,36.863109 L54.3792735,32.4893779 L60.6714432,32.4893779 L62.181564,36.863109 Z M57.4338359,23.3764864 L57.6283211,23.3764864 L60.0193456,30.3424811 L55.0313711,30.3424811 L57.4338359,23.3764864 Z M72.1238895,24.2215415 C70.4307238,24.2215415 68.9663643,25.0665966 68.211304,26.4826349 L68.028259,26.4826349 L68.028259,24.4270954 L65.6601151,24.4270954 L65.6601151,40.8942503 L68.1197815,40.8942503 L68.1197815,34.9788646 L68.3142667,34.9788646 C68.9663643,36.2921259 70.3735223,37.068663 72.1467701,37.068663 C75.292855,37.068663 77.294909,34.590596 77.294909,30.6393924 C77.294909,26.6881888 75.292855,24.2215415 72.1238895,24.2215415 L72.1238895,24.2215415 Z M71.4260307,34.8646679 C69.3667751,34.8646679 68.0740203,33.2430757 68.0740203,30.6508121 C68.0740203,28.0471288 69.3667751,26.4255365 71.437471,26.4255365 C73.5196072,26.4255365 74.7666008,28.0128698 74.7666008,30.6393924 C74.7666008,33.2773347 73.5196072,34.8646679 71.4260307,34.8646679 L71.4260307,34.8646679 Z M84.880531,24.2215415 C83.1873653,24.2215415 81.7230058,25.0665966 80.9679454,26.4826349 L80.7849005,26.4826349 L80.7849005,24.4270954 L78.4167566,24.4270954 L78.4167566,40.8942503 L80.876423,40.8942503 L80.876423,34.9788646 L81.0709082,34.9788646 C81.7230058,36.2921259 83.1301638,37.068663 84.9034116,37.068663 C88.0494965,37.068663 90.0515505,34.590596 90.0515505,30.6393924 C90.0515505,26.6881888 88.0494965,24.2215415 84.880531,24.2215415 L84.880531,24.2215415 Z M84.1826722,34.8646679 C82.1234166,34.8646679 80.8306617,33.2430757 80.8306617,30.6508121 C80.8306617,28.0471288 82.1234166,26.4255365 84.1941125,26.4255365 C86.2762486,26.4255365 87.5232423,28.0128698 87.5232423,30.6393924 C87.5232423,33.2773347 86.2762486,34.8646679 84.1826722,34.8646679 L84.1826722,34.8646679 Z M95.2582856,32.4322796 C95.4413306,35.3785528 97.9009969,37.2627973 101.561896,37.2627973 C105.474481,37.2627973 107.922707,35.2871955 107.922707,32.1353683 C107.922707,29.6573013 106.52699,28.2869417 103.140658,27.4989849 L101.321649,27.053618 C99.1708712,26.5511528 98.3014077,25.8773927 98.3014077,24.7011673 C98.3014077,23.2166111 99.6513641,22.2459397 101.676299,22.2459397 C103.598271,22.2459397 104.925346,23.1937718 105.165593,24.712587 L107.65958,24.712587 C107.510856,21.9376088 105.06263,19.9848463 101.71062,19.9848463 C98.1069225,19.9848463 95.7044577,21.9376088 95.7044577,24.8724623 C95.7044577,27.293431 97.0658544,28.7323086 100.051775,29.4289081 L102.179672,29.9427929 C104.364771,30.4566778 105.325757,31.2103756 105.325757,32.4665386 C105.325757,33.9282555 103.815636,34.9902842 101.756381,34.9902842 C99.5484014,34.9902842 98.0154,33.9967735 97.7980341,32.4322796 L95.2582856,32.4322796 Z M110.039862,21.4123042 L110.039862,24.4841937 L107.992046,24.4841937 L107.992046,26.5511528 L110.039862,26.5511528 L110.039862,33.5742459 C110.039862,35.9723753 111.126691,36.931627 113.860925,36.931627 C114.341418,36.931627 114.78759,36.8745287 115.17656,36.8060107 L115.17656,34.761891 C114.833351,34.7961499 114.638866,34.8189893 114.261336,34.8189893 C113.037223,34.8189893 112.499528,34.2480061 112.499528,32.9461644 L112.499528,26.5511528 L115.290963,26.5511528 L115.290963,24.4841937 L112.499528,24.4841937 L112.499528,21.4123042 L110.039862,21.4123042 Z M121.389345,34.9217662 C119.250008,34.9217662 118.048775,33.3572723 118.048775,30.6393924 C118.048775,27.9443518 119.250008,26.3684382 121.389345,26.3684382 C123.517243,26.3684382 124.729915,27.9443518 124.729915,30.6393924 C124.729915,33.3458527 123.517243,34.9217662 121.389345,34.9217662 L121.389345,34.9217662 Z M121.389345,37.102922 C125.027363,37.102922 127.258224,34.6705336 127.258224,30.6393924 C127.258224,26.6310905 125.015923,24.1872825 121.389345,24.1872825 C117.751327,24.1872825 115.509027,26.6310905 115.509027,30.6393924 C115.509027,34.6705336 117.739887,37.102922 121.389345,37.102922 L121.389345,37.102922 Z M128.380071,36.863109 L130.839738,36.863109 L130.839738,29.5202654 C130.839738,27.7730568 132.155373,26.5968315 134.008703,26.5968315 C134.420554,26.5968315 135.175614,26.6767691 135.3701,26.7452871 L135.3701,24.3243184 C135.106973,24.2558005 134.63792,24.2215415 134.28327,24.2215415 C132.658747,24.2215415 131.28591,25.1122752 130.93126,26.3341792 L130.748215,26.3341792 L130.748215,24.4270954 L128.380071,24.4270954 L128.380071,36.863109 Z M140.907906,26.2770809 C142.726916,26.2770809 143.916708,27.5446636 143.973909,29.497426 L137.681739,29.497426 C137.819023,27.5560832 139.088897,26.2770809 140.907906,26.2770809 L140.907906,26.2770809 Z M143.962469,33.505728 C143.504857,34.4763994 142.486669,35.0131235 140.999429,35.0131235 C139.031696,35.0131235 137.761822,33.6313443 137.681739,31.4501885 L137.681739,31.3131526 L146.479337,31.3131526 L146.479337,30.4566778 C146.479337,26.5511528 144.38576,24.1872825 140.919347,24.1872825 C137.407172,24.1872825 135.176312,26.7110281 135.176312,30.6850711 C135.176312,34.659114 137.361411,37.102922 140.930787,37.102922 C143.779424,37.102922 145.770038,35.7325624 146.330613,33.505728 L143.962469,33.505728 Z" id="App-Store" fill="#FFFFFF"></path>
                <path d="M52.5315002,7.52196926 L52.5315002,15.3689095 L55.3697863,15.3689095 C57.7123257,15.3689095 59.0688194,13.9278567 59.0688194,11.4209687 C59.0688194,8.95214617 57.7014301,7.52196926 55.3697863,7.52196926 L52.5315002,7.52196926 Z M53.7517998,8.631308 L55.2335921,8.631308 C56.8624742,8.631308 57.8267288,9.66451566 57.8267288,11.4372825 C57.8267288,13.237239 56.8788175,14.2595708 55.2335921,14.2595708 L53.7517998,14.2595708 L53.7517998,8.631308 Z M63.3627486,14.4444606 C62.3440163,14.4444606 61.7720009,13.6994635 61.7720009,12.4052349 C61.7720009,11.1218823 62.3440163,10.3714472 63.3627486,10.3714472 C64.3760331,10.3714472 64.9534963,11.1218823 64.9534963,12.4052349 C64.9534963,13.6940255 64.3760331,14.4444606 63.3627486,14.4444606 L63.3627486,14.4444606 Z M63.3627486,15.4831061 C65.0951382,15.4831061 66.1574525,14.324826 66.1574525,12.4052349 C66.1574525,10.4965197 65.0896904,9.33280162 63.3627486,9.33280162 C61.630359,9.33280162 60.5625968,10.4965197 60.5625968,12.4052349 C60.5625968,14.324826 61.6249112,15.4831061 63.3627486,15.4831061 L63.3627486,15.4831061 Z M75.3380278,9.44699826 L74.1667581,9.44699826 L73.1098915,13.9659223 L73.0172795,13.9659223 L71.7969799,9.44699826 L70.6747401,9.44699826 L69.4544405,13.9659223 L69.3672763,13.9659223 L68.3049619,9.44699826 L67.1173489,9.44699826 L68.7516787,15.3689095 L69.955635,15.3689095 L71.1759346,11.0076856 L71.2685466,11.0076856 L72.494294,15.3689095 L73.7091458,15.3689095 L75.3380278,9.44699826 Z M76.8263575,15.3689095 L77.9976272,15.3689095 L77.9976272,11.9049449 C77.9976272,10.9804959 78.5750904,10.4040748 79.5175539,10.4040748 C80.3891965,10.4040748 80.8141222,10.8771752 80.8141222,11.8288138 L80.8141222,15.3689095 L81.9853919,15.3689095 L81.9853919,11.5351653 C81.9853919,10.1267401 81.239048,9.33280162 79.9152408,9.33280162 C79.0218072,9.33280162 78.3299409,9.72977088 78.0412093,10.387761 L77.9540451,10.387761 L77.9540451,9.44699826 L76.8263575,9.44699826 L76.8263575,15.3689095 Z M83.9640205,15.3689095 L85.1352902,15.3689095 L85.1352902,7.13587587 L83.9640205,7.13587587 L83.9640205,15.3689095 Z M89.6743689,14.4444606 C88.6556366,14.4444606 88.0836212,13.6994635 88.0836212,12.4052349 C88.0836212,11.1218823 88.6556366,10.3714472 89.6743689,10.3714472 C90.6876533,10.3714472 91.2651165,11.1218823 91.2651165,12.4052349 C91.2651165,13.6940255 90.6876533,14.4444606 89.6743689,14.4444606 L89.6743689,14.4444606 Z M89.6743689,15.4831061 C91.4067585,15.4831061 92.4690728,14.324826 92.4690728,12.4052349 C92.4690728,10.4965197 91.4013107,9.33280162 89.6743689,9.33280162 C87.9419793,9.33280162 86.8742171,10.4965197 86.8742171,12.4052349 C86.8742171,14.324826 87.9365315,15.4831061 89.6743689,15.4831061 L89.6743689,15.4831061 Z M96.0929268,14.4825261 C95.4555382,14.4825261 94.992478,14.1725638 94.992478,13.6396462 C94.992478,13.1176044 95.3629261,12.8402697 96.180091,12.7858904 L97.6291968,12.6934455 L97.6291968,13.1882976 C97.6291968,13.9224188 96.9754649,14.4825261 96.0929268,14.4825261 L96.0929268,14.4825261 Z M95.7932997,15.4667923 C96.5723302,15.4667923 97.2206143,15.1296404 97.5747191,14.5369055 L97.6673312,14.5369055 L97.6673312,15.3689095 L98.7950187,15.3689095 L98.7950187,11.3230858 C98.7950187,10.0723608 97.9560628,9.33280162 96.4688226,9.33280162 C95.1232244,9.33280162 94.1644176,9.98535383 94.0445668,11.0022477 L95.1777021,11.0022477 C95.3084485,10.5835267 95.7606131,10.3442575 96.414345,10.3442575 C97.2151666,10.3442575 97.6291968,10.6977233 97.6291968,11.3230858 L97.6291968,11.8342517 L96.0221058,11.9266966 C94.6111344,12.0137036 93.8157606,12.6281903 93.8157606,13.6940255 C93.8157606,14.7761746 94.6492688,15.4667923 95.7932997,15.4667923 L95.7932997,15.4667923 Z M102.909172,15.4667923 C103.726337,15.4667923 104.418203,15.080699 104.772308,14.4335847 L104.86492,14.4335847 L104.86492,15.3689095 L105.987159,15.3689095 L105.987159,7.13587587 L104.81589,7.13587587 L104.81589,10.387761 L104.728725,10.387761 C104.407307,9.73520882 103.720889,9.34911543 102.909172,9.34911543 C101.411036,9.34911543 100.446781,10.5345853 100.446781,12.4052349 C100.446781,14.2813225 101.40014,15.4667923 102.909172,15.4667923 L102.909172,15.4667923 Z M103.241485,10.3986369 C104.222083,10.3986369 104.837681,11.1762616 104.837681,12.4106729 C104.837681,13.650522 104.227531,14.4172709 103.241485,14.4172709 C102.249992,14.4172709 101.656185,13.6613979 101.656185,12.4052349 C101.656185,11.1599478 102.25544,10.3986369 103.241485,10.3986369 L103.241485,10.3986369 Z M113.855913,14.4444606 C112.83718,14.4444606 112.265165,13.6994635 112.265165,12.4052349 C112.265165,11.1218823 112.83718,10.3714472 113.855913,10.3714472 C114.869197,10.3714472 115.44666,11.1218823 115.44666,12.4052349 C115.44666,13.6940255 114.869197,14.4444606 113.855913,14.4444606 L113.855913,14.4444606 Z M113.855913,15.4831061 C115.588302,15.4831061 116.650617,14.324826 116.650617,12.4052349 C116.650617,10.4965197 115.582854,9.33280162 113.855913,9.33280162 C112.123523,9.33280162 111.055761,10.4965197 111.055761,12.4052349 C111.055761,14.324826 112.118075,15.4831061 113.855913,15.4831061 L113.855913,15.4831061 Z M118.335066,15.3689095 L119.506336,15.3689095 L119.506336,11.9049449 C119.506336,10.9804959 120.083799,10.4040748 121.026262,10.4040748 C121.897905,10.4040748 122.322831,10.8771752 122.322831,11.8288138 L122.322831,15.3689095 L123.4941,15.3689095 L123.4941,11.5351653 C123.4941,10.1267401 122.747756,9.33280162 121.423949,9.33280162 C120.530516,9.33280162 119.838649,9.72977088 119.549918,10.387761 L119.462753,10.387761 L119.462753,9.44699826 L118.335066,9.44699826 L118.335066,15.3689095 Z M129.161956,8.01138341 L129.161956,9.47418794 L128.186806,9.47418794 L128.186806,10.4584542 L129.161956,10.4584542 L129.161956,13.8027842 C129.161956,14.9447506 129.679494,15.4015371 130.98151,15.4015371 C131.210316,15.4015371 131.422779,15.3743474 131.608003,15.3417198 L131.608003,14.3683295 C131.44457,14.3846433 131.351958,14.3955191 131.172182,14.3955191 C130.589271,14.3955191 130.333226,14.1236224 130.333226,13.5036978 L130.333226,10.4584542 L131.662481,10.4584542 L131.662481,9.47418794 L130.333226,9.47418794 L130.333226,8.01138341 L129.161956,8.01138341 Z M133.330587,15.3689095 L134.501856,15.3689095 L134.501856,11.9103828 C134.501856,11.0131235 135.095663,10.4095128 136.05447,10.4095128 C136.937008,10.4095128 137.378277,10.888051 137.378277,11.8342517 L137.378277,15.3689095 L138.549546,15.3689095 L138.549546,11.5460412 C138.549546,10.137616 137.786859,9.33823956 136.452157,9.33823956 C135.558723,9.33823956 134.872304,9.73520882 134.583573,10.3986369 L134.490961,10.3986369 L134.490961,7.13587587 L133.330587,7.13587587 L133.330587,15.3689095 Z M142.914297,10.3279437 C143.780491,10.3279437 144.347059,10.9315545 144.374298,11.8614414 L141.378027,11.8614414 C141.4434,10.9369925 142.048102,10.3279437 142.914297,10.3279437 L142.914297,10.3279437 Z M144.36885,13.7701566 C144.150939,14.2323811 143.666088,14.487964 142.957879,14.487964 C142.020863,14.487964 141.416161,13.8299739 141.378027,12.7913283 L141.378027,12.7260731 L145.567359,12.7260731 L145.567359,12.318228 C145.567359,10.4584542 144.570417,9.33280162 142.919744,9.33280162 C141.24728,9.33280162 140.184966,10.5345853 140.184966,12.4269867 C140.184966,14.3193881 141.225489,15.4831061 142.925192,15.4831061 C144.281686,15.4831061 145.229597,14.8305539 145.496538,13.7701566 L144.36885,13.7701566 Z" id="Download-on-the" fill="#FFFFFF"></path>
                <g id="logo_apple" transform="translate(14.504132, 7.461717)" fill="#FFFFFF">
                    <path d="M21.5710772,16.7670604 C21.5351727,12.7839099 24.8383864,10.8460943 24.9894329,10.7558771 C23.1186848,8.03329548 20.2190872,7.66130408 19.2001424,7.63164364 C16.7648271,7.37582231 14.4025589,9.08624125 13.1619966,9.08624125 C11.8966727,9.08624125 9.98630586,7.65636067 7.92736872,7.69837964 C5.27786453,7.73916275 2.79921621,9.27038317 1.4397977,11.6481621 C-1.36570534,16.4964089 0.726660126,23.6210947 3.41454499,27.5399809 C4.75910646,29.4604946 6.33023769,31.6022258 8.38669865,31.5268389 C10.3985885,31.4452727 11.1501068,30.2464964 13.5779936,30.2464964 C15.9835948,30.2464964 16.6893039,31.5268389 18.7866217,31.4774048 C20.9458438,31.4452727 22.3052623,29.5507118 23.6027765,27.6128961 C25.1565745,25.4155516 25.7805699,23.2466316 25.8053316,23.1354049 C25.7558082,23.1193388 21.6131722,21.541156 21.5710772,16.7670604" id="Fill-2"></path>
                    <path d="M17.6092018,5.05365671 C18.691289,3.70287065 19.4316645,1.86515897 19.2261422,0.00025854991 C17.6599633,0.0694662527 15.7013112,1.08162891 14.5734148,2.40275452 C13.5755174,3.56692695 12.6840954,5.47508218 12.9143794,7.26953905 C14.6736997,7.40053934 16.4800673,6.38343328 17.6092018,5.05365671" id="Fill-3"></path>
                </g>
            </g>
        </g>
    </g>
</svg>