<?xml version="1.0" encoding="UTF-8"?>
<svg width="14px" height="6px" viewBox="0 0 14 6" version="1.1" xmlns="http://www.w3.org/2000/svg" xmlns:xlink="http://www.w3.org/1999/xlink">
    <!-- Generator: sketchtool 46.2 (44496) - http://www.bohemiancoding.com/sketch -->
    <title>A8DB4F27-D8A4-4893-9D37-B506A8DDCC28</title>
    <desc>Created with sketchtool.</desc>
    <defs></defs>
    <g id="Page-1" stroke="none" stroke-width="1" fill="none" fill-rule="evenodd">
        <g id="Team-Desktop" transform="translate(-719.000000, -2089.000000)" fill="#2962FF">
            <g id="Group-19" transform="translate(80.000000, 1791.000000)">
                <g id="Group-5" transform="translate(576.000000, 0.000000)">
                    <g id="Group-4-Copy-2">
                        <g id="Group-3" transform="translate(0.000000, 289.000000)">
                            <g id="arrow" transform="translate(63.000000, 9.000000)">
                                <path d="M13.5000161,2.97655651 C13.5000161,2.90624393 13.4687661,2.84374385 13.421891,2.7968688 L10.4218874,0.0624905378 C10.3437623,-9.53674319e-06 10.2421997,-0.0156345554 10.1484496,0.0234279912 C10.0546995,0.0624905378 10.0000119,0.14842814 10.0000119,0.249990761 L10.0000119,1.99999285 L0.250000298,1.99999285 C0.10937513,1.99999285 0,2.10936798 0,2.24999315 L0,3.74999493 C0,3.8906201 0.10937513,3.99999523 0.250000298,3.99999523 L10.0000119,3.99999523 L10.0000119,5.74999732 C10.0000119,5.85155994 10.062512,5.93749754 10.1484496,5.97656009 C10.2421997,6.01562263 10.3437623,5.99999762 10.4218874,5.92968503 L13.421891,3.16405674 C13.4687661,3.11718168 13.5000161,3.0468691 13.5000161,2.97655651 Z"></path>
                            </g>
                        </g>
                    </g>
                </g>
            </g>
        </g>
    </g>
</svg>