<svg width="32" height="32" viewBox="0 0 32 32" xmlns="http://www.w3.org/2000/svg" xmlns:xlink="http://www.w3.org/1999/xlink">
  <path fill="#768fff" d="M16,32 C7.163444,32 0,24.836556 0,16 C0,7.163444 7.163444,0 16,0 C24.836556,0 32,7.163444 32,16 C32,24.836556 24.836556,32 16,32 Z M16,10 L16,10 C12.6862915,10 10,12.6862915 10,16 C10,18.22 11.21,20.16 13,21.2 L13,23 C13,23.5522847 13.4477153,24 14,24 L18,24 C18.5522847,24 19,23.5522847 19,23 L19,21.2 C20.79,20.16 22,18.22 22,16 C22,12.6862915 19.3137085,10 16,10 Z M18,25 L14,25 L14,26 C14,26.5522847 14.4477153,27 15,27 L17,27 C17.5522847,27 18,26.5522847 18,26 L18,25 Z M24,15 L24,17 L27,17 L27,15 L24,15 Z M5,15 L5,17 L8,17 L8,15 L5,15 Z M17,5 L15,5 L15,8 L17,8 L17,5 Z M8.92,7.5 L7.5,8.93 L9.63,11.05 L11.05,9.64 L8.92,7.5 Z M20.95,9.63 L22.37,11.05 L24.5,8.93 L23.07,7.5 L20.95,9.63 Z"></path>
</svg>
