<?xml version="1.0" encoding="UTF-8"?>
<svg width="32px" height="32px" viewBox="0 0 32 32" version="1.1" xmlns="http://www.w3.org/2000/svg" xmlns:xlink="http://www.w3.org/1999/xlink">
    <!-- Generator: Sketch 45.2 (43514) - http://www.bohemiancoding.com/sketch -->
    <title>slack copy 3</title>
    <desc>Created with Sketch.</desc>
    <defs></defs>
    <g id="Webpage" stroke="none" stroke-width="1" fill="none" fill-rule="evenodd">
        <g id="Desktop-2-ver.1" transform="translate(-80.000000, -9776.000000)">
            <g id="Contact" transform="translate(80.000000, 9459.000000)">
                <g id="Group-53">
                    <g id="Contacts" transform="translate(0.000000, 89.000000)">
                        <g id="Group-42" transform="translate(0.000000, 222.000000)">
                            <g id="slack-copy-3" transform="translate(0.000000, 6.000000)">
                                <circle id="Oval-3" fill="#768fff" cx="16" cy="16" r="16"></circle>
                                <g id="slack" transform="translate(7.000000, 7.000000)" fill-rule="nonzero" fill="#FFFFFF">
                                    <path d="M6.64396886,7.88403571 L10.2112928,6.7035932 L11.3560311,10.1122867 L7.78870716,11.2927293 L6.64396886,7.88403571 L6.64396886,7.88403571 Z M16.573908,11.2662025 C17.2926972,11.0274613 17.6520917,10.2449207 17.4391172,9.52869719 C17.1995208,8.81247364 16.4141771,8.41457167 15.6953879,8.66657625 L13.9649696,9.23690241 L12.8202313,5.82820886 L14.5506496,5.2446193 C15.2694388,5.01914152 15.6554552,4.22333758 15.4158588,3.50711403 C15.1762624,2.79089048 14.3909187,2.36646171 13.6588186,2.64499309 L11.9417112,3.21531925 L11.3427202,1.43802378 C11.1031238,0.721800236 10.331091,0.323898265 9.59899097,0.575902847 C8.88020181,0.814644029 8.49418541,1.59718457 8.73378179,2.31340812 L9.33277276,4.09070359 L5.76544878,5.2711461 L5.16645781,3.49385063 C4.92686143,2.77762708 4.15482863,2.36646171 3.42272856,2.6317297 C2.7039394,2.87047088 2.34454482,3.65301142 2.55751938,4.35597157 L3.15651035,6.14653044 L1.426092,6.73011999 C0.70730284,6.96886118 0.34790826,7.75140172 0.560882826,8.46762527 C0.747235571,8.99816123 1.26636108,9.3960632 1.82541931,9.4093266 L2.30461208,9.3297462 L4.03503043,8.75942004 L5.17976872,12.1681136 L3.44935038,12.7517031 C2.73056122,12.9771809 2.34454482,13.7729849 2.5841412,14.4892084 C2.77049395,15.0462712 3.28961945,15.4176464 3.84867769,15.4309098 L4.34118137,15.3513294 L6.05828881,14.7810032 L6.65727978,16.5582987 C6.84363252,17.1286248 7.36275802,17.4867366 7.92181626,17.5 L8.40100903,17.4204196 C9.11979819,17.1816784 9.50581459,16.4124013 9.26621821,15.6829143 L8.66722724,13.9056189 L12.2345512,12.7251764 L12.8335422,14.5024718 C12.9932731,15.0595346 13.5390204,15.4176464 14.0980787,15.4309098 L14.5772714,15.3645928 C15.2960606,15.1258516 15.6554552,14.343311 15.4424806,13.6403509 L14.8434897,11.849792 L16.573908,11.2662025 L16.573908,11.2662025 Z" id="Shape"></path>
                                </g>
                            </g>
                        </g>
                    </g>
                </g>
            </g>
        </g>
    </g>
</svg>