<svg width="32" height="32" viewBox="0 0 32 32" xmlns="http://www.w3.org/2000/svg" xmlns:xlink="http://www.w3.org/1999/xlink">
  <path fill="#768fff" d="M16,32 C7.163444,32 0,24.836556 0,16 C0,7.163444 7.163444,0 16,0 C24.836556,0 32,7.163444 32,16 C32,24.836556 24.836556,32 16,32 Z M24.0173353,21.0088198 L16.8955962,13.8870806 C17.599944,12.0870806 17.2086397,9.97403716 15.7216831,8.48708064 C14.1564657,6.92186325 11.8086397,6.60881977 9.93037879,7.46968934 L13.2955962,10.8349067 L10.9477701,13.1827328 L7.50429183,9.81751543 C6.5651614,11.6957763 6.95646575,14.0436024 8.52168314,15.6088198 C10.0086397,17.0957763 12.1216831,17.4870806 13.9216831,16.7827328 L21.0434223,23.9044719 C21.3564657,24.2175154 21.826031,24.2175154 22.1390744,23.9044719 L23.9390744,22.1044719 C24.3303788,21.7914285 24.3303788,21.2436024 24.0173353,21.0088198 Z"></path>
</svg>
