<?xml version="1.0" encoding="UTF-8"?>
<svg width="159px" height="48px" viewBox="0 0 159 48" version="1.1" xmlns="http://www.w3.org/2000/svg" xmlns:xlink="http://www.w3.org/1999/xlink">
    <!-- Generator: sketchtool 46.2 (44496) - http://www.bohemiancoding.com/sketch -->
    <title>28F5F33E-2355-43DE-914E-DF65938C2341</title>
    <desc>Created with sketchtool.</desc>
    <defs></defs>
    <g id="Page-1" stroke="none" stroke-width="1" fill="none" fill-rule="evenodd">
        <g id="Style" transform="translate(-1032.000000, -668.000000)">
            <g id="button-login-copy-2" transform="translate(1032.000000, 668.000000)">
                <rect id="button-bg-copy-2" fill="#FFFFFF" x="0" y="0" width="159" height="48" rx="2"></rect>
                <g id="logo_apple" transform="translate(16.000000, 8.000000)" fill="#2962FF">
                    <path d="M21.5710772,16.7670604 C21.5351727,12.7839099 24.8383864,10.8460943 24.9894329,10.7558771 C23.1186848,8.03329548 20.2190872,7.66130408 19.2001424,7.63164364 C16.7648271,7.37582231 14.4025589,9.08624125 13.1619966,9.08624125 C11.8966727,9.08624125 9.98630586,7.65636067 7.92736872,7.69837964 C5.27786453,7.73916275 2.79921621,9.27038317 1.4397977,11.6481621 C-1.36570534,16.4964089 0.726660126,23.6210947 3.41454499,27.5399809 C4.75910646,29.4604946 6.33023769,31.6022258 8.38669865,31.5268389 C10.3985885,31.4452727 11.1501068,30.2464964 13.5779936,30.2464964 C15.9835948,30.2464964 16.6893039,31.5268389 18.7866217,31.4774048 C20.9458438,31.4452727 22.3052623,29.5507118 23.6027765,27.6128961 C25.1565745,25.4155516 25.7805699,23.2466316 25.8053316,23.1354049 C25.7558082,23.1193388 21.6131722,21.541156 21.5710772,16.7670604" id="Fill-2"></path>
                    <path d="M17.6092018,5.05365671 C18.691289,3.70287065 19.4316645,1.86515897 19.2261422,0.00025854991 C17.6599633,0.0694662527 15.7013112,1.08162891 14.5734148,2.40275452 C13.5755174,3.56692695 12.6840954,5.47508218 12.9143794,7.26953905 C14.6736997,7.40053934 16.4800673,6.38343328 17.6092018,5.05365671" id="Fill-3"></path>
                </g>
                <g id="Group-21" transform="translate(54.000000, 7.000000)" fill="#2962FF">
                    <g id="Group-5">
                        <path d="M8.203125,10.2695312 C8.203125,11.1992234 8.10742283,11.969398 7.91601562,12.5800781 C7.72460842,13.1907583 7.43864123,13.6749657 7.05810547,14.0327148 C6.67756971,14.390464 6.20703405,14.6411126 5.64648438,14.784668 C5.0859347,14.9282234 4.43652713,15 3.69824219,15 L1.05273438,15 L1.05273438,5.5390625 L3.67089844,5.5390625 C4.42741264,5.5390625 5.08935263,5.61881431 5.65673828,5.77832031 C6.22412393,5.93782632 6.69693821,6.20214659 7.07519531,6.57128906 C7.45345241,6.94043153 7.73600167,7.42691755 7.92285156,8.03076172 C8.10970146,8.63460588 8.203125,9.38085493 8.203125,10.2695312 Z M6.53515625,10.2558594 C6.53515625,9.61783535 6.48502654,9.0891948 6.38476562,8.66992188 C6.28450471,8.25064895 6.11816522,7.91683067 5.88574219,7.66845703 C5.65331915,7.42008339 5.34570504,7.24576873 4.96289062,7.14550781 C4.58007621,7.04524689 4.10612262,6.99511719 3.54101562,6.99511719 L2.64550781,6.99511719 L2.64550781,13.5439453 L3.54101562,13.5439453 C4.11523725,13.5439453 4.59374809,13.4903977 4.9765625,13.3833008 C5.35937691,13.2762039 5.66699103,13.0961927 5.89941406,12.8432617 C6.1318371,12.5903308 6.29589796,12.2530946 6.39160156,11.831543 C6.48730517,11.4099914 6.53515625,10.8847688 6.53515625,10.2558594 Z M10.0419922,15 L10.0419922,5.5390625 L16.0029297,5.5390625 L16.0029297,6.9609375 L11.6347656,6.9609375 L11.6347656,9.36035156 L15.3466797,9.36035156 L15.3466797,10.7890625 L11.6347656,10.7890625 L11.6347656,13.5439453 L16.0029297,13.5439453 L16.0029297,15 L10.0419922,15 Z M24.4863281,12.3408203 C24.4863281,12.8740261 24.3917653,13.3217755 24.2026367,13.684082 C24.0135082,14.0463885 23.7571631,14.3403309 23.4335938,14.565918 C23.1100244,14.791505 22.7329123,14.9532873 22.3022461,15.0512695 C21.8715799,15.1492518 21.414716,15.1982422 20.9316406,15.1982422 C20.4212214,15.1982422 19.9746113,15.1503911 19.5917969,15.0546875 C19.2089825,14.9589839 18.8740249,14.8291024 18.5869141,14.6650391 C18.2998033,14.5009757 18.0548513,14.3095714 17.8520508,14.0908203 C17.6492503,13.8720692 17.472657,13.637371 17.3222656,13.3867188 L18.5800781,12.4775391 C18.694011,12.6552743 18.8204746,12.8227531 18.9594727,12.9799805 C19.0984707,13.1372078 19.260253,13.2750645 19.4448242,13.3935547 C19.6293955,13.5120449 19.8447253,13.6066077 20.0908203,13.6772461 C20.3369153,13.7478845 20.6217432,13.7832031 20.9453125,13.7832031 C21.1868502,13.7832031 21.4226877,13.7604169 21.652832,13.7148438 C21.8829764,13.6692706 22.0869132,13.594076 22.2646484,13.4892578 C22.4423837,13.3844396 22.5847976,13.2477222 22.6918945,13.0791016 C22.7989914,12.9104809 22.8525391,12.7008476 22.8525391,12.4501953 C22.8525391,12.213215 22.80127,12.0149748 22.6987305,11.8554688 C22.5961909,11.6959627 22.4583342,11.561524 22.2851562,11.4521484 C22.1119783,11.3427729 21.9091808,11.251628 21.6767578,11.1787109 C21.4443348,11.1057939 21.1959649,11.0351566 20.9316406,10.9667969 C20.4485653,10.8437494 19.9996766,10.7172858 19.5849609,10.5874023 C19.1702453,10.4575189 18.8102229,10.2923187 18.5048828,10.0917969 C18.1995427,9.89127504 17.959148,9.63606926 17.7836914,9.32617188 C17.6082348,9.01627449 17.5205078,8.61979408 17.5205078,8.13671875 C17.5205078,7.70833119 17.5934237,7.32210458 17.7392578,6.97802734 C17.8850919,6.6339501 18.0992824,6.34000773 18.3818359,6.09619141 C18.6643894,5.85237508 19.0164367,5.66552799 19.4379883,5.53564453 C19.8595399,5.40576107 20.3437473,5.34082031 20.890625,5.34082031 C21.3007833,5.34082031 21.6756168,5.37841759 22.0151367,5.45361328 C22.3546566,5.52880897 22.6622708,5.63818288 22.9379883,5.78173828 C23.2137058,5.92529369 23.4609364,6.10302628 23.6796875,6.31494141 C23.8984386,6.52685653 24.0898429,6.76725126 24.2539062,7.03613281 L23.0166016,7.95898438 C22.7659493,7.5579407 22.4697283,7.25716246 22.1279297,7.05664062 C21.7861311,6.85611879 21.3691431,6.75585938 20.8769531,6.75585938 C20.3437473,6.75585938 19.9210628,6.86523328 19.6088867,7.08398438 C19.2967107,7.30273547 19.140625,7.6126282 19.140625,8.01367188 C19.140625,8.21419371 19.1827795,8.3816725 19.2670898,8.51611328 C19.3514002,8.65055406 19.4812817,8.76790314 19.6567383,8.86816406 C19.8321949,8.96842498 20.0532213,9.05843059 20.3198242,9.13818359 C20.5864271,9.2179366 20.9020164,9.30110634 21.2666016,9.38769531 C21.5491551,9.45605503 21.8237291,9.52897097 22.090332,9.60644531 C22.3569349,9.68391966 22.6098621,9.77392527 22.8491211,9.87646484 C23.0883801,9.97900442 23.3082672,10.0997714 23.5087891,10.2387695 C23.7093109,10.3777676 23.8813469,10.5452464 24.0249023,10.7412109 C24.1684577,10.9371755 24.2812496,11.1661771 24.3632812,11.4282227 C24.4453129,11.6902682 24.4863281,11.9944644 24.4863281,12.3408203 Z M31.5615234,15 L28.6220703,10.9257812 L27.890625,11.7666016 L27.890625,15 L26.2978516,15 L26.2978516,5.5390625 L27.890625,5.5390625 L27.890625,9.70898438 L31.4384766,5.5390625 L33.3525391,5.5390625 L29.6542969,9.75 L33.578125,15 L31.5615234,15 Z M38.5751953,6.99511719 L38.5751953,15 L36.9755859,15 L36.9755859,6.99511719 L33.9541016,6.99511719 L33.9541016,5.5390625 L41.5966797,5.5390625 L41.5966797,6.99511719 L38.5751953,6.99511719 Z M50.2988281,10.2695312 C50.2988281,11.0442747 50.2247729,11.7358368 50.0766602,12.3442383 C49.9285474,12.9526398 49.6938493,13.4687479 49.3725586,13.8925781 C49.0512679,14.3164084 48.6399765,14.6399728 48.1386719,14.8632812 C47.6373673,15.0865897 47.0358108,15.1982422 46.3339844,15.1982422 C45.6321579,15.1982422 45.0317408,15.0865897 44.5327148,14.8632812 C44.0336889,14.6399728 43.6235368,14.3164084 43.3022461,13.8925781 C42.9809554,13.4687479 42.7451179,12.9526398 42.5947266,12.3442383 C42.4443352,11.7358368 42.3691406,11.0442747 42.3691406,10.2695312 C42.3691406,9.49478779 42.4443352,8.80208639 42.5947266,8.19140625 C42.7451179,7.58072611 42.9809554,7.06461799 43.3022461,6.64306641 C43.6235368,6.22151482 44.0336889,5.89908966 44.5327148,5.67578125 C45.0317408,5.45247284 45.6321579,5.34082031 46.3339844,5.34082031 C47.0358108,5.34082031 47.6373673,5.45133353 48.1386719,5.67236328 C48.6399765,5.89339303 49.0512679,6.21467888 49.3725586,6.63623047 C49.6938493,7.05778206 49.9285474,7.57389018 50.0766602,8.18457031 C50.2247729,8.79525045 50.2988281,9.49023048 50.2988281,10.2695312 Z M48.6308594,10.2695312 C48.6308594,9.68163769 48.5898442,9.16780819 48.5078125,8.72802734 C48.4257808,8.2882465 48.2936207,7.9225275 48.1113281,7.63085938 C47.9290355,7.33919125 47.6920588,7.12044344 47.4003906,6.97460938 C47.1087225,6.82877531 46.7532573,6.75585938 46.3339844,6.75585938 C45.9101541,6.75585938 45.551271,6.82877531 45.2573242,6.97460938 C44.9633774,7.12044344 44.7252613,7.33919125 44.5429688,7.63085938 C44.3606762,7.9225275 44.228516,8.2882465 44.1464844,8.72802734 C44.0644527,9.16780819 44.0234375,9.68163769 44.0234375,10.2695312 C44.0234375,10.8574248 44.0644527,11.3712543 44.1464844,11.8110352 C44.228516,12.250816 44.3618155,12.616535 44.5463867,12.9082031 C44.730958,13.1998713 44.9702134,13.4186191 45.2641602,13.5644531 C45.5581069,13.7102872 45.9147114,13.7832031 46.3339844,13.7832031 C46.7532573,13.7832031 47.1087225,13.7114265 47.4003906,13.5678711 C47.6920588,13.4243157 47.9290355,13.2067072 48.1113281,12.9150391 C48.2936207,12.6233709 48.4257808,12.2576519 48.5078125,11.8178711 C48.5898442,11.3780902 48.6308594,10.8619821 48.6308594,10.2695312 Z M58.6660156,8.64257812 C58.6660156,9.21224243 58.6010749,9.7032857 58.4711914,10.1157227 C58.3413079,10.5281596 58.1385105,10.8688138 57.862793,11.1376953 C57.5870754,11.4065769 57.2338889,11.6059564 56.8032227,11.7358398 C56.3725564,11.8657233 55.8564483,11.9306641 55.2548828,11.9306641 L53.7236328,11.9306641 L53.7236328,15 L52.1308594,15 L52.1308594,5.5390625 L55.3095703,5.5390625 C55.8473334,5.5390625 56.3247049,5.59488876 56.7416992,5.70654297 C57.1586935,5.81819717 57.5096014,5.99706908 57.7944336,6.24316406 C58.0792657,6.48925904 58.2957349,6.80940558 58.4438477,7.20361328 C58.5919604,7.59782098 58.6660156,8.07747113 58.6660156,8.64257812 Z M57.0048828,8.65625 C57.0048828,8.31445142 56.958171,8.03304147 56.8647461,7.81201172 C56.7713211,7.59098197 56.6357431,7.4166673 56.4580078,7.2890625 C56.2802725,7.1614577 56.0603854,7.0725914 55.7983398,7.02246094 C55.5362943,6.97233048 55.2366553,6.94726562 54.8994141,6.94726562 L53.7236328,6.94726562 L53.7236328,10.5224609 L54.7216797,10.5224609 C55.1227234,10.5224609 55.4679348,10.5019533 55.7573242,10.4609375 C56.0467137,10.4199217 56.2836905,10.3344733 56.4682617,10.2045898 C56.652833,10.0747064 56.788411,9.88671998 56.875,9.640625 C56.961589,9.39453002 57.0048828,9.0664083 57.0048828,8.65625 Z M63.1025391,15 L66.28125,5.5390625 L68.3525391,5.5390625 L71.5449219,15 L69.890625,15 L69.1660156,12.8193359 L65.4130859,12.8193359 L64.6953125,15 L63.1025391,15 Z M65.8710938,11.390625 L68.6875,11.390625 L67.2861328,7.13183594 L65.8710938,11.390625 Z M79.4814453,8.64257812 C79.4814453,9.21224243 79.4165046,9.7032857 79.2866211,10.1157227 C79.1567376,10.5281596 78.9539402,10.8688138 78.6782227,11.1376953 C78.4025051,11.4065769 78.0493186,11.6059564 77.6186523,11.7358398 C77.1879861,11.8657233 76.671878,11.9306641 76.0703125,11.9306641 L74.5390625,11.9306641 L74.5390625,15 L72.9462891,15 L72.9462891,5.5390625 L76.125,5.5390625 C76.6627631,5.5390625 77.1401346,5.59488876 77.5571289,5.70654297 C77.9741232,5.81819717 78.3250311,5.99706908 78.6098633,6.24316406 C78.8946954,6.48925904 79.1111646,6.80940558 79.2592773,7.20361328 C79.4073901,7.59782098 79.4814453,8.07747113 79.4814453,8.64257812 Z M77.8203125,8.65625 C77.8203125,8.31445142 77.7736007,8.03304147 77.6801758,7.81201172 C77.5867508,7.59098197 77.4511728,7.4166673 77.2734375,7.2890625 C77.0957022,7.1614577 76.8758151,7.0725914 76.6137695,7.02246094 C76.351724,6.97233048 76.052085,6.94726562 75.7148438,6.94726562 L74.5390625,6.94726562 L74.5390625,10.5224609 L75.5371094,10.5224609 C75.938153,10.5224609 76.2833644,10.5019533 76.5727539,10.4609375 C76.8621434,10.4199217 77.0991202,10.3344733 77.2836914,10.2045898 C77.4682626,10.0747064 77.6038407,9.88671998 77.6904297,9.640625 C77.7770187,9.39453002 77.8203125,9.0664083 77.8203125,8.65625 Z M87.7529297,8.64257812 C87.7529297,9.21224243 87.6879889,9.7032857 87.5581055,10.1157227 C87.428222,10.5281596 87.2254246,10.8688138 86.949707,11.1376953 C86.6739895,11.4065769 86.3208029,11.6059564 85.8901367,11.7358398 C85.4594705,11.8657233 84.9433624,11.9306641 84.3417969,11.9306641 L82.8105469,11.9306641 L82.8105469,15 L81.2177734,15 L81.2177734,5.5390625 L84.3964844,5.5390625 C84.9342475,5.5390625 85.411619,5.59488876 85.8286133,5.70654297 C86.2456076,5.81819717 86.5965155,5.99706908 86.8813477,6.24316406 C87.1661798,6.48925904 87.382649,6.80940558 87.5307617,7.20361328 C87.6788744,7.59782098 87.7529297,8.07747113 87.7529297,8.64257812 Z M86.0917969,8.65625 C86.0917969,8.31445142 86.0450851,8.03304147 85.9516602,7.81201172 C85.8582352,7.59098197 85.7226571,7.4166673 85.5449219,7.2890625 C85.3671866,7.1614577 85.1472995,7.0725914 84.8852539,7.02246094 C84.6232083,6.97233048 84.3235694,6.94726562 83.9863281,6.94726562 L82.8105469,6.94726562 L82.8105469,10.5224609 L83.8085938,10.5224609 C84.2096374,10.5224609 84.5548488,10.5019533 84.8442383,10.4609375 C85.1336277,10.4199217 85.3706045,10.3344733 85.5551758,10.2045898 C85.739747,10.0747064 85.8753251,9.88671998 85.9619141,9.640625 C86.048503,9.39453002 86.0917969,9.0664083 86.0917969,8.65625 Z" id="Desktop-App"></path>
                    </g>
                    <path d="M3.890625,24.0078125 C3.83593723,23.9765623 3.77050819,23.9453127 3.69433594,23.9140625 C3.61816368,23.8828123 3.53808636,23.8554689 3.45410156,23.8320312 C3.37011677,23.8085936 3.28418013,23.7900391 3.19628906,23.7763672 C3.108398,23.7626952 3.02343791,23.7558594 2.94140625,23.7558594 C2.76171785,23.7558594 2.61132873,23.7812497 2.49023438,23.8320312 C2.36914002,23.8828128 2.27148475,23.9648432 2.19726562,24.078125 C2.1230465,24.1914068 2.07031266,24.3398428 2.0390625,24.5234375 C2.00781234,24.7070322 1.9921875,24.9316393 1.9921875,25.1972656 L1.9921875,25.8535156 L3.421875,25.8535156 L3.421875,26.5039062 L1.9921875,26.5039062 L1.9921875,32 L1.23632812,32 L1.23632812,26.5039062 L0.275390625,26.5039062 L0.275390625,25.8535156 L1.23632812,25.8535156 L1.23632812,25.1738281 C1.23632812,24.8183576 1.26562471,24.5097669 1.32421875,24.2480469 C1.38281279,23.9863268 1.47949151,23.7695321 1.61425781,23.5976562 C1.74902411,23.4257804 1.9248036,23.2988285 2.14160156,23.2167969 C2.35839952,23.1347652 2.62499842,23.09375 2.94140625,23.09375 C3.17578242,23.09375 3.399413,23.12207 3.61230469,23.1787109 C3.82519638,23.2353518 4.00195242,23.2988278 4.14257812,23.3691406 L3.890625,24.0078125 Z M9.55078125,28.9414062 C9.55078125,29.4296899 9.50390672,29.8720683 9.41015625,30.2685547 C9.31640578,30.665041 9.16601666,31.0058579 8.95898438,31.2910156 C8.75195209,31.5761733 8.48437664,31.7958977 8.15625,31.9501953 C7.82812336,32.104493 7.43164295,32.1816406 6.96679688,32.1816406 C6.5019508,32.1816406 6.10547039,32.104493 5.77734375,31.9501953 C5.44921711,31.7958977 5.18164166,31.5761733 4.97460938,31.2910156 C4.76757709,31.0058579 4.61621142,30.665041 4.52050781,30.2685547 C4.42480421,29.8720683 4.37695312,29.4296899 4.37695312,28.9414062 C4.37695312,28.4648414 4.42382766,28.0263692 4.51757812,27.6259766 C4.61132859,27.2255839 4.76171771,26.8808608 4.96875,26.5917969 C5.17578229,26.3027329 5.44335773,26.0781258 5.77148438,25.9179688 C6.09961102,25.7578117 6.49804453,25.6777344 6.96679688,25.6777344 C7.42383041,25.6777344 7.81542806,25.754882 8.14160156,25.9091797 C8.46777507,26.0634773 8.73535052,26.2832017 8.94433594,26.5683594 C9.15332136,26.8535171 9.30664014,27.1962871 9.40429688,27.5966797 C9.50195361,27.9970723 9.55078125,28.44531 9.55078125,28.9414062 Z M8.75976562,28.9414062 C8.75976562,28.5273417 8.72851594,28.1582047 8.66601562,27.8339844 C8.60351531,27.509764 8.50195383,27.2363292 8.36132812,27.0136719 C8.22070242,26.7910145 8.03613396,26.6220709 7.80761719,26.5068359 C7.57910042,26.391601 7.29882979,26.3339844 6.96679688,26.3339844 C6.6308577,26.3339844 6.3476574,26.3935541 6.1171875,26.5126953 C5.8867176,26.6318365 5.70019603,26.8037098 5.55761719,27.0283203 C5.41503835,27.2529308 5.31250031,27.5263656 5.25,27.8486328 C5.18749969,28.1709 5.15625,28.5351542 5.15625,28.9414062 C5.15625,29.3476583 5.18847624,29.7109359 5.25292969,30.03125 C5.31738313,30.3515641 5.42089772,30.6230458 5.56347656,30.8457031 C5.7060554,31.0683605 5.89257697,31.2382807 6.12304688,31.3554688 C6.35351678,31.4726568 6.63476396,31.53125 6.96679688,31.53125 C7.29101725,31.53125 7.56738167,31.4736334 7.79589844,31.3583984 C8.02441521,31.2431635 8.20996022,31.0742199 8.35253906,30.8515625 C8.4951179,30.6289051 8.59863249,30.3574235 8.66308594,30.0371094 C8.72753938,29.7167953 8.75976562,29.3515646 8.75976562,28.9414062 Z M14.5078125,26.5976562 C14.3710931,26.5429685 14.2226571,26.515625 14.0625,26.515625 C13.8749991,26.515625 13.7041023,26.5390623 13.5498047,26.5859375 C13.395507,26.6328127 13.2441414,26.7031245 13.0957031,26.796875 C12.9472649,26.8906255 12.7958992,27.0068352 12.6416016,27.1455078 C12.4873039,27.2841804 12.3164072,27.4472647 12.1289062,27.6347656 L12.1289062,32 L11.3730469,32 L11.3730469,25.8535156 L12.1289062,25.8535156 L12.1289062,26.9140625 C12.3046884,26.7382804 12.4716789,26.5791023 12.6298828,26.4365234 C12.7880867,26.2939446 12.9462883,26.1728521 13.1044922,26.0732422 C13.2626961,25.9736323 13.4228508,25.8964846 13.5849609,25.8417969 C13.7470711,25.7871091 13.9179679,25.7597656 14.0976562,25.7597656 C14.2109381,25.7597656 14.3144527,25.7695312 14.4082031,25.7890625 C14.5019536,25.8085938 14.5898433,25.8398435 14.671875,25.8828125 L14.5078125,26.5976562 Z M26.1621094,32 L26.1621094,28.2207031 C26.1621094,27.8535138 26.1503907,27.551759 26.1269531,27.3154297 C26.1035155,27.0791004 26.0585941,26.8925788 25.9921875,26.7558594 C25.9257809,26.6191399 25.8349615,26.5253909 25.7197266,26.4746094 C25.6044916,26.4238279 25.4570321,26.3984375 25.2773438,26.3984375 C25.121093,26.3984375 24.9697273,26.425781 24.8232422,26.4804688 C24.6767571,26.5351565 24.5292976,26.6123042 24.3808594,26.7119141 C24.2324211,26.8115239 24.0810555,26.9306634 23.9267578,27.0693359 C23.7724602,27.2080085 23.6093759,27.3632804 23.4375,27.5351562 L23.4375,32 L22.6816406,32 L22.6816406,28.1855469 C22.6816406,27.8222638 22.6679689,27.5244152 22.640625,27.2919922 C22.6132811,27.0595692 22.5664066,26.8779303 22.5,26.7470703 C22.4335934,26.6162103 22.3408209,26.5253909 22.2216797,26.4746094 C22.1025385,26.4238279 21.9531259,26.3984375 21.7734375,26.3984375 C21.6249993,26.3984375 21.4746101,26.4296872 21.3222656,26.4921875 C21.1699211,26.5546878 21.0175789,26.6386713 20.8652344,26.7441406 C20.7128899,26.8496099 20.5605476,26.9707024 20.4082031,27.1074219 C20.2558586,27.2441413 20.1054695,27.386718 19.9570312,27.5351562 L19.9570312,32 L19.2011719,32 L19.2011719,25.8535156 L19.9570312,25.8535156 L19.9570312,26.8261719 C20.1093758,26.6621086 20.2656242,26.5097663 20.4257812,26.3691406 C20.5859383,26.2285149 20.7470695,26.1074224 20.9091797,26.0058594 C21.0712899,25.9042964 21.2363273,25.824219 21.4042969,25.765625 C21.5722665,25.707031 21.7421866,25.6777344 21.9140625,25.6777344 C22.3281271,25.6777344 22.6552722,25.7763662 22.8955078,25.9736328 C23.1357434,26.1708994 23.2929684,26.4843729 23.3671875,26.9140625 C23.5390634,26.7265616 23.7050773,26.5566414 23.8652344,26.4042969 C24.0253914,26.2519524 24.1884757,26.1220708 24.3544922,26.0146484 C24.5205086,25.907226 24.6914054,25.824219 24.8671875,25.765625 C25.0429696,25.707031 25.2304678,25.6777344 25.4296875,25.6777344 C25.7421891,25.6777344 25.9951162,25.7324213 26.1884766,25.8417969 C26.3818369,25.9511724 26.5332026,26.1044912 26.6425781,26.3017578 C26.7519537,26.4990244 26.8251951,26.7333971 26.8623047,27.0048828 C26.8994142,27.2763685 26.9179688,27.5742171 26.9179688,27.8984375 L26.9179688,32 L26.1621094,32 Z M32.484375,32 L32.484375,31.109375 C32.3085929,31.2617195 32.1386727,31.4033197 31.9746094,31.5341797 C31.8105461,31.6650397 31.6435555,31.7783198 31.4736328,31.8740234 C31.3037101,31.969727 31.1279306,32.0449216 30.9462891,32.0996094 C30.7646475,32.1542971 30.5703135,32.1816406 30.3632812,32.1816406 C30.0742173,32.1816406 29.8222667,32.1376958 29.6074219,32.0498047 C29.3925771,31.9619136 29.2138679,31.8349618 29.0712891,31.6689453 C28.9287102,31.5029289 28.822266,31.301759 28.7519531,31.0654297 C28.6816403,30.8291004 28.6464844,30.5644546 28.6464844,30.2714844 C28.6464844,29.9511703 28.6933589,29.6718762 28.7871094,29.4335938 C28.8808598,29.1953113 29.0273428,28.9931649 29.2265625,28.8271484 C29.4257822,28.661132 29.6806625,28.5292974 29.9912109,28.4316406 C30.3017594,28.3339839 30.673826,28.2636721 31.1074219,28.2207031 L32.484375,28.0859375 L32.484375,27.7753906 C32.484375,27.5175768 32.4550784,27.2978525 32.3964844,27.1162109 C32.3378903,26.9345694 32.2451178,26.7851568 32.1181641,26.6679688 C31.9912103,26.5507807 31.8291025,26.4658206 31.6318359,26.4130859 C31.4345693,26.3603513 31.1992201,26.3339844 30.9257812,26.3339844 C30.6953113,26.3339844 30.495118,26.354492 30.3251953,26.3955078 C30.1552726,26.4365236 30.0087897,26.4912106 29.8857422,26.5595703 C29.7626947,26.62793 29.6601567,26.7070308 29.578125,26.796875 C29.4960933,26.8867192 29.4257815,26.9804683 29.3671875,27.078125 L28.7636719,26.7089844 C28.8496098,26.5683587 28.9521478,26.4355475 29.0712891,26.3105469 C29.1904303,26.1855463 29.3369132,26.0761723 29.5107422,25.9824219 C29.6845712,25.8886714 29.8876942,25.8144534 30.1201172,25.7597656 C30.3525402,25.7050779 30.6249984,25.6777344 30.9375,25.6777344 C31.3515646,25.6777344 31.7041001,25.7167965 31.9951172,25.7949219 C32.2861343,25.8730473 32.5244131,25.9970695 32.7099609,26.1669922 C32.8955087,26.3369149 33.030273,26.5576158 33.1142578,26.8291016 C33.1982426,27.1005873 33.2402344,27.4316387 33.2402344,27.8222656 L33.2402344,32 L32.484375,32 Z M32.484375,28.7128906 L31.3828125,28.8183594 C31.0312482,28.8535158 30.7314466,28.90332 30.4833984,28.9677734 C30.2353503,29.0322269 30.0332039,29.1201166 29.8769531,29.2314453 C29.7207023,29.342774 29.6064457,29.4814445 29.5341797,29.6474609 C29.4619137,29.8134774 29.4257812,30.0136707 29.4257812,30.2480469 C29.4257812,30.6933616 29.5156241,31.0166006 29.6953125,31.2177734 C29.8750009,31.4189463 30.1562481,31.5195312 30.5390625,31.5195312 C30.6835945,31.5195312 30.8251946,31.4980471 30.9638672,31.4550781 C31.1025398,31.4121092 31.2480461,31.3466801 31.4003906,31.2587891 C31.5527351,31.170898 31.716796,31.0576179 31.8925781,30.9189453 C32.0683603,30.7802727 32.2656239,30.6171884 32.484375,30.4296875 L32.484375,28.7128906 Z M39.6855469,31.015625 C39.5878901,31.1992197 39.47461,31.3632805 39.3457031,31.5078125 C39.2167962,31.6523445 39.0664071,31.7744136 38.8945312,31.8740234 C38.7226554,31.9736333 38.5283214,32.0498044 38.3115234,32.1025391 C38.0947255,32.1552737 37.8515638,32.1816406 37.5820312,32.1816406 C37.1015601,32.1816406 36.6982438,32.0996102 36.3720703,31.9355469 C36.0458968,31.7714836 35.7822276,31.5458999 35.5810547,31.2587891 C35.3798818,30.9716783 35.235352,30.6308613 35.1474609,30.2363281 C35.0595699,29.8417949 35.015625,29.4140648 35.015625,28.953125 C35.015625,28.4531225 35.0634761,28.0009786 35.1591797,27.5966797 C35.2548833,27.1923808 35.4052724,26.8486342 35.6103516,26.5654297 C35.8154307,26.2822251 36.0791,26.0634773 36.4013672,25.9091797 C36.7236344,25.754882 37.113279,25.6777344 37.5703125,25.6777344 C38.0546899,25.6777344 38.4599593,25.7734365 38.7861328,25.9648438 C39.1123063,26.156251 39.3867176,26.4511699 39.609375,26.8496094 L38.9882812,27.2246094 C38.9062496,27.0722649 38.8183598,26.9404302 38.7246094,26.8291016 C38.6308589,26.7177729 38.5263678,26.6259769 38.4111328,26.5537109 C38.2958979,26.481445 38.1679695,26.426758 38.0273438,26.3896484 C37.886718,26.3525389 37.7265634,26.3339844 37.546875,26.3339844 C36.9335907,26.3339844 36.4882826,26.5566384 36.2109375,27.0019531 C35.9335924,27.4472679 35.7949219,28.1054644 35.7949219,28.9765625 C35.7949219,29.3593769 35.825195,29.7070297 35.8857422,30.0195312 C35.9462894,30.3320328 36.0458977,30.6005848 36.1845703,30.8251953 C36.3232429,31.0498058 36.5068348,31.2236322 36.7353516,31.3466797 C36.9638683,31.4697272 37.2460921,31.53125 37.5820312,31.53125 C37.7734385,31.53125 37.9423821,31.5107424 38.0888672,31.4697266 C38.2353523,31.4287107 38.3671869,31.369141 38.484375,31.2910156 C38.6015631,31.2128902 38.7070308,31.1181646 38.8007812,31.0068359 C38.8945317,30.8955073 38.9843746,30.7714851 39.0703125,30.6347656 L39.6855469,31.015625 Z M47.4140625,27.9453125 C47.4140625,28.5976595 47.3574224,29.1845677 47.2441406,29.7060547 C47.1308588,30.2275417 46.9472669,30.6708966 46.6933594,31.0361328 C46.4394519,31.401369 46.1084005,31.6816396 45.7001953,31.8769531 C45.2919901,32.0722666 44.7949248,32.1699219 44.2089844,32.1699219 C43.6230439,32.1699219 43.1269552,32.0722666 42.7207031,31.8769531 C42.3144511,31.6816396 41.9843763,31.4003925 41.7304688,31.0332031 C41.4765612,30.6660138 41.2919928,30.2226588 41.1767578,29.703125 C41.0615229,29.1835912 41.0039062,28.5976595 41.0039062,27.9453125 C41.0039062,27.2968718 41.0615229,26.7119167 41.1767578,26.1904297 C41.2919928,25.6689427 41.4765612,25.2255878 41.7304688,24.8603516 C41.9843763,24.4951154 42.3144511,24.2138682 42.7207031,24.0166016 C43.1269552,23.819335 43.6230439,23.7207031 44.2089844,23.7207031 C44.7949248,23.7207031 45.2919901,23.8183584 45.7001953,24.0136719 C46.1084005,24.2089854 46.4394519,24.4882794 46.6933594,24.8515625 C46.9472669,25.2148456 47.1308588,25.657224 47.2441406,26.1787109 C47.3574224,26.7001979 47.4140625,27.2890592 47.4140625,27.9453125 Z M46.5585937,27.9453125 C46.5585937,27.3828097 46.5175785,26.8837912 46.4355469,26.4482422 C46.3535152,26.0126931 46.220704,25.6464859 46.0371094,25.3496094 C45.8535147,25.0527329 45.6113296,24.8271492 45.3105469,24.6728516 C45.0097641,24.5185539 44.6425803,24.4414062 44.2089844,24.4414062 C43.7714822,24.4414062 43.4023453,24.5175774 43.1015625,24.6699219 C42.8007797,24.8222664 42.5576181,25.0468735 42.3720703,25.34375 C42.1865225,25.6406265 42.0527348,26.0068338 41.9707031,26.4423828 C41.8886715,26.8779319 41.8476562,27.3789034 41.8476562,27.9453125 C41.8476562,28.5078153 41.8886715,29.0058572 41.9707031,29.4394531 C42.0527348,29.873049 42.1865225,30.2392563 42.3720703,30.5380859 C42.5576181,30.8369156 42.8007797,31.0634758 43.1015625,31.2177734 C43.4023453,31.3720711 43.7714822,31.4492188 44.2089844,31.4492188 C44.6425803,31.4492188 45.0097641,31.3720711 45.3105469,31.2177734 C45.6113296,31.0634758 45.8535147,30.8378921 46.0371094,30.5410156 C46.220704,30.2441391 46.3535152,29.8779319 46.4355469,29.4423828 C46.5175785,29.0068338 46.5585937,28.5078153 46.5585937,27.9453125 Z M54.6269531,29.8789062 C54.6269531,30.2968771 54.5527351,30.6503892 54.4042969,30.9394531 C54.2558586,31.2285171 54.0546888,31.4648428 53.8007812,31.6484375 C53.5468737,31.8320322 53.2480486,31.9648433 52.9042969,32.046875 C52.5605452,32.1289067 52.1933613,32.1699219 51.8027344,32.1699219 C51.3925761,32.1699219 51.0332047,32.1289067 50.7246094,32.046875 C50.4160141,31.9648433 50.145509,31.8525398 49.9130859,31.7099609 C49.6806629,31.5673821 49.479493,31.3964854 49.3095703,31.1972656 C49.1396476,30.9980459 48.9882819,30.7812512 48.8554687,30.546875 L49.5351562,30.1425781 C49.6132816,30.2988289 49.7148431,30.4541008 49.8398437,30.6083984 C49.9648444,30.7626961 50.1171866,30.9023431 50.296875,31.0273438 C50.4765634,31.1523444 50.6865222,31.2539059 50.9267578,31.3320312 C51.1669934,31.4101566 51.4433578,31.4492188 51.7558594,31.4492188 C52.0410171,31.4492188 52.3076159,31.4199222 52.5556641,31.3613281 C52.8037122,31.3027341 53.0195303,31.2109381 53.203125,31.0859375 C53.3867197,30.9609369 53.5312495,30.8017588 53.6367187,30.6083984 C53.742188,30.4150381 53.7949219,30.1835951 53.7949219,29.9140625 C53.7949219,29.6640612 53.7539067,29.4521493 53.671875,29.2783203 C53.5898433,29.1044913 53.4648446,28.9541022 53.296875,28.8271484 C53.1289054,28.7001947 52.9160169,28.5898442 52.6582031,28.4960938 C52.4003893,28.4023433 52.0957049,28.3105473 51.7441406,28.2207031 C51.2753883,28.0996088 50.8710954,27.9814459 50.53125,27.8662109 C50.1914046,27.750976 49.9101574,27.6123055 49.6875,27.4501953 C49.4648426,27.2880851 49.2998052,27.0908215 49.1923828,26.8583984 C49.0849604,26.6259754 49.03125,26.332033 49.03125,25.9765625 C49.03125,25.6406233 49.085937,25.3339858 49.1953125,25.0566406 C49.304688,24.7792955 49.4697255,24.5419932 49.6904297,24.3447266 C49.9111339,24.14746 50.1874983,23.9941412 50.5195312,23.8847656 C50.8515642,23.7753901 51.2402321,23.7207031 51.6855469,23.7207031 C52.0214861,23.7207031 52.3261705,23.7548825 52.5996094,23.8232422 C52.8730482,23.8916019 53.1191395,23.9892572 53.3378906,24.1162109 C53.5566417,24.2431647 53.7519523,24.3964835 53.9238281,24.5761719 C54.095704,24.7558603 54.2499993,24.9589832 54.3867187,25.1855469 L53.7246094,25.6308594 C53.6230464,25.4550772 53.5078131,25.293946 53.3789062,25.1474609 C53.2499994,25.0009758 53.1035164,24.8750005 52.9394531,24.7695312 C52.7753898,24.664062 52.5908213,24.5830081 52.3857422,24.5263672 C52.180663,24.4697263 51.9511731,24.4414062 51.6972656,24.4414062 C51.3886703,24.4414062 51.1191418,24.4765621 50.8886719,24.546875 C50.658202,24.6171879 50.4667976,24.7167962 50.3144531,24.8457031 C50.1621086,24.97461 50.0488285,25.1308585 49.9746094,25.3144531 C49.9003903,25.4980478 49.8632812,25.7031239 49.8632812,25.9296875 C49.8632812,26.1484386 49.8974606,26.331054 49.9658203,26.4775391 C50.03418,26.6240242 50.1484367,26.750976 50.3085937,26.8583984 C50.4687508,26.9658208 50.6816393,27.0634761 50.9472656,27.1513672 C51.212892,27.2392583 51.5429668,27.3320308 51.9375,27.4296875 C52.3554708,27.5351568 52.7304671,27.6484369 53.0625,27.7695312 C53.3945329,27.8906256 53.6767567,28.0410147 53.9091797,28.2207031 C54.1416027,28.4003915 54.3193353,28.622069 54.4423828,28.8857422 C54.5654303,29.1494154 54.6269531,29.4804668 54.6269531,29.8789062 Z" id="for-macOS"></path>
                </g>
            </g>
        </g>
    </g>
</svg>