<?xml version="1.0" encoding="UTF-8"?>
<svg width="159px" height="48px" viewBox="0 0 159 48" version="1.1" xmlns="http://www.w3.org/2000/svg" xmlns:xlink="http://www.w3.org/1999/xlink">
    <!-- Generator: sketchtool 46.2 (44496) - http://www.bohemiancoding.com/sketch -->
    <title>3295C4B7-9ABC-4B0F-B1D7-4973626359BB</title>
    <desc>Created with sketchtool.</desc>
    <defs></defs>
    <g id="Page-1" stroke="none" stroke-width="1" fill="none" fill-rule="evenodd">
        <g id="Style" transform="translate(-1223.000000, -668.000000)">
            <g id="button-login-copy-3" transform="translate(1223.000000, 668.000000)">
                <rect id="button-bg-copy-2" fill="#2962FF" x="0" y="0" width="159" height="48" rx="2"></rect>
                <g id="windows" transform="translate(16.000000, 8.000000)" fill-rule="nonzero" fill="#FFFFFF">
                    <path d="M0,15.1578947 L0,6.31578947 L10.2352941,4.09263158 L10.2352941,15.0063158 L0,15.1578947 L0,15.1578947 Z M29,0 L29,14.7368421 L11.9411765,14.9894737 L11.9411765,3.72210526 L29,0 L29,0 Z M0,16.8421053 L10.2352941,16.9936842 L10.2352941,28.4631579 L0,26.5263158 L0,16.8421053 L0,16.8421053 Z M29,17.2631579 L29,32 L11.9411765,28.7831579 L11.9411765,17.0105263 L29,17.2631579 Z" id="Shape"></path>
                </g>
                <g id="Group-21" transform="translate(54.000000, 12.000000)" fill="#FFFFFF">
                    <g id="Group-5" transform="translate(1.000000, 0.000000)">
                        <path d="M7.203125,5.26953125 C7.203125,6.1992234 7.10742283,6.96939799 6.91601562,7.58007812 C6.72460842,8.19075826 6.43864123,8.67496566 6.05810547,9.03271484 C5.67756971,9.39046403 5.20703405,9.64111256 4.64648438,9.78466797 C4.0859347,9.92822337 3.43652713,10 2.69824219,10 L0.052734375,10 L0.052734375,0.5390625 L2.67089844,0.5390625 C3.42741264,0.5390625 4.08935263,0.618814307 4.65673828,0.778320312 C5.22412393,0.937826318 5.69693821,1.20214659 6.07519531,1.57128906 C6.45345241,1.94043153 6.73600167,2.42691755 6.92285156,3.03076172 C7.10970146,3.63460588 7.203125,4.38085493 7.203125,5.26953125 Z M5.53515625,5.25585938 C5.53515625,4.61783535 5.48502654,4.0891948 5.38476562,3.66992188 C5.28450471,3.25064895 5.11816522,2.91683067 4.88574219,2.66845703 C4.65331915,2.42008339 4.34570504,2.24576873 3.96289062,2.14550781 C3.58007621,2.04524689 3.10612262,1.99511719 2.54101562,1.99511719 L1.64550781,1.99511719 L1.64550781,8.54394531 L2.54101562,8.54394531 C3.11523725,8.54394531 3.59374809,8.49039767 3.9765625,8.38330078 C4.35937691,8.27620389 4.66699103,8.09619267 4.89941406,7.84326172 C5.1318371,7.59033077 5.29589796,7.25309456 5.39160156,6.83154297 C5.48730517,6.40999138 5.53515625,5.88476877 5.53515625,5.25585938 Z M9.04199219,10 L9.04199219,0.5390625 L15.0029297,0.5390625 L15.0029297,1.9609375 L10.6347656,1.9609375 L10.6347656,4.36035156 L14.3466797,4.36035156 L14.3466797,5.7890625 L10.6347656,5.7890625 L10.6347656,8.54394531 L15.0029297,8.54394531 L15.0029297,10 L9.04199219,10 Z M23.4863281,7.34082031 C23.4863281,7.8740261 23.3917653,8.32177553 23.2026367,8.68408203 C23.0135082,9.04638853 22.7571631,9.3403309 22.4335938,9.56591797 C22.1100244,9.79150503 21.7329123,9.95328727 21.3022461,10.0512695 C20.8715799,10.1492518 20.414716,10.1982422 19.9316406,10.1982422 C19.4212214,10.1982422 18.9746113,10.1503911 18.5917969,10.0546875 C18.2089825,9.9589839 17.8740249,9.82910238 17.5869141,9.66503906 C17.2998033,9.50097574 17.0548513,9.30957141 16.8520508,9.09082031 C16.6492503,8.87206922 16.472657,8.63737104 16.3222656,8.38671875 L17.5800781,7.47753906 C17.694011,7.65527433 17.8204746,7.82275312 17.9594727,7.97998047 C18.0984707,8.13720782 18.260253,8.27506451 18.4448242,8.39355469 C18.6293955,8.51204486 18.8447253,8.60660772 19.0908203,8.67724609 C19.3369153,8.74788447 19.6217432,8.78320312 19.9453125,8.78320312 C20.1868502,8.78320312 20.4226877,8.76041689 20.652832,8.71484375 C20.8829764,8.66927061 21.0869132,8.59407604 21.2646484,8.48925781 C21.4423837,8.38443958 21.5847976,8.2477222 21.6918945,8.07910156 C21.7989914,7.91048093 21.8525391,7.70084761 21.8525391,7.45019531 C21.8525391,7.21321496 21.80127,7.01497476 21.6987305,6.85546875 C21.5961909,6.69596274 21.4583342,6.56152398 21.2851562,6.45214844 C21.1119783,6.34277289 20.9091808,6.25162797 20.6767578,6.17871094 C20.4443348,6.10579391 20.1959649,6.03515659 19.9316406,5.96679688 C19.4485653,5.84374938 18.9996766,5.71728581 18.5849609,5.58740234 C18.1702453,5.45751888 17.8102229,5.29231871 17.5048828,5.09179688 C17.1995427,4.89127504 16.959148,4.63606926 16.7836914,4.32617188 C16.6082348,4.01627449 16.5205078,3.61979408 16.5205078,3.13671875 C16.5205078,2.70833119 16.5934237,2.32210458 16.7392578,1.97802734 C16.8850919,1.6339501 17.0992824,1.34000773 17.3818359,1.09619141 C17.6643894,0.852375083 18.0164367,0.665527993 18.4379883,0.535644531 C18.8595399,0.405761069 19.3437473,0.340820312 19.890625,0.340820312 C20.3007833,0.340820312 20.6756168,0.378417593 21.0151367,0.453613281 C21.3546566,0.52880897 21.6622708,0.638182876 21.9379883,0.781738281 C22.2137058,0.925293687 22.4609364,1.10302628 22.6796875,1.31494141 C22.8984386,1.52685653 23.0898429,1.76725126 23.2539062,2.03613281 L22.0166016,2.95898438 C21.7659493,2.5579407 21.4697283,2.25716246 21.1279297,2.05664062 C20.7861311,1.85611879 20.3691431,1.75585938 19.8769531,1.75585938 C19.3437473,1.75585938 18.9210628,1.86523328 18.6088867,2.08398438 C18.2967107,2.30273547 18.140625,2.6126282 18.140625,3.01367188 C18.140625,3.21419371 18.1827795,3.3816725 18.2670898,3.51611328 C18.3514002,3.65055406 18.4812817,3.76790314 18.6567383,3.86816406 C18.8321949,3.96842498 19.0532213,4.05843059 19.3198242,4.13818359 C19.5864271,4.2179366 19.9020164,4.30110634 20.2666016,4.38769531 C20.5491551,4.45605503 20.8237291,4.52897097 21.090332,4.60644531 C21.3569349,4.68391966 21.6098621,4.77392527 21.8491211,4.87646484 C22.0883801,4.97900442 22.3082672,5.09977144 22.5087891,5.23876953 C22.7093109,5.37776762 22.8813469,5.54524642 23.0249023,5.74121094 C23.1684577,5.93717546 23.2812496,6.16617708 23.3632812,6.42822266 C23.4453129,6.69026824 23.4863281,6.99446441 23.4863281,7.34082031 Z M30.5615234,10 L27.6220703,5.92578125 L26.890625,6.76660156 L26.890625,10 L25.2978516,10 L25.2978516,0.5390625 L26.890625,0.5390625 L26.890625,4.70898438 L30.4384766,0.5390625 L32.3525391,0.5390625 L28.6542969,4.75 L32.578125,10 L30.5615234,10 Z M37.5751953,1.99511719 L37.5751953,10 L35.9755859,10 L35.9755859,1.99511719 L32.9541016,1.99511719 L32.9541016,0.5390625 L40.5966797,0.5390625 L40.5966797,1.99511719 L37.5751953,1.99511719 Z M49.2988281,5.26953125 C49.2988281,6.04427471 49.2247729,6.7358368 49.0766602,7.34423828 C48.9285474,7.95263976 48.6938493,8.46874788 48.3725586,8.89257812 C48.0512679,9.31640837 47.6399765,9.63997284 47.1386719,9.86328125 C46.6373673,10.0865897 46.0358108,10.1982422 45.3339844,10.1982422 C44.6321579,10.1982422 44.0317408,10.0865897 43.5327148,9.86328125 C43.0336889,9.63997284 42.6235368,9.31640837 42.3022461,8.89257812 C41.9809554,8.46874788 41.7451179,7.95263976 41.5947266,7.34423828 C41.4443352,6.7358368 41.3691406,6.04427471 41.3691406,5.26953125 C41.3691406,4.49478779 41.4443352,3.80208639 41.5947266,3.19140625 C41.7451179,2.58072611 41.9809554,2.06461799 42.3022461,1.64306641 C42.6235368,1.22151482 43.0336889,0.899089658 43.5327148,0.67578125 C44.0317408,0.452472842 44.6321579,0.340820312 45.3339844,0.340820312 C46.0358108,0.340820312 46.6373673,0.45133353 47.1386719,0.672363281 C47.6399765,0.893393032 48.0512679,1.21467888 48.3725586,1.63623047 C48.6938493,2.05778206 48.9285474,2.57389018 49.0766602,3.18457031 C49.2247729,3.79525045 49.2988281,4.49023048 49.2988281,5.26953125 Z M47.6308594,5.26953125 C47.6308594,4.68163769 47.5898442,4.16780819 47.5078125,3.72802734 C47.4257808,3.2882465 47.2936207,2.9225275 47.1113281,2.63085938 C46.9290355,2.33919125 46.6920588,2.12044344 46.4003906,1.97460938 C46.1087225,1.82877531 45.7532573,1.75585938 45.3339844,1.75585938 C44.9101541,1.75585938 44.551271,1.82877531 44.2573242,1.97460938 C43.9633774,2.12044344 43.7252613,2.33919125 43.5429688,2.63085938 C43.3606762,2.9225275 43.228516,3.2882465 43.1464844,3.72802734 C43.0644527,4.16780819 43.0234375,4.68163769 43.0234375,5.26953125 C43.0234375,5.85742481 43.0644527,6.37125431 43.1464844,6.81103516 C43.228516,7.250816 43.3618155,7.616535 43.5463867,7.90820312 C43.730958,8.19987125 43.9702134,8.41861906 44.2641602,8.56445312 C44.5581069,8.71028719 44.9147114,8.78320312 45.3339844,8.78320312 C45.7532573,8.78320312 46.1087225,8.7114265 46.4003906,8.56787109 C46.6920588,8.42431569 46.9290355,8.20670719 47.1113281,7.91503906 C47.2936207,7.62337094 47.4257808,7.25765194 47.5078125,6.81787109 C47.5898442,6.37809025 47.6308594,5.86198213 47.6308594,5.26953125 Z M57.6660156,3.64257812 C57.6660156,4.21224243 57.6010749,4.7032857 57.4711914,5.11572266 C57.3413079,5.52815961 57.1385105,5.86881376 56.862793,6.13769531 C56.5870754,6.40657687 56.2338889,6.60595638 55.8032227,6.73583984 C55.3725564,6.86572331 54.8564483,6.93066406 54.2548828,6.93066406 L52.7236328,6.93066406 L52.7236328,10 L51.1308594,10 L51.1308594,0.5390625 L54.3095703,0.5390625 C54.8473334,0.5390625 55.3247049,0.594888765 55.7416992,0.706542969 C56.1586935,0.818197173 56.5096014,0.997069082 56.7944336,1.24316406 C57.0792657,1.48925904 57.2957349,1.80940558 57.4438477,2.20361328 C57.5919604,2.59782098 57.6660156,3.07747113 57.6660156,3.64257812 Z M56.0048828,3.65625 C56.0048828,3.31445142 55.958171,3.03304147 55.8647461,2.81201172 C55.7713211,2.59098197 55.6357431,2.4166673 55.4580078,2.2890625 C55.2802725,2.1614577 55.0603854,2.0725914 54.7983398,2.02246094 C54.5362943,1.97233048 54.2366553,1.94726562 53.8994141,1.94726562 L52.7236328,1.94726562 L52.7236328,5.52246094 L53.7216797,5.52246094 C54.1227234,5.52246094 54.4679348,5.50195333 54.7573242,5.4609375 C55.0467137,5.41992167 55.2836905,5.33447331 55.4682617,5.20458984 C55.652833,5.07470638 55.788411,4.88671998 55.875,4.640625 C55.961589,4.39453002 56.0048828,4.0664083 56.0048828,3.65625 Z M62.1025391,10 L65.28125,0.5390625 L67.3525391,0.5390625 L70.5449219,10 L68.890625,10 L68.1660156,7.81933594 L64.4130859,7.81933594 L63.6953125,10 L62.1025391,10 Z M64.8710938,6.390625 L67.6875,6.390625 L66.2861328,2.13183594 L64.8710938,6.390625 Z M78.4814453,3.64257812 C78.4814453,4.21224243 78.4165046,4.7032857 78.2866211,5.11572266 C78.1567376,5.52815961 77.9539402,5.86881376 77.6782227,6.13769531 C77.4025051,6.40657687 77.0493186,6.60595638 76.6186523,6.73583984 C76.1879861,6.86572331 75.671878,6.93066406 75.0703125,6.93066406 L73.5390625,6.93066406 L73.5390625,10 L71.9462891,10 L71.9462891,0.5390625 L75.125,0.5390625 C75.6627631,0.5390625 76.1401346,0.594888765 76.5571289,0.706542969 C76.9741232,0.818197173 77.3250311,0.997069082 77.6098633,1.24316406 C77.8946954,1.48925904 78.1111646,1.80940558 78.2592773,2.20361328 C78.4073901,2.59782098 78.4814453,3.07747113 78.4814453,3.64257812 Z M76.8203125,3.65625 C76.8203125,3.31445142 76.7736007,3.03304147 76.6801758,2.81201172 C76.5867508,2.59098197 76.4511728,2.4166673 76.2734375,2.2890625 C76.0957022,2.1614577 75.8758151,2.0725914 75.6137695,2.02246094 C75.351724,1.97233048 75.052085,1.94726562 74.7148438,1.94726562 L73.5390625,1.94726562 L73.5390625,5.52246094 L74.5371094,5.52246094 C74.938153,5.52246094 75.2833644,5.50195333 75.5727539,5.4609375 C75.8621434,5.41992167 76.0991202,5.33447331 76.2836914,5.20458984 C76.4682626,5.07470638 76.6038407,4.88671998 76.6904297,4.640625 C76.7770187,4.39453002 76.8203125,4.0664083 76.8203125,3.65625 Z M86.7529297,3.64257812 C86.7529297,4.21224243 86.6879889,4.7032857 86.5581055,5.11572266 C86.428222,5.52815961 86.2254246,5.86881376 85.949707,6.13769531 C85.6739895,6.40657687 85.3208029,6.60595638 84.8901367,6.73583984 C84.4594705,6.86572331 83.9433624,6.93066406 83.3417969,6.93066406 L81.8105469,6.93066406 L81.8105469,10 L80.2177734,10 L80.2177734,0.5390625 L83.3964844,0.5390625 C83.9342475,0.5390625 84.411619,0.594888765 84.8286133,0.706542969 C85.2456076,0.818197173 85.5965155,0.997069082 85.8813477,1.24316406 C86.1661798,1.48925904 86.382649,1.80940558 86.5307617,2.20361328 C86.6788744,2.59782098 86.7529297,3.07747113 86.7529297,3.64257812 Z M85.0917969,3.65625 C85.0917969,3.31445142 85.0450851,3.03304147 84.9516602,2.81201172 C84.8582352,2.59098197 84.7226571,2.4166673 84.5449219,2.2890625 C84.3671866,2.1614577 84.1472995,2.0725914 83.8852539,2.02246094 C83.6232083,1.97233048 83.3235694,1.94726562 82.9863281,1.94726562 L81.8105469,1.94726562 L81.8105469,5.52246094 L82.8085938,5.52246094 C83.2096374,5.52246094 83.5548488,5.50195333 83.8442383,5.4609375 C84.1336277,5.41992167 84.3706045,5.33447331 84.5551758,5.20458984 C84.739747,5.07470638 84.8753251,4.88671998 84.9619141,4.640625 C85.048503,4.39453002 85.0917969,4.0664083 85.0917969,3.65625 Z" id="Desktop-App"></path>
                    </g>
                    <path d="M3.890625,19.0078125 C3.83593723,18.9765623 3.77050819,18.9453127 3.69433594,18.9140625 C3.61816368,18.8828123 3.53808636,18.8554689 3.45410156,18.8320312 C3.37011677,18.8085936 3.28418013,18.7900391 3.19628906,18.7763672 C3.108398,18.7626952 3.02343791,18.7558594 2.94140625,18.7558594 C2.76171785,18.7558594 2.61132873,18.7812497 2.49023438,18.8320312 C2.36914002,18.8828128 2.27148475,18.9648432 2.19726562,19.078125 C2.1230465,19.1914068 2.07031266,19.3398428 2.0390625,19.5234375 C2.00781234,19.7070322 1.9921875,19.9316393 1.9921875,20.1972656 L1.9921875,20.8535156 L3.421875,20.8535156 L3.421875,21.5039062 L1.9921875,21.5039062 L1.9921875,27 L1.23632812,27 L1.23632812,21.5039062 L0.275390625,21.5039062 L0.275390625,20.8535156 L1.23632812,20.8535156 L1.23632812,20.1738281 C1.23632812,19.8183576 1.26562471,19.5097669 1.32421875,19.2480469 C1.38281279,18.9863268 1.47949151,18.7695321 1.61425781,18.5976562 C1.74902411,18.4257804 1.9248036,18.2988285 2.14160156,18.2167969 C2.35839952,18.1347652 2.62499842,18.09375 2.94140625,18.09375 C3.17578242,18.09375 3.399413,18.12207 3.61230469,18.1787109 C3.82519638,18.2353518 4.00195242,18.2988278 4.14257812,18.3691406 L3.890625,19.0078125 Z M9.55078125,23.9414062 C9.55078125,24.4296899 9.50390672,24.8720683 9.41015625,25.2685547 C9.31640578,25.665041 9.16601666,26.0058579 8.95898438,26.2910156 C8.75195209,26.5761733 8.48437664,26.7958977 8.15625,26.9501953 C7.82812336,27.104493 7.43164295,27.1816406 6.96679688,27.1816406 C6.5019508,27.1816406 6.10547039,27.104493 5.77734375,26.9501953 C5.44921711,26.7958977 5.18164166,26.5761733 4.97460938,26.2910156 C4.76757709,26.0058579 4.61621142,25.665041 4.52050781,25.2685547 C4.42480421,24.8720683 4.37695312,24.4296899 4.37695312,23.9414062 C4.37695312,23.4648414 4.42382766,23.0263692 4.51757812,22.6259766 C4.61132859,22.2255839 4.76171771,21.8808608 4.96875,21.5917969 C5.17578229,21.3027329 5.44335773,21.0781258 5.77148438,20.9179688 C6.09961102,20.7578117 6.49804453,20.6777344 6.96679688,20.6777344 C7.42383041,20.6777344 7.81542806,20.754882 8.14160156,20.9091797 C8.46777507,21.0634773 8.73535052,21.2832017 8.94433594,21.5683594 C9.15332136,21.8535171 9.30664014,22.1962871 9.40429688,22.5966797 C9.50195361,22.9970723 9.55078125,23.44531 9.55078125,23.9414062 Z M8.75976562,23.9414062 C8.75976562,23.5273417 8.72851594,23.1582047 8.66601562,22.8339844 C8.60351531,22.509764 8.50195383,22.2363292 8.36132812,22.0136719 C8.22070242,21.7910145 8.03613396,21.6220709 7.80761719,21.5068359 C7.57910042,21.391601 7.29882979,21.3339844 6.96679688,21.3339844 C6.6308577,21.3339844 6.3476574,21.3935541 6.1171875,21.5126953 C5.8867176,21.6318365 5.70019603,21.8037098 5.55761719,22.0283203 C5.41503835,22.2529308 5.31250031,22.5263656 5.25,22.8486328 C5.18749969,23.1709 5.15625,23.5351542 5.15625,23.9414062 C5.15625,24.3476583 5.18847624,24.7109359 5.25292969,25.03125 C5.31738313,25.3515641 5.42089772,25.6230458 5.56347656,25.8457031 C5.7060554,26.0683605 5.89257697,26.2382807 6.12304688,26.3554688 C6.35351678,26.4726568 6.63476396,26.53125 6.96679688,26.53125 C7.29101725,26.53125 7.56738167,26.4736334 7.79589844,26.3583984 C8.02441521,26.2431635 8.20996022,26.0742199 8.35253906,25.8515625 C8.4951179,25.6289051 8.59863249,25.3574235 8.66308594,25.0371094 C8.72753938,24.7167953 8.75976562,24.3515646 8.75976562,23.9414062 Z M14.5078125,21.5976562 C14.3710931,21.5429685 14.2226571,21.515625 14.0625,21.515625 C13.8749991,21.515625 13.7041023,21.5390623 13.5498047,21.5859375 C13.395507,21.6328127 13.2441414,21.7031245 13.0957031,21.796875 C12.9472649,21.8906255 12.7958992,22.0068352 12.6416016,22.1455078 C12.4873039,22.2841804 12.3164072,22.4472647 12.1289062,22.6347656 L12.1289062,27 L11.3730469,27 L11.3730469,20.8535156 L12.1289062,20.8535156 L12.1289062,21.9140625 C12.3046884,21.7382804 12.4716789,21.5791023 12.6298828,21.4365234 C12.7880867,21.2939446 12.9462883,21.1728521 13.1044922,21.0732422 C13.2626961,20.9736323 13.4228508,20.8964846 13.5849609,20.8417969 C13.7470711,20.7871091 13.9179679,20.7597656 14.0976562,20.7597656 C14.2109381,20.7597656 14.3144527,20.7695312 14.4082031,20.7890625 C14.5019536,20.8085938 14.5898433,20.8398435 14.671875,20.8828125 L14.5078125,21.5976562 Z M25.828125,27 L24.796875,27 L23.1503906,19.9453125 L21.4921875,27 L20.4960938,27 L18.6035156,18.890625 L19.40625,18.890625 L21.0292969,25.9335938 L22.6582031,18.890625 L23.6425781,18.890625 L25.3242188,25.9921875 L26.953125,18.890625 L27.7324219,18.890625 L25.828125,27 Z M30.1816406,19.3535156 C30.1816406,19.5527354 30.1396489,19.6884762 30.0556641,19.7607422 C29.9716793,19.8330082 29.8339853,19.8691406 29.6425781,19.8691406 C29.4433584,19.8691406 29.3056644,19.8242192 29.2294922,19.734375 C29.1533199,19.6445308 29.1152344,19.5175789 29.1152344,19.3535156 C29.1152344,19.1777335 29.1542965,19.0498051 29.2324219,18.9697266 C29.3105473,18.889648 29.4472646,18.8496094 29.6425781,18.8496094 C29.8417979,18.8496094 29.9814449,18.8886715 30.0615234,18.9667969 C30.141602,19.0449223 30.1816406,19.1738272 30.1816406,19.3535156 Z M29.2675781,27 L29.2675781,20.8535156 L30.0234375,20.8535156 L30.0234375,27 L29.2675781,27 Z M35.9824219,27 L35.9824219,23.1855469 C35.9824219,22.8417952 35.966797,22.5546887 35.9355469,22.3242188 C35.9042967,22.0937488 35.8496098,21.9101569 35.7714844,21.7734375 C35.693359,21.6367181 35.5869147,21.5400393 35.4521484,21.4833984 C35.3173821,21.4267575 35.1484385,21.3984375 34.9453125,21.3984375 C34.6757799,21.3984375 34.363283,21.4990224 34.0078125,21.7001953 C33.652342,21.9013682 33.2890644,22.1796857 32.9179688,22.5351562 L32.9179688,27 L32.1621094,27 L32.1621094,20.8535156 L32.9179688,20.8535156 L32.9179688,21.8261719 C33.0937509,21.6582023 33.2705069,21.503907 33.4482422,21.3632812 C33.6259775,21.2226555 33.8056632,21.101563 33.9873047,21 C34.1689462,20.898437 34.3515616,20.8193362 34.5351562,20.7626953 C34.7187509,20.7060544 34.9042959,20.6777344 35.0917969,20.6777344 C35.4199235,20.6777344 35.6894521,20.726562 35.9003906,20.8242188 C36.1113292,20.9218755 36.2792963,21.0654287 36.4042969,21.2548828 C36.5292975,21.4443369 36.6162107,21.6767564 36.6650391,21.9521484 C36.7138674,22.2275404 36.7382812,22.542967 36.7382812,22.8984375 L36.7382812,27 L35.9824219,27 Z M42.6796875,27 L42.6796875,26.3261719 C42.5546869,26.4472662 42.418946,26.5595698 42.2724609,26.6630859 C42.1259758,26.7666021 41.9726571,26.8564449 41.8125,26.9326172 C41.6523429,27.0087894 41.486329,27.0693357 41.3144531,27.1142578 C41.1425773,27.1591799 40.9687509,27.1816406 40.7929688,27.1816406 C40.4101543,27.1816406 40.0761733,27.1093757 39.7910156,26.9648438 C39.5058579,26.8203118 39.2685556,26.6103529 39.0791016,26.3349609 C38.8896475,26.0595689 38.7480473,25.7236348 38.6542969,25.3271484 C38.5605464,24.9306621 38.5136719,24.4804713 38.5136719,23.9765625 C38.5136719,23.5507791 38.5595699,23.1396504 38.6513672,22.7431641 C38.7431645,22.3466777 38.8857412,21.9951187 39.0791016,21.6884766 C39.2724619,21.3818344 39.5185532,21.1367197 39.8173828,20.953125 C40.1162124,20.7695303 40.4746073,20.6777344 40.8925781,20.6777344 C41.2441424,20.6777344 41.5624986,20.7431634 41.8476562,20.8740234 C42.1328139,21.0048835 42.4101549,21.1757802 42.6796875,21.3867188 L42.6796875,18.2753906 L43.4355469,18.2753906 L43.4355469,27 L42.6796875,27 Z M42.6796875,22.0898438 C42.3867173,21.8554676 42.0976577,21.6728522 41.8125,21.5419922 C41.5273423,21.4111322 41.244142,21.3457031 40.9628906,21.3457031 C40.7089831,21.3457031 40.4785167,21.4052728 40.2714844,21.5244141 C40.0644521,21.6435553 39.8886726,21.814452 39.7441406,22.0371094 C39.5996087,22.2597667 39.4882816,22.532225 39.4101562,22.8544922 C39.3320309,23.1767594 39.2929688,23.5429667 39.2929688,23.953125 C39.2929688,24.3398457 39.3222653,24.6914047 39.3808594,25.0078125 C39.4394534,25.3242203 39.5322259,25.5937489 39.6591797,25.8164062 C39.7861334,26.0390636 39.9492178,26.2119134 40.1484375,26.3349609 C40.3476572,26.4580084 40.5898423,26.5195312 40.875,26.5195312 C41.0429696,26.5195312 41.208007,26.4951174 41.3701172,26.4462891 C41.5322274,26.3974607 41.6894524,26.3310551 41.8417969,26.2470703 C41.9941414,26.1630855 42.1406243,26.0664068 42.28125,25.9570312 C42.4218757,25.8476557 42.5546869,25.7304694 42.6796875,25.6054688 L42.6796875,22.0898438 Z M50.4316406,23.9414062 C50.4316406,24.4296899 50.3847661,24.8720683 50.2910156,25.2685547 C50.1972652,25.665041 50.046876,26.0058579 49.8398438,26.2910156 C49.6328115,26.5761733 49.365236,26.7958977 49.0371094,26.9501953 C48.7089827,27.104493 48.3125023,27.1816406 47.8476562,27.1816406 C47.3828102,27.1816406 46.9863298,27.104493 46.6582031,26.9501953 C46.3300765,26.7958977 46.062501,26.5761733 45.8554688,26.2910156 C45.6484365,26.0058579 45.4970708,25.665041 45.4013672,25.2685547 C45.3056636,24.8720683 45.2578125,24.4296899 45.2578125,23.9414062 C45.2578125,23.4648414 45.304687,23.0263692 45.3984375,22.6259766 C45.492188,22.2255839 45.6425771,21.8808608 45.8496094,21.5917969 C46.0566417,21.3027329 46.3242171,21.0781258 46.6523438,20.9179688 C46.9804704,20.7578117 47.3789039,20.6777344 47.8476562,20.6777344 C48.3046898,20.6777344 48.6962874,20.754882 49.0224609,20.9091797 C49.3486344,21.0634773 49.6162099,21.2832017 49.8251953,21.5683594 C50.0341807,21.8535171 50.1874995,22.1962871 50.2851562,22.5966797 C50.382813,22.9970723 50.4316406,23.44531 50.4316406,23.9414062 Z M49.640625,23.9414062 C49.640625,23.5273417 49.6093753,23.1582047 49.546875,22.8339844 C49.4843747,22.509764 49.3828132,22.2363292 49.2421875,22.0136719 C49.1015618,21.7910145 48.9169933,21.6220709 48.6884766,21.5068359 C48.4599598,21.391601 48.1796892,21.3339844 47.8476562,21.3339844 C47.5117171,21.3339844 47.2285168,21.3935541 46.9980469,21.5126953 C46.767577,21.6318365 46.5810554,21.8037098 46.4384766,22.0283203 C46.2958977,22.2529308 46.1933597,22.5263656 46.1308594,22.8486328 C46.0683591,23.1709 46.0371094,23.5351542 46.0371094,23.9414062 C46.0371094,24.3476583 46.0693356,24.7109359 46.1337891,25.03125 C46.1982425,25.3515641 46.3017571,25.6230458 46.4443359,25.8457031 C46.5869148,26.0683605 46.7734363,26.2382807 47.0039062,26.3554688 C47.2343762,26.4726568 47.5156233,26.53125 47.8476562,26.53125 C48.1718766,26.53125 48.448241,26.4736334 48.6767578,26.3583984 C48.9052746,26.2431635 49.0908196,26.0742199 49.2333984,25.8515625 C49.3759773,25.6289051 49.4794919,25.3574235 49.5439453,25.0371094 C49.6083988,24.7167953 49.640625,24.3515646 49.640625,23.9414062 Z M57.65625,27 L56.9238281,27 L55.3769531,21.9023438 L53.8300781,27 L53.0976562,27 L51.6679688,20.8535156 L52.4472656,20.8535156 L53.5371094,25.8984375 L55.0488281,20.8535156 L55.734375,20.8535156 L57.2695312,25.8984375 L58.3300781,20.8535156 L59.0859375,20.8535156 L57.65625,27 Z M64.5234375,25.4296875 C64.5234375,25.7187514 64.4736333,25.9726552 64.3740234,26.1914062 C64.2744136,26.4101573 64.1298838,26.5927727 63.9404297,26.7392578 C63.7509756,26.8857429 63.5205092,26.9960934 63.2490234,27.0703125 C62.9775377,27.1445316 62.6699236,27.1816406 62.3261719,27.1816406 C62.009764,27.1816406 61.7324231,27.1474613 61.4941406,27.0791016 C61.2558582,27.0107418 61.0498056,26.9238287 60.8759766,26.8183594 C60.7021476,26.7128901 60.5595709,26.5966803 60.4482422,26.4697266 C60.3369135,26.3427728 60.2519534,26.2187506 60.1933594,26.0976562 L60.8027344,25.7167969 C60.9394538,25.9628919 61.1318347,26.1601555 61.3798828,26.3085938 C61.6279309,26.457032 61.9472637,26.53125 62.3378906,26.53125 C62.5410166,26.53125 62.7304679,26.5146486 62.90625,26.4814453 C63.0820321,26.448242 63.2343744,26.3906254 63.3632812,26.3085938 C63.4921881,26.2265621 63.5937496,26.1162116 63.6679688,25.9775391 C63.7421879,25.8388665 63.7792969,25.6640636 63.7792969,25.453125 C63.7792969,25.2890617 63.7558596,25.1474615 63.7089844,25.0283203 C63.6621091,24.9091791 63.5791022,24.8037114 63.4599609,24.7119141 C63.3408197,24.6201167 63.1796885,24.5371097 62.9765625,24.4628906 C62.7734365,24.3886715 62.5136735,24.3105473 62.1972656,24.2285156 C61.869139,24.1425777 61.5869152,24.0507817 61.3505859,23.953125 C61.1142566,23.8554683 60.9189461,23.7373054 60.7646484,23.5986328 C60.6103508,23.4599602 60.4960941,23.2939463 60.421875,23.1005859 C60.3476559,22.9072256 60.3105469,22.6718764 60.3105469,22.3945312 C60.3105469,22.1679676 60.3525386,21.9501964 60.4365234,21.7412109 C60.5205082,21.5322255 60.6494132,21.3496102 60.8232422,21.1933594 C60.9970712,21.0371086 61.2148424,20.9121098 61.4765625,20.8183594 C61.7382826,20.7246089 62.0468732,20.6777344 62.4023438,20.6777344 C62.6718763,20.6777344 62.9130849,20.707031 63.1259766,20.765625 C63.3388683,20.824219 63.5273429,20.9033198 63.6914062,21.0029297 C63.8554696,21.1025396 63.9960932,21.2187493 64.1132812,21.3515625 C64.2304693,21.4843757 64.3281246,21.6230462 64.40625,21.7675781 L63.7910156,22.1308594 C63.7324216,22.0214838 63.6611332,21.9179692 63.5771484,21.8203125 C63.4931636,21.7226558 63.3955084,21.6376957 63.2841797,21.5654297 C63.172851,21.4931637 63.0449226,21.4365236 62.9003906,21.3955078 C62.7558587,21.354492 62.5898447,21.3339844 62.4023438,21.3339844 C61.9843729,21.3339844 61.6552746,21.4257803 61.4150391,21.609375 C61.1748035,21.7929697 61.0546875,22.0507796 61.0546875,22.3828125 C61.0546875,22.5429696 61.0761717,22.6796869 61.1191406,22.7929688 C61.1621096,22.9062506 61.2343745,23.0048824 61.3359375,23.0888672 C61.4375005,23.172852 61.5751944,23.2480465 61.7490234,23.3144531 C61.9228524,23.3808597 62.1406237,23.4492184 62.4023438,23.5195312 C62.796877,23.6250005 63.1298815,23.7324213 63.4013672,23.8417969 C63.6728529,23.9511724 63.8916007,24.0781243 64.0576172,24.2226562 C64.2236336,24.3671882 64.3427731,24.5361318 64.4150391,24.7294922 C64.487305,24.9228525 64.5234375,25.1562486 64.5234375,25.4296875 Z" id="for-Windows"></path>
                </g>
            </g>
        </g>
    </g>
</svg>