<?xml version="1.0" encoding="UTF-8"?>
<svg width="32px" height="32px" viewBox="0 0 32 32" version="1.1" xmlns="http://www.w3.org/2000/svg" xmlns:xlink="http://www.w3.org/1999/xlink">
    <!-- Generator: sketchtool 46.2 (44496) - http://www.bohemiancoding.com/sketch -->
    <title>349197BF-4F8B-484E-AC31-47D5F0F7FA40</title>
    <desc>Created with sketchtool.</desc>
    <defs></defs>
    <g id="Page-1" stroke="none" stroke-width="1" fill="none" fill-rule="evenodd">
        <g id="Desktop-2-ver.2" transform="translate(-912.000000, -11647.000000)" fill="#FFFFFF">
            <g id="bottom" transform="translate(0.000000, 6137.000000)">
                <g id="footer" transform="translate(0.000000, 5347.000000)">
                    <g id="Group-50" transform="translate(912.000000, 163.000000)">
                        <g id="Group-47">
                            <path d="M16,32 C7.163444,32 0,24.836556 0,16 C0,7.163444 7.163444,0 16,0 C24.836556,0 32,7.163444 32,16 C32,24.836556 24.836556,32 16,32 Z M9,24 L23,24 L23,22 L9,22 L9,24 Z M23,13 L19,13 L19,7 L13,7 L13,13 L9,13 L16,20 L23,13 Z" id="Combined-Shape"></path>
                        </g>
                    </g>
                </g>
            </g>
        </g>
    </g>
</svg>