<?xml version="1.0" encoding="UTF-8"?>
<svg width="51px" height="39px" viewBox="0 0 51 39" version="1.1" xmlns="http://www.w3.org/2000/svg" xmlns:xlink="http://www.w3.org/1999/xlink">
    <!-- Generator: sketchtool 46.2 (44496) - http://www.bohemiancoding.com/sketch -->
    <title>F16274B6-0C39-48A3-AFA1-030EC0D39FEC</title>
    <desc>Created with sketchtool.</desc>
    <defs></defs>
    <g id="Page-1" stroke="none" stroke-width="1" fill="none" fill-rule="evenodd">
        <g id="Team-Desktop" transform="translate(-1046.000000, -1501.000000)">
            <g id="6-Time" transform="translate(1047.000000, 1501.000000)">
                <path d="M45.047619,4.47348936 C45.047619,4.47348936 45.7674603,0.800425532 41.7793651,0.800425532 C35.3261905,0.800425532 2.65793651,0.800425532 2.65793651,0.800425532 C1.46984127,0.800425532 0.744444444,1.83208511 0.744444444,3.04242553 L0.744444444,35.0489362 C0.744444444,36.2592766 1.70793651,37.2408085 2.89603175,37.2408085 L44.7246032,37.2408085 C45.9126984,37.2408085 46.8753968,36.2592766 46.8753968,35.0489362 L46.8753968,6.95480851 C46.8753968,5.74365957 45.9126984,4.76293617 44.7246032,4.76293617 C44.7246032,4.76293617 6.08730159,4.76293617 3.59206349,4.76293617 C1.98571429,4.76293617 0.828571429,4.54948936 0.828571429,2.86455319 C0.828571429,1.49331915 1.48968254,1.24753191 1.48968254,1.24753191 C1.48968254,1.24753191 -0.395238095,4.71765957 3.50714286,4.71765957" id="Shape" stroke="#422F8B" stroke-width="1.6" fill="#768FFF" stroke-linecap="round" stroke-linejoin="round"></path>
                <path d="M23.1571429,12.2020426 C27.8730159,12.2020426 31.697619,16.0966383 31.697619,20.9024255 C31.697619,25.7065957 27.8738095,29.6028085 23.1571429,29.6028085 C18.4404762,29.6028085 14.6166667,25.7074043 14.6166667,20.9024255 C14.6166667,16.0966383 18.4396825,12.2020426 23.1571429,12.2020426 Z" id="Shape" fill="#F8F9FE"></path>
                <g id="Group" transform="translate(0.000000, 5.659574)" stroke="#422F8B" stroke-width="0.8">
                    <path d="M0.711111111,0.350085106 C0.711111111,0.350085106 0.870634921,0.754340426 1.63253968,1.08178723" id="Shape"></path>
                    <path d="M3.17539683,1.44319149 C3.46666667,1.47229787 3.79126984,1.4892766 4.1531746,1.4892766 C13.4095238,1.4892766 42.7039683,1.4892766 42.7039683,1.4892766 C43.8920635,1.4892766 44.7698413,1.94446809 44.7698413,3.15561702 L44.7698413,28.0245957 C44.7698413,29.2349362 44.2365079,29.7774468 43.0492063,29.7774468 C43.0492063,29.7774468 13.1547619,29.7774468 4.41111111,29.7774468 C3.55079365,29.7774468 2.87301587,29.6505106 2.3452381,29.4726383" id="Shape" stroke-dasharray="2.403359985351563,1.602239990234375"></path>
                    <path d="M1.61507937,29.149234 C0.953174603,28.7757021 0.711904762,28.3746809 0.711904762,28.3746809" id="Shape"></path>
                </g>
                <g id="Group" transform="translate(38.095238, 16.170213)">
                    <path d="M3.17301587,7.33157447 C2.02380952,7.33157447 1.08809524,6.37834043 1.08809524,5.20761702 L1.08809524,3.62051064 C1.08809524,2.44978723 2.02380952,1.4973617 3.17301587,1.4973617 L8.40079365,1.4973617 C9.55,1.4973617 10.4849206,2.44978723 10.4849206,3.62051064 L10.4849206,5.20761702 C10.4849206,6.37834043 9.55,7.33157447 8.40079365,7.33157447 L3.17301587,7.33157447 Z" id="Shape" fill="#768FFF"></path>
                    <path d="M8.40079365,2.30668085 C9.11269841,2.30668085 9.69126984,2.89608511 9.69126984,3.62131915 L9.69126984,5.20842553 C9.69126984,5.93365957 9.11269841,6.52387234 8.40079365,6.52387234 L3.17301587,6.52387234 C2.46031746,6.52387234 1.88174603,5.93446809 1.88174603,5.20842553 L1.88174603,3.62131915 C1.88174603,2.89608511 2.46031746,2.30668085 3.17301587,2.30668085 L8.40079365,2.30668085 L8.40079365,2.30668085 Z M8.40079365,0.689659574 L3.17301587,0.689659574 C1.58571429,0.689659574 0.294444444,2.00429787 0.294444444,3.62131915 L0.294444444,5.20842553 C0.294444444,6.82544681 1.58571429,8.14089362 3.17301587,8.14089362 L8.40079365,8.14089362 C9.98730159,8.14089362 11.2785714,6.82544681 11.2785714,5.20842553 L11.2785714,3.62131915 C11.2785714,2.00429787 9.98730159,0.689659574 8.40079365,0.689659574 L8.40079365,0.689659574 Z" id="Shape" fill="#422F8B" fill-rule="nonzero"></path>
                </g>
                <path d="M42.3944444,19.6573191 C42.8690476,19.6573191 43.2539683,20.0494468 43.2539683,20.5337447 C43.2539683,21.0180426 42.8690476,21.4109787 42.3944444,21.4109787 C41.918254,21.4109787 41.5333333,21.0180426 41.5333333,20.5337447 C41.5333333,20.0494468 41.918254,19.6573191 42.3944444,19.6573191 Z" id="Shape" stroke="#422F8B" stroke-width="1.6"></path>
                <path d="M23.147619,30.3231915 C17.8785714,30.3231915 13.6261905,26.0485957 13.6261905,20.7536596 C13.6261905,15.4587234 17.8785714,11.1841277 23.147619,11.1841277 C28.4166667,11.1841277 32.6698413,15.4587234 32.6698413,20.7536596 C32.6698413,26.0485957 28.4166667,30.3231915 23.147619,30.3231915 Z M23.147619,12.8860426 C18.8309524,12.8860426 15.3190476,16.416 15.3190476,20.7536596 C15.3190476,25.0913191 18.8309524,28.6212766 23.147619,28.6212766 C27.4642857,28.6212766 30.9769841,25.0913191 30.9769841,20.7536596 C30.9769841,16.416 27.4642857,12.8860426 23.147619,12.8860426 Z M26.8087302,22.2429362 L22.7031746,22.2429362 C22.2373016,22.2429362 21.8571429,21.8597021 21.8571429,21.392383 C21.8571429,21.3277021 21.8571429,21.2428085 21.8777778,21.1781277 C21.8777778,21.1150638 21.8571429,21.0511915 21.8571429,20.9662979 L21.8571429,16.8412766 C21.8571429,16.3731489 22.2373016,15.9907234 22.7031746,15.9907234 C23.168254,15.9907234 23.5492063,16.3731489 23.5492063,16.8412766 L23.5492063,20.5410213 L26.8079365,20.5410213 C27.2730159,20.5410213 27.6539683,20.9242553 27.6539683,21.392383 C27.6555556,21.8597021 27.2738095,22.2429362 26.8087302,22.2429362 Z" id="Shape" fill="#422F8B"></path>
            </g>
        </g>
    </g>
</svg>