<?xml version="1.0" encoding="UTF-8"?>
<svg width="75px" height="42px" viewBox="0 0 75 42" version="1.1" xmlns="http://www.w3.org/2000/svg" xmlns:xlink="http://www.w3.org/1999/xlink">
    <!-- Generator: sketchtool 46.2 (44496) - http://www.bohemiancoding.com/sketch -->
    <title>193B2B02-9C6C-49BE-8FD4-1F3F883E9C0B</title>
    <desc>Created with sketchtool.</desc>
    <defs></defs>
    <g id="Page-1" stroke="none" stroke-width="1" fill="none" fill-rule="evenodd" stroke-linecap="round" stroke-linejoin="round">
        <g id="Team-Desktop" transform="translate(-891.000000, -1271.000000)" stroke="#422F8B" stroke-width="1.6">
            <g id="3-Employee" transform="translate(892.000000, 1272.000000)">
                <path d="M45.6049451,32.1737451 C45.6049451,32.1737451 45.3602747,28.7530588 45.3602747,26.7633529 C45.3602747,24.7736471 50.3708022,23.595098 52.2663956,22.5516078 C53.1937363,22.0403137 53.2891978,20.9413529 53.1079011,19.8697255 C51.8797363,18.4250784 50.7061209,16.2721765 50.386044,14.1192745 C49.7482967,9.83437255 52.053011,7.43707843 55.5955165,7.43707843 C59.1396264,7.43707843 61.4427363,9.83356863 60.8065934,14.1192745 C60.460044,16.4426078 59.121978,18.7667451 57.7935385,20.1993333 C57.6868462,21.1592157 57.8448791,22.0925686 58.6791648,22.5516078 C60.5747582,23.595098 65.5836813,24.774451 65.5836813,26.7633529 C65.5836813,28.7538627 65.4224396,32.1737451 65.4224396,32.1737451 L45.6049451,32.1737451 Z" id="Shape" fill="#768FFF"></path>
                <path d="M6.29725275,32.1737451 C6.29725275,32.1737451 6.05178022,28.7530588 6.05178022,26.7633529 C6.05178022,24.7736471 11.0631099,23.595098 12.9579011,22.5516078 C13.886044,22.0403137 13.9815055,20.9413529 13.7994066,19.8697255 C12.572044,18.4250784 11.3984286,16.2721765 11.0775495,14.1192745 C10.4398022,9.83437255 12.7445165,7.43707843 16.2878242,7.43707843 C19.8311319,7.43707843 22.135044,9.83356863 21.4980989,14.1192745 C21.1523516,16.4426078 19.8134835,18.7667451 18.4858462,20.1993333 C18.3783516,21.1592157 18.5371868,22.0925686 19.3714725,22.5516078 C21.2662637,23.595098 26.275989,24.774451 26.275989,26.7633529 C26.275989,28.7538627 26.1147473,32.1737451 26.1147473,32.1737451 L6.29725275,32.1737451 Z" id="Shape" fill="#768FFF"></path>
                <path d="M23.7482637,32.174549 C23.7482637,32.174549 23.4313956,28.0062157 23.4313956,25.4328627 C23.4313956,22.8595098 29.9107473,21.3360784 32.3614615,19.9862941 C33.5615495,19.3254706 33.6850879,17.9041373 33.4492418,16.5197843 C31.8616923,14.6514706 30.3439341,11.8682941 29.9291978,9.0835098 C29.1053407,3.54207843 32.0855055,0.443764706 36.6660549,0.443764706 C41.2482088,0.443764706 44.2283736,3.54207843 43.4037143,9.0835098 C42.9568901,12.0869608 41.2257473,15.0928235 39.509044,16.9450588 C39.3694615,18.1871176 39.5764286,19.3938039 40.652978,19.9862941 C43.1036923,21.3368824 49.5822418,22.8595098 49.5822418,25.4328627 C49.5822418,28.0062157 49.3736703,32.174549 49.3736703,32.174549 L23.7482637,32.174549 Z" id="Shape" fill="#768FFF"></path>
                <path d="M0,32.1568627 L73,32.1568627" id="Shape"></path>
                <path d="M8.02197802,36.1764706 L64.978022,36.1764706" id="Shape"></path>
                <path d="M24.0659341,40.1960784 L48.9340659,40.1960784" id="Shape"></path>
            </g>
        </g>
    </g>
</svg>