<?xml version="1.0" encoding="UTF-8"?>
<svg width="50px" height="67px" viewBox="0 0 50 67" version="1.1" xmlns="http://www.w3.org/2000/svg" xmlns:xlink="http://www.w3.org/1999/xlink">
    <!-- Generator: sketchtool 46.2 (44496) - http://www.bohemiancoding.com/sketch -->
    <title>C61BE73F-58A1-4773-9D7B-A33510EC900F</title>
    <desc>Created with sketchtool.</desc>
    <defs></defs>
    <g id="Page-1" stroke="none" stroke-width="1" fill="none" fill-rule="evenodd">
        <g id="Team-Desktop" transform="translate(-183.000000, -1486.000000)">
            <g id="4-Investors" transform="translate(184.000000, 1487.000000)">
                <path d="M10.4952,65.195122 L39.2952,65.195122" id="Shape" stroke="#422F8B" stroke-width="1.6" stroke-linecap="round" stroke-linejoin="round"></path>
                <path d="M24.8952,64.3902439 L24.8952,36.2187073" id="Shape" stroke="#422F8B" stroke-width="1.6" stroke-linecap="round" stroke-linejoin="round"></path>
                <path d="M24.8952,64.8594878 C24.8952,64.8594878 24.8952,64.0876098 24.8952,62.679878 C24.8952,57.5495854 35.2952,56.073439 35.2952,50.4054878 C35.2952,44.7898537 35.2952,47.2197805 35.2952,47.2197805" id="Shape" stroke="#422F8B" stroke-width="1.6" stroke-linecap="round" stroke-linejoin="round"></path>
                <path d="M24.8952,61.8411951 C24.8952,61.8411951 24.8952,61.6729756 24.8952,57.9512195 C24.8952,52.8209268 14.4952,52.4514878 14.4952,46.7835366 C14.4952,41.1679024 14.4952,43.1953902 14.4952,43.1953902" id="Shape" stroke="#422F8B" stroke-width="1.6" stroke-linecap="round" stroke-linejoin="round"></path>
                <path d="M26.5344,35.4146341 C30.784,35.4146341 34.2296,30.7302439 34.2296,24.9512195 C34.2296,19.1721951 30.784,14.4878049 26.5344,14.4878049 C22.2848,14.4878049 27.5048,14.4878049 23.2552,14.4878049 C19.0056,14.4878049 15.56,19.1721951 15.56,24.9512195 C15.56,30.7302439 19.0056,35.4146341 23.2552,35.4146341 C27.5048,35.4146341 22.2848,35.4146341 26.5344,35.4146341 Z" id="Shape" stroke="#422F8B" stroke-width="1.6" fill="#768FFF" stroke-linecap="round" stroke-linejoin="round"></path>
                <path d="M27.1048,24.2195854 L25.8648,24.2195854 C25.0088,24.2195854 24.3144,23.5209512 24.3144,22.6597317 C24.3144,21.7993171 25.008,21.099878 25.8648,21.099878 L27.1048,21.099878 C28.0032,21.060439 28.764,21.7566585 28.8104,22.6597317 L30.3608,22.6597317 C30.3232,20.9525854 28.956,19.5778537 27.2592,19.5408293 L27.2592,17.9809756 L25.7088,17.9809756 L25.7088,19.5408293 C23.9968,19.5842927 22.6432,21.0153659 22.6864,22.7378049 C22.7288,24.4610488 24.152,25.8229024 25.8648,25.779439 L27.1048,25.779439 C27.9608,25.779439 28.6552,26.4780732 28.6552,27.3392927 C28.6552,28.2005122 27.9616,28.8991463 27.1048,28.8991463 L25.8648,28.8991463 C24.9672,28.9385854 24.2056,28.2423659 24.1592,27.3392927 L22.6088,27.3392927 C22.6456,29.0472439 24.012,30.4219756 25.7088,30.459 L25.7088,32.0188537 L27.2592,32.0188537 L27.2592,30.459 C28.3672,30.4308293 29.376,29.8110732 29.9064,28.8323415 C30.4368,27.8536098 30.4064,26.664 29.8288,25.7126341 C29.2512,24.7612683 28.2128,24.1914146 27.1048,24.2195854 L27.1048,24.2195854 Z" id="Shape" fill="#422F8B" fill-rule="nonzero"></path>
                <path d="M35.1616,42.2560976 C36.8544,42.2560976 38.228,43.6372683 38.228,45.3411951 C38.228,47.045122 36.8544,48.4270976 35.1616,48.4270976 C33.468,48.4270976 32.0952,47.045122 32.0952,45.3411951 C32.0952,43.6372683 33.468,42.2560976 35.1616,42.2560976 Z" id="Shape" stroke="#422F8B" stroke-width="1.6" fill="#F8F9FE" stroke-linecap="round" stroke-linejoin="round"></path>
                <path d="M14.3624,38.1954878 C16.2968,38.1954878 17.8656,39.7730488 17.8656,41.7200488 C17.8656,43.6670488 16.2968,45.2446098 14.3624,45.2446098 C12.428,45.2446098 10.8592,43.6670488 10.8592,41.7200488 C10.8592,39.7730488 12.4272,38.1954878 14.3624,38.1954878 Z" id="Shape" stroke="#422F8B" stroke-width="1.6" fill="#F8F9FE" stroke-linecap="round" stroke-linejoin="round"></path>
                <path d="M24.1912,0.35897561 L24.1912,1.81982927" id="Shape" stroke="#768FFF" stroke-width="1.6" stroke-linecap="round" stroke-linejoin="round"></path>
                <path d="M36.0952,3.56721951 L35.3688,4.8324878" id="Shape" stroke="#768FFF" stroke-width="1.6" stroke-linecap="round" stroke-linejoin="round"></path>
                <path d="M44.8096,12.3331463 L43.5528,13.0639756" id="Shape" stroke="#768FFF" stroke-width="1.6" stroke-linecap="round" stroke-linejoin="round"></path>
                <path d="M4.832,35.5562927 L3.5752,36.2863171" id="Shape" stroke="#768FFF" stroke-width="1.6" stroke-linecap="round" stroke-linejoin="round"></path>
                <path d="M48,24.3097317 L46.5488,24.3097317" id="Shape" stroke="#768FFF" stroke-width="1.6" stroke-linecap="round" stroke-linejoin="round"></path>
                <path d="M1.8376,24.3097317 L0.3856,24.3097317" id="Shape" stroke="#768FFF" stroke-width="1.6" stroke-linecap="round" stroke-linejoin="round"></path>
                <path d="M44.8128,36.2863171 L43.5552,35.5562927" id="Shape" stroke="#768FFF" stroke-width="1.6" stroke-linecap="round" stroke-linejoin="round"></path>
                <path d="M4.8344,13.0639756 L3.5768,12.3339512" id="Shape" stroke="#768FFF" stroke-width="1.6" stroke-linecap="round" stroke-linejoin="round"></path>
                <path d="M13.0176,4.83329268 L12.2912,3.56802439" id="Shape" stroke="#768FFF" stroke-width="1.6" stroke-linecap="round" stroke-linejoin="round"></path>
                <path d="M26.5344,14.4878049 C22.2848,14.4878049 18.8392,19.1721951 18.8392,24.9512195 C18.8392,30.7302439 22.2848,35.4146341 26.5344,35.4146341" id="Shape" stroke="#422F8B" stroke-width="1.6" stroke-linecap="round" stroke-linejoin="round"></path>
            </g>
        </g>
    </g>
</svg>