<?xml version="1.0" encoding="UTF-8"?>
<svg width="60px" height="41px" viewBox="0 0 60 41" version="1.1" xmlns="http://www.w3.org/2000/svg" xmlns:xlink="http://www.w3.org/1999/xlink">
    <!-- Generator: sketchtool 46.2 (44496) - http://www.bohemiancoding.com/sketch -->
    <title>39A672D0-BA79-4A24-B086-909FEC54D2BB</title>
    <desc>Created with sketchtool.</desc>
    <defs></defs>
    <g id="Page-1" stroke="none" stroke-width="1" fill="none" fill-rule="evenodd">
        <g id="Team-Desktop" transform="translate(-610.000000, -1269.000000)">
            <g id="2-fund" transform="translate(611.000000, 1270.000000)">
                <path d="M21.75,4.7755102 L21.75,2.3877551 C21.75,1.06971429 22.8318611,0 24.1666667,0 L33.8333333,0 C35.1681389,0 36.25,1.06971429 36.25,2.3877551 L36.25,4.7755102" id="Shape" stroke="#422F8B" stroke-width="1.6"></path>
                <path d="M2.41666667,4.7755102 L55.5833333,4.7755102 C56.9181389,4.7755102 58,5.84522449 58,7.16326531 L58,36.6122449 C58,37.9302857 56.9181389,39 55.5833333,39 L2.41666667,39 C1.08186111,39 0,37.9302857 0,36.6122449 L0,7.16326531 C0,5.84522449 1.08186111,4.7755102 2.41666667,4.7755102 Z" id="Shape" stroke="#422F8B" stroke-width="1.6" fill="#768FFF"></path>
                <path d="M5.3215,38.8408163 C5.3215,38.8408163 4.92677778,36.3448163 3.66608333,35.0625918 C2.27488889,33.6458571 0.00483333333,33.4285714 0.00483333333,33.4285714" id="Shape" stroke="#422F8B" stroke-width="1.6"></path>
                <path d="M52.6833333,38.8408163 C52.6833333,38.8408163 53.0780556,36.3448163 54.3379444,35.0625918 C55.7299444,33.6458571 58,33.4285714 58,33.4285714" id="Shape" stroke="#422F8B" stroke-width="1.6"></path>
                <path d="M5.3215,5.58177551 C5.3215,5.58177551 4.92677778,8.07777551 3.66608333,9.36 C2.27408333,10.7759388 0.00483333333,10.9940204 0.00483333333,10.9940204" id="Shape" stroke="#422F8B" stroke-width="1.6"></path>
                <path d="M52.6833333,5.58177551 C52.6833333,5.58177551 53.0780556,8.07777551 54.3379444,9.36 C55.7299444,10.7759388 58,10.9940204 58,10.9940204" id="Shape" stroke="#422F8B" stroke-width="1.6"></path>
                <path d="M29.6146389,21.5622245 L28.3660278,21.5622245 C27.5032778,21.5622245 26.8048611,20.8713673 26.8048611,20.0197347 C26.8048611,19.168898 27.5040833,18.4772449 28.3660278,18.4772449 L29.6146389,18.4772449 C30.5184722,18.4382449 31.2845556,19.1267143 31.3320833,20.0197347 L32.89325,20.0197347 C32.8561944,18.3315918 31.4795,16.9721633 29.7709167,16.935551 L29.7709167,15.3930612 L28.20975,15.3930612 L28.20975,16.935551 C26.4858611,16.9785306 25.1220556,18.3936735 25.1655556,20.0977347 C25.20825,21.8017959 26.6413333,23.1476939 28.3660278,23.1047143 L29.6146389,23.1047143 C30.4765833,23.1047143 31.1758056,23.7955714 31.1758056,24.6472041 C31.1758056,25.4980408 30.4773889,26.1896939 29.6146389,26.1896939 L28.3660278,26.1896939 C27.4613889,26.2286939 26.6945,25.5402245 26.6485833,24.6472041 L25.0874167,24.6472041 C25.1244722,26.3353469 26.5003611,27.6947755 28.2089444,27.7313878 L28.2089444,29.2738776 L29.7701111,29.2738776 L29.7701111,27.7313878 C30.8858056,27.7035306 31.9016111,27.0906735 32.4356944,26.1228367 C32.9689722,25.1542041 32.9391667,23.9794286 32.35675,23.0378571 C31.7751389,22.0978776 30.7295278,21.5351633 29.6146389,21.5622245 L29.6146389,21.5622245 Z" id="Shape" fill="#422F8B" fill-rule="nonzero"></path>
            </g>
        </g>
    </g>
</svg>