<?xml version="1.0" encoding="UTF-8"?>
<svg width="56px" height="74px" viewBox="0 0 56 74" version="1.1" xmlns="http://www.w3.org/2000/svg" xmlns:xlink="http://www.w3.org/1999/xlink">
    <!-- Generator: sketchtool 46.2 (44496) - http://www.bohemiancoding.com/sketch -->
    <title>F033FED9-A155-4AE3-8B2B-6312676B92D0</title>
    <desc>Created with sketchtool.</desc>
    <defs></defs>
    <g id="Page-1" stroke="none" stroke-width="1" fill="none" fill-rule="evenodd" stroke-linecap="round" stroke-linejoin="round">
        <g id="Team-Desktop" transform="translate(-324.000000, -1255.000000)" stroke="#422F8B" stroke-width="1.6">
            <g id="1-start-(1)" transform="translate(325.000000, 1256.000000)">
                <path d="M27.8949706,0.1968 C27.8949706,0.1968 37.1853529,9.648 37.1853529,22.048 C37.1853529,34.4496 34.7251765,47.9264 27.8965588,47.9264 C21.0663529,47.9264 18.6037941,34.4496 18.6037941,22.048 C18.6037941,9.6488 27.8949706,0.1968 27.8949706,0.1968 Z" id="Shape" fill="#768FFF"></path>
                <path d="M27.8949706,23.6296 C30.1359706,23.6296 31.9521176,25.4592 31.9521176,27.7168 C31.9521176,29.9736 30.1359706,31.8032 27.8949706,31.8032 C25.6531765,31.8032 23.8370294,29.9736 23.8370294,27.7168 C23.8370294,25.4592 25.6531765,23.6296 27.8949706,23.6296 Z" id="Shape" fill="#F8F9FE"></path>
                <path d="M30.4139118,47.5888 C33.3870882,48.812 31.9529118,51.528 28.0410882,51.528 C24.1308529,51.528 22.6998529,48.812 25.6746176,47.5888" id="Shape"></path>
                <path d="M35.0078824,35.3424 C35.0078824,35.3424 39.906,38.8616 39.3008824,45.5008 C38.3733529,55.6952 36.7525588,52.9584 36.396,51.2224 C35.2604118,45.6752 31.7861471,45.9672 31.7861471,45.9672 C31.7861471,45.9672 32.1276176,41.5784 32.9058529,38.6664 C33.8572059,35.1168 35.0078824,35.3424 35.0078824,35.3424 Z" id="Shape" fill="#F8F9FE"></path>
                <path d="M20.4548824,35.3424 C20.4548824,35.3424 15.5559706,38.8616 16.1610882,45.5008 C17.0886176,55.6952 18.7094118,52.9584 19.0651765,51.2224 C20.2023529,45.6752 23.6758235,45.9672 23.6758235,45.9672 C23.6758235,45.9672 23.3343529,41.5784 22.5561176,38.6664 C21.6063529,35.1168 20.4548824,35.3424 20.4548824,35.3424 Z" id="Shape" fill="#F8F9FE"></path>
                <path d="M36.1164706,14.8328 C36.1164706,16.5952 32.4325588,18.0248 27.8902059,18.0248 C23.3462647,18.0248 19.6631471,16.5952 19.6631471,14.8328" id="Shape"></path>
                <path d="M33.2925882,37.5736 C33.2925882,37.5736 30.8729118,39.0456 27.8886176,39.0456 C24.9043235,39.0456 22.4846471,37.5736 22.4846471,37.5736" id="Shape"></path>
                <path d="M30.7577647,57.3032 L32.3317059,64.6752" id="Shape"></path>
                <path d="M30.1947353,66.8832 C30.1947353,66.8832 34.0692353,63.5784 38.2518529,65.552 C42.4598824,67.5384 42.309,71.3856 42.309,71.3856" id="Shape"></path>
                <path d="M21.5380588,70.58 C21.5380588,70.58 24.0697059,66.7792 28.0950882,66.98 C33.5332059,67.252 35.1087353,70.1968 35.1087353,70.1968" id="Shape"></path>
                <path d="M42.5845588,68.3624 C42.5845588,68.3624 44.2212353,66.044 48.3355588,66.1768 C51.6716471,66.2848 53.6728235,68.2376 53.6728235,68.2376" id="Shape"></path>
                <path d="M34.0152353,57.4568 C34.0152353,57.4568 36.5278235,56.4472 38.5599706,58.3856 C39.9028235,59.6672 39.663,61.428 39.663,61.428" id="Shape"></path>
                <path d="M32.4397059,62.9072 C32.4397059,62.9072 36.3840882,60.88 39.9091765,61.5968 C44.1870882,62.4664 45.2043529,66.096 45.2043529,66.096" id="Shape"></path>
                <path d="M32.1014118,54.2376 L34.9459412,61.5968" id="Shape"></path>
                <path d="M25.002,59.9192 L23.5876765,66.2072" id="Shape"></path>
                <path d="M27.2557059,64.784 L27.8703529,56.74" id="Shape"></path>
                <path d="M19.6710882,58.8688 L23.8076471,50.0136" id="Shape"></path>
                <path d="M32.2888235,49.7008 L35.8051765,56.9936" id="Shape"></path>
                <path d="M24.6986471,67.4032 C24.6986471,67.4032 21.2998235,64.4352 16.6002353,66.2592 C13.4706176,67.4744 12.4128529,69.78 12.1285588,71.7464" id="Shape"></path>
                <path d="M12.2818235,68.6576 C12.2818235,68.6576 9.93917647,65.6408 6.12105882,66.1624 C1.12367647,66.844 0.546352941,70.2936 0.546352941,70.2936" id="Shape"></path>
                <path d="M21.9120882,59.0672 C21.9120882,59.0672 18.8547353,58.1376 16.5660882,59.6608 C15.0231176,60.6888 14.4632647,62.6208 14.4632647,62.6208" id="Shape"></path>
                <path d="M12.609,64.3232 C12.609,64.3232 10.9492941,62.9392 7.76647059,62.5952 C6.07420588,62.4136 4.0635,63.056 4.0635,63.056" id="Shape"></path>
                <path d="M51.6748235,62.6088 C51.6748235,62.6088 49.9595294,61.6408 47.0467059,61.8592 C45.4989706,61.976 43.7987647,62.8856 43.7987647,62.8856" id="Shape"></path>
                <path d="M23.8775294,63.5736 C23.8775294,63.5736 20.0602059,62.0968 16.5359118,62.8144 C12.2572059,63.6832 11.2399412,67.3128 11.2399412,67.3128" id="Shape"></path>
                <path d="M24.0363529,54.5656 L21.4999412,61.88" id="Shape"></path>
            </g>
        </g>
    </g>
</svg>