<?xml version="1.0" encoding="UTF-8"?>
<svg width="58px" height="44px" viewBox="0 0 58 44" version="1.1" xmlns="http://www.w3.org/2000/svg" xmlns:xlink="http://www.w3.org/1999/xlink">
    <!-- Generator: sketchtool 46.2 (44496) - http://www.bohemiancoding.com/sketch -->
    <title>9E895C1E-3C05-4D34-A0F0-943C2D8D5EA3</title>
    <desc>Created with sketchtool.</desc>
    <defs></defs>
    <g id="Page-1" stroke="none" stroke-width="1" fill="none" fill-rule="evenodd">
        <g id="Team-Desktop" transform="translate(-755.000000, -1498.000000)">
            <g id="5-Partners" transform="translate(755.000000, 1498.000000)">
                <path d="M20.1808219,24.0776 C20.6503836,24.0776 21.1207397,24.2584 21.4790685,24.6192 C22.1965205,25.3408 22.1965205,26.5128 21.4790685,27.2352 L16.3925479,32.1552 C16.0342192,32.5168 15.5646575,32.6976 15.0943014,32.6976 C14.6239452,32.6976 14.1543836,32.5168 13.7960548,32.1552 C13.0786027,31.4336 13.0786027,30.2632 13.7960548,29.5408 L18.8825753,24.6192 C19.2409041,24.2576 19.7104658,24.0776 20.1808219,24.0776 L20.1808219,24.0776 Z M20.1808219,22.4776 C19.2655342,22.4776 18.405863,22.836 17.7591233,23.488 L12.6948493,28.3872 C12.0250685,29.0608 11.6683288,29.9272 11.6683288,30.848 C11.6683288,31.7688 12.0250685,32.6352 12.6718082,33.2872 C13.3169589,33.9376 14.1782192,34.2976 15.0935068,34.2976 C16.0087945,34.2976 16.8700548,33.9384 17.5167945,33.2856 L22.5794795,28.3888 C23.2492603,27.7152 23.606,26.8488 23.606,25.9272 C23.606,25.0056 23.2492603,24.1392 22.6025205,23.4872 C21.9557808,22.836 21.0953151,22.4776 20.1808219,22.4776 L20.1808219,22.4776 Z" id="Shape" fill="#422F8B" fill-rule="nonzero"></path>
                <path d="M30.2791781,11.06 C32.499863,11.06 35.1694521,11.3256 35.6580822,11.6872 C36.9054795,12.612 42.8993425,18.5232 43.7931781,19.4232 C46.1870685,21.8328 44.2174521,24.6552 44.2174521,24.6552 L37.4163562,19.4488 C37.4163562,19.4488 36.6027671,19.88 35.2592329,19.88 C33.5263836,19.88 30.912411,19.1624 28.0290959,15.8752 L23.9261918,20.0064 C23.567863,20.3672 23.0983014,20.548 22.6279452,20.548 C22.1583836,20.548 21.6880274,20.3672 21.3296986,20.0064 C20.6122466,19.2848 20.6122466,18.1136 21.3296986,17.3912 L27.2107397,11.4704 C27.4991507,11.18 28.787863,11.06 30.2791781,11.06 L30.2791781,11.06 Z M30.2799726,9.46 L30.2799726,9.46 C27.2155068,9.46 26.5274521,9.8944 26.0864932,10.3392 L20.2062466,16.26 C19.5595068,16.9104 19.2027671,17.7768 19.2027671,18.6984 C19.2027671,19.62 19.5595068,20.4864 20.2062466,21.1376 C20.8529863,21.7888 21.7134521,22.1472 22.6279452,22.1472 C23.5432329,22.1472 24.4029041,21.7888 25.0496438,21.1376 L28.0100274,18.1576 C30.8599726,20.8688 33.4787123,21.48 35.2600274,21.48 C36.0211781,21.48 36.6552055,21.3712 37.1358904,21.244 L43.2552877,25.9288 C43.5341644,26.1424 43.8718356,26.2552 44.2174521,26.2552 C44.2992877,26.2552 44.3803288,26.2488 44.4613699,26.2368 C44.8880274,26.1696 45.2701918,25.9312 45.5180822,25.5752 C46.4643562,24.2192 47.5568219,20.9512 44.9166301,18.292 C44.8514795,18.2264 38.106,11.5152 36.599589,10.3992 C35.3958904,9.5048 31.1237534,9.46 30.2799726,9.46 L30.2799726,9.46 Z" id="Shape" fill="#422F8B" fill-rule="nonzero"></path>
                <path d="M27.5889315,10.4528 C27.5889315,10.4528 26.7610411,9.84 22.1599726,9.84 C20.4334795,9.84 14.0113699,17.1752 13.0960822,18.0968 C10.9381644,20.2704 11.0255616,23.1576 13.1421644,25.1952 C13.6856164,25.7184 14.6167945,26.7464 15.0100822,27.1184" id="Shape" stroke="#422F8B" stroke-width="1.6" stroke-linecap="round" stroke-linejoin="round"></path>
                <path d="M25.5621096,25.9776 C26.0324658,25.9776 26.5020274,26.1584 26.8603562,26.5192 C27.5778082,27.2408 27.5778082,28.4128 26.8603562,29.1352 L19.9353151,36.1088 C19.5761918,36.4696 19.1066301,36.6504 18.636274,36.6504 C18.1667123,36.6504 17.6963562,36.4696 17.3380274,36.1088 C16.6213699,35.3872 16.6213699,34.2152 17.3380274,33.4928 L24.263863,26.5192 C24.6221918,26.1576 25.0917534,25.9776 25.5621096,25.9776 L25.5621096,25.9776 Z M25.5621096,24.3776 C24.6468219,24.3776 23.7871507,24.736 23.140411,25.388 L16.2145753,32.3616 C14.8789863,33.7064 14.8789863,35.8952 16.2145753,37.24 C16.8613151,37.8912 17.7217808,38.2504 18.636274,38.2504 C19.5515616,38.2504 20.4112329,37.892 21.0587671,37.2408 L27.9838082,30.2664 C28.6305479,29.616 28.9872877,28.7496 28.9872877,27.8272 C28.9872877,26.9048 28.6305479,26.0392 27.9838082,25.3872 C27.3370685,24.736 26.4773973,24.3776 25.5621096,24.3776 L25.5621096,24.3776 Z" id="Shape" fill="#422F8B" fill-rule="nonzero"></path>
                <path d="M28.8665205,30.0672 C29.3432329,30.0672 29.8294795,30.3088 30.237863,30.7184 C30.9545205,31.44 30.9545205,32.612 30.237863,33.3344 L24.3743014,39.02 C24.0151781,39.3808 23.5456164,39.5616 23.0760548,39.5616 C22.6056986,39.5616 22.1353425,39.3808 21.7770137,39.02 C21.0595616,38.2984 21.0595616,37.128 21.7770137,36.4056 L27.8392055,30.5184 C28.148274,30.2072 28.5042192,30.0672 28.8665205,30.0672 L28.8665205,30.0672 Z M28.8665205,28.4672 L28.8665205,28.4672 C28.0688219,28.4672 27.3044932,28.7936 26.7149589,29.3872 L20.6734247,35.2544 C20.0060274,35.9256 19.6492877,36.792 19.6492877,37.7128 C19.6492877,38.6336 20.0060274,39.5 20.6527671,40.152 C21.2995068,40.8024 22.1599726,41.1616 23.0752603,41.1616 C23.9897534,41.1616 24.8502192,40.8032 25.4969589,40.152 L31.339863,34.4864 C32.6969041,33.1208 32.6969041,30.932 31.3605205,29.5872 C30.642274,28.8648 29.7571781,28.4672 28.8665205,28.4672 L28.8665205,28.4672 Z" id="Shape" fill="#422F8B" fill-rule="nonzero"></path>
                <path d="M31.9556164,34.712 C32.4251781,34.712 32.8955342,34.8928 33.2546575,35.2536 C33.9713151,35.9752 33.9713151,37.1456 33.2546575,37.868 L29.2812603,41.6512 C28.9229315,42.0128 28.4525753,42.1936 27.9830137,42.1936 C27.5134521,42.1936 27.0430959,42.0128 26.6847671,41.6512 C25.9673151,40.9296 25.9673151,39.7592 26.6847671,39.0368 L30.6573699,35.2536 C31.0149041,34.892 31.4852603,34.712 31.9556164,34.712 L31.9556164,34.712 Z M31.9556164,33.112 C31.048274,33.112 30.1957534,33.464 29.5513973,34.104 L25.5930959,37.8736 C25.5819726,37.884 25.5716438,37.8936 25.5613151,37.904 C24.9145753,38.5552 24.5578356,39.4216 24.5578356,40.3432 C24.5578356,41.2648 24.9145753,42.1304 25.5613151,42.7824 C26.2064658,43.4328 27.067726,43.7928 27.9830137,43.7928 C28.8903562,43.7928 29.7428767,43.4408 30.3880274,42.8 L34.3463288,39.0304 C34.3574521,39.02 34.3677808,39.0104 34.3781096,38.9992 C35.7136986,37.6544 35.7136986,35.4672 34.3781096,34.1224 C33.7297808,33.4704 32.8701096,33.112 31.9556164,33.112 L31.9556164,33.112 Z" id="Shape" fill="#422F8B" fill-rule="nonzero"></path>
                <path d="M41.740137,29.8688 L43.6898904,31.3904 C44.5813425,32.1856 45.9439452,32.1048 46.7360822,31.2072 C47.5274247,30.312 47.4471781,28.9384 46.555726,28.1416 L41.9729315,24.0448" id="Shape" stroke="#422F8B" stroke-width="1.6" stroke-linecap="round" stroke-linejoin="round"></path>
                <path d="M38.339589,33.044 L41.1482192,35.5144 C42.1397808,36.3848 43.6469863,36.2832 44.5130137,35.2848 C45.3790411,34.2864 45.2773425,32.7688 44.2857808,31.8976" id="Shape" stroke="#422F8B" stroke-width="1.6" stroke-linecap="round" stroke-linejoin="round"></path>
                <path d="M35.7573973,36.728 L37.9749041,38.6968 C38.8441096,39.572 40.2512055,39.572 41.120411,38.6968 C41.9896164,37.8216 41.9896164,36.4048 41.120411,35.5296" id="Shape" stroke="#422F8B" stroke-width="1.6" stroke-linecap="round" stroke-linejoin="round"></path>
                <path d="M32.4950959,40.1872 L34.3574521,41.6368 C35.2218904,42.5728 36.674274,42.624 37.6030685,41.7536 C38.530274,40.8832 38.5827123,39.4208 37.7190685,38.488" id="Shape" stroke="#422F8B" stroke-width="1.6" stroke-linecap="round" stroke-linejoin="round"></path>
                <g id="Group" transform="translate(34.164384, 0.000000)">
                    <path d="M14.0804932,22.1384 C13.3487397,22.1384 12.662274,21.852 12.1450411,21.3304 L2.378,11.4976 C1.31016438,10.4232 1.31016438,8.6744 2.378,7.6 L8.3289589,1.608 C8.84619178,1.0864 9.53345205,0.8 10.264411,0.8 C10.9961644,0.8 11.6826301,1.0864 12.199863,1.608 L21.9669041,11.4416 C22.4833425,11.9624 22.7693699,12.6544 22.7693699,13.3904 C22.7693699,14.1264 22.484137,14.8184 21.9669041,15.3392 L16.0159452,21.3312 C15.4987123,21.8512 14.8114521,22.1384 14.0804932,22.1384 Z" id="Shape" fill="#768FFF"></path>
                    <path d="M10.264411,1.6 C10.7617808,1.6 11.2583562,1.7912 11.638137,2.1728 L21.4043836,12.0064 C22.1631507,12.7704 22.1631507,14.0088 21.4043836,14.7728 L15.4534247,20.7648 C15.0736438,21.1472 14.576274,21.3376 14.0796986,21.3376 C13.5823288,21.3376 13.0857534,21.1464 12.7059726,20.7648 L2.93972603,10.932 C2.1809589,10.168 2.1809589,8.9296 2.93972603,8.1656 L8.89068493,2.1736 C9.27046575,1.7912 9.76783562,1.6 10.264411,1.6 L10.264411,1.6 Z M10.264411,0 C9.32131507,0 8.43463014,0.3696 7.76723288,1.0416 L1.81627397,7.0336 C1.14887671,7.7048 0.781013699,8.5984 0.781013699,9.548 C0.781013699,10.4976 1.14887671,11.3912 1.81627397,12.0624 L11.5833151,21.896 C12.2499178,22.5672 13.1366027,22.9376 14.0804932,22.9376 C15.023589,22.9376 15.910274,22.5672 16.5776712,21.896 L22.5286301,15.9032 C23.9055342,14.5168 23.9055342,12.2608 22.5286301,10.8744 L12.761589,1.0416 C12.0949863,0.3704 11.2075068,0 10.264411,0 L10.264411,0 Z" id="Shape" fill="#422F8B" fill-rule="nonzero"></path>
                </g>
                <g id="Group" transform="translate(46.082192, 12.000000)">
                    <ellipse id="Oval" fill="#F8F9FE" cx="3.22416438" cy="3.1864" rx="1.68835616" ry="1.7"></ellipse>
                    <path d="M3.22416438,2.2864 C3.71756164,2.2864 4.118,2.6888 4.118,3.1864 C4.118,3.6832 3.71756164,4.0864 3.22416438,4.0864 C2.73076712,4.0864 2.33032877,3.6832 2.33032877,3.1864 C2.33032877,2.6888 2.73076712,2.2864 3.22416438,2.2864 L3.22416438,2.2864 Z M3.22416438,0.6864 C1.85520548,0.6864 0.741287671,1.808 0.741287671,3.1864 C0.741287671,4.5648 1.85520548,5.6864 3.22416438,5.6864 C4.59312329,5.6864 5.7070411,4.5648 5.7070411,3.1864 C5.7070411,1.808 4.59232877,0.6864 3.22416438,0.6864 L3.22416438,0.6864 Z" id="Shape" fill="#422F8B" fill-rule="nonzero"></path>
                </g>
                <g id="Group">
                    <path d="M9.48260274,22.1384 C8.75164384,22.1384 8.06438356,21.852 7.54715068,21.3312 L1.59619178,15.3392 C0.529150685,14.2648 0.529150685,12.516 1.59619178,11.4416 L11.3632329,1.608 C11.8796712,1.0864 12.566137,0.8 13.2978904,0.8 C14.0296438,0.8 14.7161096,1.0864 15.2333425,1.6072 L21.1843014,7.5992 C22.2513425,8.6736 22.2513425,10.4224 21.1843014,11.4968 L11.4180548,21.3312 C10.9008219,21.8512 10.2135616,22.1384 9.48260274,22.1384 Z" id="Shape" fill="#768FFF"></path>
                    <path d="M13.2978904,1.6 C13.7944658,1.6 14.2918356,1.7912 14.6716164,2.1728 L20.6233699,8.1648 C21.382137,8.9288 21.382137,10.1672 20.6233699,10.9312 L10.8563288,20.7656 C10.4765479,21.148 9.9799726,21.3384 9.48260274,21.3384 C8.98523288,21.3384 8.48865753,21.1472 8.10887671,20.7656 L2.15712329,14.7736 C1.39835616,14.0096 1.39835616,12.7712 2.15712329,12.0072 L11.9233699,2.1736 C12.3031507,1.7912 12.8005205,1.6 13.2978904,1.6 L13.2978904,1.6 Z M13.2978904,0 C12.354,0 11.4673151,0.3696 10.8007123,1.0416 L1.03446575,10.8752 C-0.341643836,12.2616 -0.341643836,14.5176 1.03446575,15.904 L6.98621918,21.8968 C7.65282192,22.568 8.53950685,22.9384 9.48339726,22.9384 C10.4272877,22.9384 11.3139726,22.568 11.9805753,21.896 L21.7460274,12.0632 C22.4134247,11.392 22.7804932,10.4984 22.7804932,9.5488 C22.7804932,8.5992 22.4134247,7.7056 21.7460274,7.0344 L15.794274,1.0424 C15.1284658,0.3696 14.2409863,0 13.2978904,0 L13.2978904,0 Z" id="Shape" fill="#422F8B" fill-rule="nonzero"></path>
                </g>
                <g id="Group" transform="translate(4.767123, 12.000000)">
                    <ellipse id="Oval" fill="#F8F9FE" cx="3.22336986" cy="3.1864" rx="1.68835616" ry="1.7"></ellipse>
                    <path d="M3.22336986,2.2864 C3.71756164,2.2864 4.11720548,2.6888 4.11720548,3.1864 C4.11720548,3.6832 3.71756164,4.0864 3.22336986,4.0864 C2.7299726,4.0864 2.32953425,3.6832 2.32953425,3.1864 C2.32953425,2.6888 2.7299726,2.2864 3.22336986,2.2864 L3.22336986,2.2864 Z M3.22336986,0.6864 C1.85441096,0.6864 0.740493151,1.808 0.740493151,3.1864 C0.740493151,4.5648 1.85441096,5.6864 3.22336986,5.6864 C4.59232877,5.6864 5.70624658,4.5648 5.70624658,3.1864 C5.70624658,1.808 4.59232877,0.6864 3.22336986,0.6864 L3.22336986,0.6864 Z" id="Shape" fill="#422F8B" fill-rule="nonzero"></path>
                </g>
            </g>
        </g>
    </g>
</svg>