<?xml version="1.0" encoding="UTF-8"?>
<svg width="36px" height="47px" viewBox="0 0 36 47" version="1.1" xmlns="http://www.w3.org/2000/svg" xmlns:xlink="http://www.w3.org/1999/xlink">
    <!-- Generator: sketchtool 46.2 (44496) - http://www.bohemiancoding.com/sketch -->
    <title>3CFAE260-970A-4E35-A85C-60E761923D97</title>
    <desc>Created with sketchtool.</desc>
    <defs></defs>
    <g id="Page-1" stroke="none" stroke-width="1" fill="none" fill-rule="evenodd" stroke-linecap="round" stroke-linejoin="round">
        <g id="Team-Desktop" transform="translate(-478.000000, -1497.000000)" stroke="#422F8B" stroke-width="1.6">
            <g id="5-Exchanges" transform="translate(479.000000, 1498.000000)">
                <path d="M23.8513953,16.8139286 L8.85897674,16.8139286 L8.85897674,23.799375 L0.436465116,12.1508036 L8.85897674,0.502232143 L8.85897674,7.25544643 C14.3946512,7.25544643 23.8513953,7.25544643 23.8513953,7.25544643 C29.0446977,7.25544643 33.2567442,11.5344643 33.2567442,16.8139286 L33.2567442,26.3724107 C33.2567442,21.0921429 29.0446977,16.8139286 23.8513953,16.8139286 Z" id="Shape" fill="#768FFF"></path>
                <path d="M9.84181395,28.1523214 L24.8342326,28.1523214 L24.8342326,21.1660714 L33.2567442,32.8154464 L24.8342326,44.4632143 L24.8342326,37.71 C19.2977674,37.71 9.84181395,37.71 9.84181395,37.71 C4.64851163,37.71 0.436465116,33.4317857 0.436465116,28.1523214 L0.436465116,18.5938393 C0.436465116,23.8741071 4.64772093,28.1523214 9.84181395,28.1523214 Z" id="Shape" fill="#F8F9FE"></path>
            </g>
        </g>
    </g>
</svg>