<?xml version="1.0" encoding="UTF-8"?>
<svg width="54px" height="54px" viewBox="0 0 54 54" version="1.1" xmlns="http://www.w3.org/2000/svg" xmlns:xlink="http://www.w3.org/1999/xlink">
    <!-- Generator: Sketch 45.2 (43514) - http://www.bohemiancoding.com/sketch -->
    <title>feature4</title>
    <desc>Created with Sketch.</desc>
    <defs></defs>
    <g id="Page-1" stroke="none" stroke-width="1" fill="none" fill-rule="evenodd">
        <g id="Mobile-320" transform="translate(-32.000000, -2666.000000)">
            <g id="LH-features" transform="translate(16.000000, 1917.000000)">
                <g id="Group-14" transform="translate(16.000000, 749.000000)">
                    <g id="feature4">
                        <circle id="Oval" fill="#768FFF" fill-rule="nonzero" cx="13.5" cy="40.5" r="12.4621875"></circle>
                        <circle id="Oval" fill="#768FFF" fill-rule="nonzero" cx="40.5" cy="13.5" r="12.4621875"></circle>
                        <path d="M14.175,39.65625 L12.825,39.65625 C11.8930195,39.65625 11.1375,38.9007305 11.1375,37.96875 C11.1375,37.0367695 11.8930195,36.28125 12.825,36.28125 L14.175,36.28125 C15.1522845,36.2382432 15.981198,36.991801 16.03125,37.96875 L17.71875,37.96875 C17.6785341,36.1217034 16.1907966,34.6339659 14.34375,34.59375 L14.34375,32.90625 L12.65625,32.90625 L12.65625,34.59375 C10.792289,34.640349 9.31902597,36.189164 9.365625,38.053125 C9.41222403,39.917086 10.961039,41.390349 12.825,41.34375 L14.175,41.34375 C15.1069805,41.34375 15.8625,42.0992695 15.8625,43.03125 C15.8625,43.9632305 15.1069805,44.71875 14.175,44.71875 L12.825,44.71875 C11.8477155,44.7617568 11.018802,44.008199 10.96875,43.03125 L9.28125,43.03125 C9.32146593,44.8782966 10.8092034,46.3660341 12.65625,46.40625 L12.65625,48.09375 L14.34375,48.09375 L14.34375,46.40625 C15.5495214,46.3761058 16.6476184,45.70498 17.2243985,44.6456792 C17.8011785,43.5863784 17.7690149,42.2998356 17.1400235,41.270679 C16.511032,40.2415225 15.3807714,39.6261056 14.175,39.65625 L14.175,39.65625 Z" id="Shape" fill="#41288D" fill-rule="nonzero"></path>
                        <path d="M13.5,27 C6.04415588,27 0,33.0441559 0,40.5 C0,47.9558441 6.04415588,54 13.5,54 C20.9558441,54 27,47.9558441 27,40.5 C27,33.0441559 20.9558441,27 13.5,27 Z M13.5,52.3125 C6.97613639,52.3125 1.6875,47.0238636 1.6875,40.5 C1.6875,33.9761364 6.97613639,28.6875 13.5,28.6875 C20.0238636,28.6875 25.3125,33.9761364 25.3125,40.5 C25.3125,47.0238636 20.0238636,52.3125 13.5,52.3125 L13.5,52.3125 Z M40.5,0 C33.0441559,0 27,6.04415588 27,13.5 C27,20.9558441 33.0441559,27 40.5,27 C47.9558441,27 54,20.9558441 54,13.5 C54,6.04415588 47.9558441,0 40.5,0 Z M40.5,25.3125 C33.9761364,25.3125 28.6875,20.0238636 28.6875,13.5 C28.6875,6.97613639 33.9761364,1.6875 40.5,1.6875 C47.0238636,1.6875 52.3125,6.97613639 52.3125,13.5 C52.3125,20.0238636 47.0238636,25.3125 40.5,25.3125 Z" id="Shape" fill="#41288D" fill-rule="nonzero"></path>
                        <path d="M42.2296875,14.225625 L41.8415625,15.778125 L38.424375,15.778125 C38.4813583,16.694106 38.8038639,17.5736667 39.3525,18.309375 C39.799562,18.9077095 40.5040422,19.2583841 41.2509375,19.254375 C41.8116286,19.269736 42.3640847,19.116929 42.8371875,18.815625 C43.2352421,18.5912617 43.4948608,18.1828371 43.5290625,17.7271875 L45.5625,17.7271875 C45.4529449,18.6799621 44.9706044,19.5506018 44.2209375,20.14875 C43.401309,20.7894244 42.3836341,21.1236754 41.34375,21.09375 C40.5137949,21.1104652 39.6928736,20.9190136 38.9559375,20.536875 C38.2555164,20.1542267 37.6722361,19.5884448 37.2684375,18.9 C37.0048376,18.4639768 36.797859,17.9961484 36.6525,17.5078125 C36.4788317,16.9579557 36.3573574,16.3929589 36.2896875,15.8203125 L33.9103125,15.8203125 L34.3321875,14.2678125 L36.1884375,14.2678125 L36.1884375,13.921875 L36.1884375,13.33125 L36.1884375,13.0021875 L36.1884375,12.4790625 L34.1296875,12.4790625 L34.52625,10.935 L36.34875,10.935 C36.5008351,9.58642129 37.0940566,8.32582552 38.03625,7.3490625 C38.9232432,6.44450582 40.1446592,5.94677879 41.41125,5.97375 C42.4251768,5.92047826 43.4264581,6.21847863 44.24625,6.8175 C44.9774004,7.41737771 45.4340656,8.28808595 45.511875,9.230625 L43.453125,9.230625 C43.4334269,8.77451001 43.2026602,8.35351674 42.82875,8.0915625 C42.3719068,7.79910529 41.834779,7.65744522 41.293125,7.6865625 C40.5976447,7.68316828 39.9375898,7.99305322 39.4959375,8.5303125 C38.9450892,9.21321948 38.5893834,10.032509 38.4665625,10.90125 L43.1240625,10.90125 L42.7275,12.4453125 L38.3315625,12.4453125 C38.3315625,12.6759375 38.3175,12.8615625 38.289375,13.0021875 C38.26125,13.1428125 38.26125,13.269375 38.289375,13.381875 L38.289375,14.2425 L42.2296875,14.2425 L42.2296875,14.225625 Z M25.3125,13.5 L15.1875,3.375 L15.1875,8.4375 C5.180625,11.1459375 0,18.4696875 0,30.375 C2.8434375,23.625 9.1125,18.5625 15.1875,18.5625 L15.1875,23.625 L25.3125,13.5 Z M38.8125,35.4375 L38.8125,30.375 L28.6875,40.5 L38.8125,50.625 L38.8125,45.5625 C48.819375,42.8540625 54,35.5303125 54,23.625 C51.1565625,30.375 44.8875,35.4375 38.8125,35.4375 Z" id="Shape" fill="#41288D" fill-rule="nonzero"></path>
                        <path d="M2.4215625,23.355 C4.0584375,16.385625 8.420625,12.015 15.62625,10.0659375 L16.875,9.7284375 L16.875,7.4503125 L22.9246875,13.5 L16.875,19.5496875 L16.875,16.875 L15.1875,16.875 C10.614375,16.875 5.90625,19.355625 2.4215625,23.355 Z" id="Path" fill="#FFFFFF"></path>
                        <path d="M38.37375,43.9340625 L37.125,44.2715625 L37.125,46.5496875 L31.0753125,40.5 L37.125,34.4503125 L37.125,37.125 L38.8125,37.125 C43.385625,37.125 48.09375,34.644375 51.5784375,30.645 C49.9415625,37.6059375 45.5625,41.985 38.37375,43.9340625 L38.37375,43.9340625 Z" id="Path" fill="#FFFFFF"></path>
                    </g>
                </g>
            </g>
        </g>
    </g>
</svg>