<?xml version="1.0" encoding="UTF-8"?>
<svg width="54px" height="54px" viewBox="0 0 54 54" version="1.1" xmlns="http://www.w3.org/2000/svg" xmlns:xlink="http://www.w3.org/1999/xlink">
    <!-- Generator: Sketch 45.2 (43514) - http://www.bohemiancoding.com/sketch -->
    <title>feature5</title>
    <desc>Created with Sketch.</desc>
    <defs></defs>
    <g id="Page-1" stroke="none" stroke-width="1" fill="none" fill-rule="evenodd">
        <g id="Mobile-320" transform="translate(-32.000000, -2892.000000)" fill-rule="nonzero">
            <g id="LH-features" transform="translate(16.000000, 1917.000000)">
                <g id="Group-19" transform="translate(16.000000, 975.000000)">
                    <g id="feature5">
                        <path d="M44.685,24.5784375 L53.1478125,24.5784375 L53.1478125,53.0465625 L44.685,53.0465625 L44.685,24.5784375 Z M27.961875,38.019375 L36.0028125,38.019375 L36.0028125,53.0465625 L27.961875,53.0465625 L27.961875,38.019375 Z M11.1375,38.019375 L19.389375,38.019375 L19.389375,53.0465625 L11.1375,53.0465625 L11.1375,38.019375 Z" id="Shape" fill="#768FFF"></path>
                        <path d="M36.01125,31.2440625 L45.5625,31.2440625 L45.5625,53.0465625 L36.01125,53.0465625 L36.01125,31.2440625 Z M19.389375,31.2440625 L27.961875,31.2440625 L27.961875,53.0465625 L19.389375,53.0465625 L19.389375,31.2440625 Z" id="Shape" fill="#FFFFFF"></path>
                        <polygon id="Shape" fill="#41288D" points="1.6875 52.3125 1.6875 0 0 0 0 54 54 54 54 52.3125"></polygon>
                        <polygon id="Shape" fill="#41288D" points="52.3125 0 43.875 0 43.875 1.6875 51.1228125 1.6875 31.775625 21.02625 24.620625 13.8628125 23.4309375 12.673125 22.2328125 13.8628125 6.75 29.3540625 7.9396875 30.54375 23.4309375 15.0609375 31.775625 23.4140625 32.97375 22.224375 52.3125 2.8771875 52.3125 10.125 54 10.125 54 0"></polygon>
                        <path d="M43.875,23.625 L43.875,30.375 L35.4375,30.375 L35.4375,37.125 L28.6875,37.125 L28.6875,30.375 L18.5625,30.375 L18.5625,37.125 L10.125,37.125 L10.125,54 L54,54 L54,23.625 L43.875,23.625 Z M18.5625,52.3125 L11.8125,52.3125 L11.8125,38.8125 L18.5625,38.8125 L18.5625,52.3125 Z M27,52.3125 L20.25,52.3125 L20.25,32.0625 L27,32.0625 L27,52.3125 Z M35.4375,52.3125 L28.6875,52.3125 L28.6875,38.8125 L35.4375,38.8125 L35.4375,52.3125 Z M43.875,52.3125 L37.125,52.3125 L37.125,32.0625 L43.875,32.0625 L43.875,52.3125 Z M52.3125,52.3125 L45.5625,52.3125 L45.5625,25.3125 L52.3125,25.3125 L52.3125,52.3125 Z" id="Shape" fill="#41288D"></path>
                    </g>
                </g>
            </g>
        </g>
    </g>
</svg>