<?xml version="1.0" encoding="UTF-8"?>
<svg width="54px" height="54px" viewBox="0 0 54 54" version="1.1" xmlns="http://www.w3.org/2000/svg" xmlns:xlink="http://www.w3.org/1999/xlink">
    <!-- Generator: Sketch 45.2 (43514) - http://www.bohemiancoding.com/sketch -->
    <title>feature7</title>
    <desc>Created with Sketch.</desc>
    <defs></defs>
    <g id="Page-1" stroke="none" stroke-width="1" fill="none" fill-rule="evenodd">
        <g id="Mobile-320" transform="translate(-32.000000, -3344.000000)" fill-rule="nonzero">
            <g id="LH-features" transform="translate(16.000000, 1917.000000)">
                <g id="Group-16" transform="translate(16.000000, 1427.000000)">
                    <g id="feature7">
                        <polygon id="Shape" fill="#768FFF" points="12.6984375 0.7340625 53.15625 0.7340625 53.15625 22.629375 12.6984375 22.629375"></polygon>
                        <path d="M46.40625,0 L11.8125,0 L11.8125,23.625 L54,23.625 L54,0 L46.40625,0 Z M13.5,1.6875 L19.2121875,1.6875 C18.5628519,4.53040311 16.3429031,6.75035194 13.5,7.3996875 L13.5,1.6875 Z M13.5,21.9375 L13.5,16.2253125 C16.3429031,16.8746481 18.5628519,19.0945969 19.2121875,21.9375 L13.5,21.9375 Z M52.3125,21.9375 L46.6003125,21.9375 C47.2496481,19.0945969 49.4695969,16.8746481 52.3125,16.2253125 L52.3125,21.9375 L52.3125,21.9375 Z M52.3125,14.5040625 C48.5350015,15.2045502 45.5795502,18.1600015 44.8790625,21.9375 L20.9334375,21.9375 C20.2329498,18.1600015 17.2774985,15.2045502 13.5,14.5040625 L13.5,9.1209375 C17.2774985,8.4204498 20.2329498,5.46499849 20.9334375,1.6875 L44.8790625,1.6875 C45.5795502,5.46499849 48.5350015,8.4204498 52.3125,9.1209375 L52.3125,14.5040625 Z M46.6003125,1.6875 L52.3125,1.6875 L52.3125,7.3996875 C49.4695969,6.75035194 47.2496481,4.53040311 46.6003125,1.6875 Z" id="Shape" fill="#41288D"></path>
                        <path d="M32.0625,3.375 C28.333125,3.375 25.3125,7.155 25.3125,11.8125 C25.3125,16.47 28.333125,20.25 32.0625,20.25 C35.791875,20.25 38.8125,16.47 38.8125,11.8125 C38.8125,7.155 35.791875,3.375 32.0625,3.375 Z M32.0625,18.5625 C29.2696875,18.5625 27,15.5334375 27,11.8125 C27,8.0915625 29.2696875,5.0625 32.0625,5.0625 C34.8553125,5.0625 37.125,8.0915625 37.125,11.8125 C37.125,15.5334375 34.8553125,18.5625 32.0625,18.5625 Z" id="Shape" fill="#41288D"></path>
                        <path d="M11.8125,9.28125 C6.22061691,9.28125 1.6875,13.8143669 1.6875,19.40625 C1.6875,24.9981331 6.22061691,29.53125 11.8125,29.53125 C17.4043831,29.53125 21.9375,24.9981331 21.9375,19.40625 C21.9375,13.8143669 17.4043831,9.28125 11.8125,9.28125 Z" id="Shape" fill="#FFFFFF"></path>
                        <path d="M12.4875,18.5625 L11.1375,18.5625 C10.2055195,18.5625 9.45,17.8069805 9.45,16.875 C9.45,15.9430195 10.2055195,15.1875 11.1375,15.1875 L12.4875,15.1875 C13.4647845,15.1444932 14.293698,15.898051 14.34375,16.875 L16.03125,16.875 C15.9910341,15.0279534 14.5032966,13.5402159 12.65625,13.5 L12.65625,11.8125 L10.96875,11.8125 L10.96875,13.5 C9.76297863,13.5301443 8.66488173,14.2012701 8.08810176,15.2605709 C7.5113218,16.3198717 7.54348536,17.6064144 8.17247676,18.6355709 C8.80146816,19.6647274 9.93172863,20.2801443 11.1375,20.25 L12.4875,20.25 C13.4194805,20.25 14.175,21.0055195 14.175,21.9375 C14.175,22.8694805 13.4194805,23.625 12.4875,23.625 L11.1375,23.625 C10.1602155,23.6680068 9.33130196,22.914449 9.28125,21.9375 L7.59375,21.9375 C7.63396593,23.7845466 9.12170339,25.2722841 10.96875,25.3125 L10.96875,27 L12.65625,27 L12.65625,25.3125 C13.8620214,25.2823557 14.9601183,24.6112299 15.5368982,23.5519291 C16.1136782,22.4926283 16.0815146,21.2060856 15.4525232,20.1769291 C14.8235318,19.1477726 13.6932714,18.5323557 12.4875,18.5625 L12.4875,18.5625 Z" id="Shape" fill="#41288D"></path>
                        <path d="M11.8125,7.59375 C5.28863639,7.59375 -5.68434189e-14,12.8823864 -5.68434189e-14,19.40625 C-5.68434189e-14,25.9301136 5.28863639,31.21875 11.8125,31.21875 C18.3363636,31.21875 23.625,25.9301136 23.625,19.40625 C23.625,12.8823864 18.3363636,7.59375 11.8125,7.59375 L11.8125,7.59375 Z M11.8125,29.53125 C6.22061691,29.53125 1.6875,24.9981331 1.6875,19.40625 C1.6875,13.8143669 6.22061691,9.28125 11.8125,9.28125 C17.4043831,9.28125 21.9375,13.8143669 21.9375,19.40625 C21.9375,24.9981331 17.4043831,29.53125 11.8125,29.53125 Z" id="Shape" fill="#41288D"></path>
                        <polygon id="Shape" fill="#41288D" points="52.8103125 46.9040625 48.9375 50.7684375 48.9375 37.96875 27.84375 37.96875 27.84375 27.84375 26.15625 27.84375 26.15625 37.96875 5.0625 37.96875 5.0625 50.7684375 1.1896875 46.9040625 0 48.09375 4.7165625 52.8103125 5.90625 54 7.0959375 52.8103125 11.8125 48.09375 10.6228125 46.9040625 6.75 50.7684375 6.75 39.65625 26.15625 39.65625 26.15625 50.7684375 22.2834375 46.9040625 21.09375 48.09375 25.8103125 52.8103125 27 54 28.1896875 52.8103125 32.90625 48.09375 31.7165625 46.9040625 27.84375 50.7684375 27.84375 39.65625 47.25 39.65625 47.25 50.7684375 43.3771875 46.9040625 42.1875 48.09375 46.9040625 52.8103125 48.09375 54 49.2834375 52.8103125 54 48.09375"></polygon>
                    </g>
                </g>
            </g>
        </g>
    </g>
</svg>