<?xml version="1.0" encoding="UTF-8"?>
<svg width="63px" height="64px" viewBox="0 0 63 64" version="1.1" xmlns="http://www.w3.org/2000/svg" xmlns:xlink="http://www.w3.org/1999/xlink">
    <!-- Generator: Sketch 45.2 (43514) - http://www.bohemiancoding.com/sketch -->
    <title>feature2</title>
    <desc>Created with Sketch.</desc>
    <defs></defs>
    <g id="Page-1" stroke="none" stroke-width="1" fill="none" fill-rule="evenodd">
        <g id="Mobile-320" transform="translate(-32.000000, -2228.000000)" fill-rule="nonzero">
            <g id="LH-features" transform="translate(16.000000, 1917.000000)">
                <g id="Group-10" transform="translate(16.000000, 311.000000)">
                    <g id="feature2">
                        <polygon id="Shape" fill="#FFFFFF" points="53.6351351 58.0266667 53.6351351 21.1882667 44.415 11.9466667 16.1756757 11.9466667 16.1756757 58.0266667"></polygon>
                        <path d="M45.1216216,10.24 L14.472973,10.24 L14.472973,59.7333333 L55.3378378,59.7333333 L55.3378378,20.48 L45.1216216,10.24 Z M45.1216216,12.6549333 L52.9285135,20.48 L45.1216216,20.48 L45.1216216,12.6549333 Z M53.6351351,58.0266667 L16.1756757,58.0266667 L16.1756757,11.9466667 L43.4189189,11.9466667 L43.4189189,22.1866667 L53.6351351,22.1866667 L53.6351351,58.0266667 Z" id="Shape" fill="#41288D"></path>
                        <path d="M21.2837838,20.48 L34.9054054,20.48 L34.9054054,22.1866667 L21.2837838,22.1866667 L21.2837838,20.48 Z M21.2837838,50.3466667 L34.9054054,50.3466667 L34.9054054,52.0533333 L21.2837838,52.0533333 L21.2837838,50.3466667 Z M21.2837838,29.0133333 L48.527027,29.0133333 L48.527027,30.72 L21.2837838,30.72 L21.2837838,29.0133333 Z M21.2837838,34.1333333 L41.7162162,34.1333333 L41.7162162,35.84 L21.2837838,35.84 L21.2837838,34.1333333 Z" id="Shape" fill="#41288D"></path>
                        <polygon id="Shape" fill="#768FFF" points="1.7027027 25.6125821 16.1756757 1.70666667 30.6486486 25.6125821 16.1756757 34.1333333"></polygon>
                        <path d="M15.3243243,3.05051514 L28.5113531,25.2438697 L15.3243243,33.1614989 L2.13729551,25.2524386 L15.3243243,3.05051514 L15.3243243,3.05051514 Z M15.3243243,0 L0,25.8094146 L15.3243243,34.9866667 L30.6486486,25.8094146 L15.3243243,0.00856886276 L15.3243243,0 Z" id="Shape" fill="#41288D"></path>
                        <polygon id="Shape" fill="#768FFF" points="2.55405405 31.5733333 15.3200404 39.0826667 28.0945946 31.5733333 15.3200404 49.4933333 2.55405405 31.5733333"></polygon>
                        <path d="M25.1759773,34.2113029 L15.3201016,48.4450761 L5.47267135,34.2113029 L14.5346719,39.703824 L15.3201016,40.1803046 L16.1055313,39.703824 L25.1759773,34.2113029 L25.1759773,34.2113029 Z M30.6486486,29.0133333 L15.3201016,38.3263621 L0,29.0479865 L15.3201016,51.2 L30.6486486,29.0566497 L30.6486486,29.0133333 Z" id="Shape" fill="#41288D"></path>
                        <ellipse id="Oval" fill="#768FFF" cx="50.2297297" cy="51.2" rx="11.9189189" ry="11.9466667"></ellipse>
                        <ellipse id="Oval" fill="#768FFF" cx="59.5945946" cy="45.2266667" rx="2.55405405" ry="2.56"></ellipse>
                        <ellipse id="Oval" fill="#768FFF" cx="40.8648649" cy="57.1733333" rx="2.55405405" ry="2.56"></ellipse>
                        <path d="M54.0595212,51.3294618 C53.7108638,51.1438086 53.3394971,51.0058058 52.9551081,50.9190529 C53.3472474,50.7947787 53.7131766,50.5976221 54.0342293,50.3376403 C54.3033795,50.102264 54.5190872,49.8105753 54.6665269,49.4826217 C54.8110595,49.1786096 54.8859908,48.8454056 54.8857234,48.5079006 C54.8864422,48.0413752 54.7418666,47.5865361 54.4726223,47.2082724 C54.1754367,46.7932509 53.7652166,46.4752796 53.2923335,46.2934025 C53.0679339,46.2077093 52.8366303,46.1419114 52.6010215,46.0967483 L52.6010215,44.3183097 L50.8474495,44.3183097 L50.8474495,46.0283468 L49.751467,46.0283468 L49.751467,44.3183097 L48.0147563,44.3183097 L48.0147563,46.0283468 L45.3591064,46.0283468 L45.3591064,47.464778 L45.7890688,47.464778 C45.9750129,47.4517563 46.1616001,47.4779578 46.33706,47.5417296 C46.4248613,47.5857875 46.4959534,47.6578877 46.5393952,47.7469341 C46.5919622,47.9387619 46.6119192,48.1382706 46.5984097,48.3368969 L46.5984097,54.1424728 C46.6112725,54.341088 46.5913264,54.540487 46.5393952,54.7324356 C46.4966043,54.8198951 46.4250386,54.8894515 46.33706,54.9290899 C46.1604941,54.9876956 45.9743774,55.0109271 45.7890688,54.9974914 L45.3591064,54.9974914 L45.3591064,56.4595731 L48.0063256,56.4595731 L48.0063256,58.1696102 L49.751467,58.1696102 L49.751467,56.4595731 L50.8474495,56.4595731 L50.8474495,58.1696102 L52.5841602,58.1696102 L52.5841602,56.2885694 C52.8459671,56.2380435 53.1027394,56.1636397 53.3513479,56.0662646 C53.9076077,55.8590215 54.391403,55.4902862 54.7424026,55.0060416 C55.061295,54.5646165 55.2326328,54.0313301 55.2313794,53.4841085 C55.2381984,53.0435284 55.1275096,52.6092656 54.9110153,52.2272313 C54.7092435,51.8718225 54.4183912,51.5768458 54.0679519,51.3722127 L54.0595212,51.3294618 Z M49.1191694,47.6870828 L50.2404438,47.6870828 C50.6989194,47.6652985 51.1582134,47.7055535 51.6062066,47.8067854 C51.8410476,47.8761237 52.0459859,48.0237234 52.1879204,48.2257445 C52.4688954,48.6497228 52.4688954,49.2039966 52.1879204,49.6279749 C52.0294567,49.8427779 51.8081768,50.0013665 51.5556228,50.0811347 C51.1298148,50.1964388 50.6892024,50.2454493 50.2488744,50.2264879 L49.1107388,50.2264879 L49.1107388,47.6614322 L49.1191694,47.6870828 Z M52.2975186,54.1168223 C52.1133934,54.3629513 51.8563313,54.5427495 51.5640534,54.6298334 C51.2115187,54.7207792 50.8486481,54.7639061 50.4849322,54.7580862 L49.7261751,54.7580862 C49.5731475,54.7684864 49.4194639,54.7540547 49.2709208,54.7153353 C49.212997,54.6860983 49.1700781,54.6332435 49.1528919,54.5699821 C49.134184,54.3823565 49.134184,54.1932955 49.1528919,54.0056699 L49.1528919,51.7569711 L50.4765016,51.7569711 C50.9152098,51.7365017 51.3541722,51.7914273 51.7748193,51.9194246 C52.030879,52.0103933 52.2521354,52.1809327 52.4071169,52.4067852 C52.5560688,52.6404961 52.6297207,52.9153788 52.6178827,53.1934022 C52.6280277,53.5292149 52.5238276,53.8583257 52.3228105,54.1253725 L52.2975186,54.1168223 Z M61.975887,46.592659 C62.8643855,45.7954648 63.2134666,44.5463357 62.8695343,43.3948897 C62.4761678,42.0646062 61.2713379,41.1516414 59.901951,41.1461909 C59.6163974,41.1487293 59.3326083,41.1919013 59.0588875,41.2744437 C58.8613915,41.3339149 58.6695334,41.4111741 58.4856044,41.5052987 C54.1399641,37.6961961 47.802076,37.3564074 43.0846744,40.6796195 C38.3672728,44.0028317 36.4687387,50.1448354 38.471278,55.6045546 C37.5270693,56.4738061 37.207373,57.8425752 37.666771,59.0490236 C38.1261691,60.2554721 39.2700097,61.0510299 40.5452141,61.0510227 C40.8307853,61.0487111 41.1146055,61.0055343 41.3882775,60.9227699 C41.571305,60.8678802 41.7490704,60.796338 41.9194075,60.7090153 C41.958952,60.7751665 42.0071656,60.835569 42.0627283,60.8885692 C46.4086524,64.705509 52.7540677,65.0457707 57.4726369,61.7148982 C62.1912062,58.3840258 64.0802473,52.2310014 62.0601934,46.7722129 C62.0380297,46.7159904 62.006678,46.66396 61.9674564,46.6183096 L61.975887,46.592659 Z M59.4466967,42.582622 C59.607771,42.5318851 59.7754399,42.5059458 59.9441041,42.5056704 C60.8063773,42.5114126 61.5352525,43.1549932 61.6595582,44.0203782 C61.7838639,44.8857632 61.266331,45.7134941 60.4415116,45.9684955 C59.5194595,46.2248241 58.5625348,45.69615 58.2748385,44.7714695 C58.0027525,43.8341574 58.5310766,42.8505521 59.4551273,42.5740719 L59.4466967,42.582622 Z M41.0341909,59.6316919 C40.1140581,59.8935339 39.1550893,59.3675149 38.8675178,58.4432161 C38.5954318,57.505904 39.123756,56.5222987 40.0478067,56.2458185 C40.2096787,56.1997323 40.377086,56.1767111 40.5452141,56.177417 C41.3214747,56.1742328 42.0074242,56.6890335 42.231341,57.4428444 C42.503427,58.3801566 41.9751029,59.3637619 41.0510522,59.6402421 L41.0341909,59.6316919 Z M56.7488936,60.5807625 C52.5468939,63.5537287 46.8935506,63.2652944 43.0069594,59.8796473 C43.1135823,59.7421045 43.2094224,59.5963058 43.2936009,59.4435878 C43.688877,58.7146585 43.7799597,57.855578 43.54652,57.0580861 C43.1555372,55.726114 41.9492446,54.8120407 40.5789366,54.8093873 C40.2933566,54.8115846 40.0095206,54.8547637 39.7358732,54.9376401 C38.1371275,50.1402915 39.8562809,44.8487029 43.9537819,41.9548325 C48.051283,39.0609621 53.5412653,39.2610805 57.4233444,42.4458191 C57.3352242,42.5588591 57.2562799,42.6789547 57.1872866,42.8049269 C56.7929235,43.5341474 56.701881,44.3928491 56.9343676,45.1904286 C57.3277341,46.520712 58.532564,47.4336769 59.901951,47.4391274 C60.1875221,47.4368158 60.4713424,47.393639 60.7450144,47.3108746 C62.5270095,52.1416501 60.8880793,57.584033 56.7488936,60.5807625 L56.7488936,60.5807625 Z" id="Shape" fill="#41288D"></path>
                    </g>
                </g>
            </g>
        </g>
    </g>
</svg>