<?xml version="1.0" encoding="UTF-8"?>
<svg width="56px" height="55px" viewBox="0 0 56 55" version="1.1" xmlns="http://www.w3.org/2000/svg" xmlns:xlink="http://www.w3.org/1999/xlink">
    <!-- Generator: Sketch 45.2 (43514) - http://www.bohemiancoding.com/sketch -->
    <title>feature1</title>
    <desc>Created with Sketch.</desc>
    <defs></defs>
    <g id="Page-1" stroke="none" stroke-width="1" fill="none" fill-rule="evenodd">
        <g id="Mobile-320" transform="translate(-32.000000, -2001.000000)">
            <g id="LH-features" transform="translate(16.000000, 1917.000000)">
                <g id="Group-7" transform="translate(16.000000, 84.000000)">
                    <g id="feature1">
                        <polygon id="Shape" fill="#768FFF" fill-rule="nonzero" points="1.70545455 49.2969231 54.3030303 49.2969231 54.3030303 54.2046154 1.70545455 54.2046154"></polygon>
                        <path d="M2.54545455,19.8507692 C2.37410921,19.8510558 2.22261321,19.7398625 2.17194911,19.5766282 C2.12128501,19.4133939 2.18330189,19.2362949 2.32484848,19.14 L27.0836364,2.46230769 C27.1324376,2.29711844 27.2842868,2.18354441 27.4569697,2.18307692 L27.6606061,2.18307692 C27.833289,2.18354441 27.9851382,2.29711844 28.0339394,2.46230769 L53.7260606,19.1315385 C53.8745073,19.224095 53.9429913,19.4039038 53.8935918,19.5714009 C53.8441922,19.7388981 53.6889963,19.8530994 53.5139394,19.8507692 L2.54545455,19.8507692 Z" id="Shape" fill="#768FFF" fill-rule="nonzero"></path>
                        <path d="M27.6690909,2.53846154 L27.5672727,2.60615385 L27.4654545,2.53846154 L27.6690909,2.53846154 L27.6690909,2.53846154 Z M27.5672727,2.60615385 L53.5139394,19.4615385 L2.54545455,19.4615385 L27.5672727,2.60615385 L27.5672727,2.60615385 Z M27.6690909,1.76 L27.4654545,1.76 C27.1604204,1.75777079 26.8820305,1.93293902 26.7527273,2.20846154 L2.14666667,18.81 C1.86161407,18.9954124 1.72986707,19.3436243 1.82105354,19.6706068 C1.91224001,19.9975892 2.2053414,20.2279726 2.54545455,20.24 L53.5139394,20.24 C53.8586659,20.2387004 54.1617212,20.0120519 54.2595215,19.6823951 C54.3573218,19.3527382 54.2267075,18.9981376 53.9381818,18.81 L28.3733333,2.2 C28.2428849,1.93055228 27.9691229,1.75950995 27.6690909,1.76 Z" id="Shape" fill="#768FFF" fill-rule="nonzero"></path>
                        <path d="M2.54545455,21.1538462 L7.63636364,21.1538462 L7.63636364,44 L4.24242424,44 L4.24242424,45.6923077 L51.7575758,45.6923077 L51.7575758,44 L48.3636364,44 L48.3636364,21.1538462 L53.4545455,21.1538462 C54.2055142,21.1574165 54.8695288,20.6683259 55.0869372,19.9514819 C55.3043456,19.2346378 55.0234382,18.4605386 54.3963636,18.0484615 L28.9418182,1.12538462 C28.3677066,0.738393575 27.6153237,0.738393575 27.0412121,1.12538462 L1.58666667,18.0484615 C0.956806213,18.4622057 0.676360615,19.2408721 0.898305049,19.9597202 C1.12024948,20.6785683 1.79131512,21.1650675 2.54545455,21.1538462 Z M16.1212121,44 L16.1212121,21.1538462 L23.7575758,21.1538462 L23.7575758,44 L16.1212121,44 Z M32.2424242,44 L32.2424242,21.1538462 L39.8787879,21.1538462 L39.8787879,44 L32.2424242,44 Z M28,2.53846154 L53.4545455,19.4615385 L2.54545455,19.4615385 L28,2.53846154 Z M0.848484848,48.2307692 L0.848484848,55 L55.1515152,55 L55.1515152,48.2307692 L0.848484848,48.2307692 Z M53.4545455,53.3076923 L2.54545455,53.3076923 L2.54545455,49.9230769 L53.4545455,49.9230769 L53.4545455,53.3076923 Z" id="Shape" fill="#41288D" fill-rule="nonzero"></path>
                        <polygon id="Path" fill="#FFFFFF" points="9.33333333 44 9.33333333 21.1538462 14.4242424 21.1538462 14.4242424 44"></polygon>
                        <polygon id="Path" fill="#FFFFFF" points="25.4545455 44 25.4545455 21.1538462 30.5454545 21.1538462 30.5454545 44"></polygon>
                        <polygon id="Path" fill="#FFFFFF" points="46.6666667 44 41.5757576 44 41.5757576 21.1538462 46.6666667 21.1538462"></polygon>
                        <path d="M28,15.2307692 C29.874421,15.2307692 31.3939394,13.7154253 31.3939394,11.8461538 C31.3939394,9.97688239 29.874421,8.46153846 28,8.46153846 C26.125579,8.46153846 24.6060606,9.97688239 24.6060606,11.8461538 C24.6060606,13.7154253 26.125579,15.2307692 28,15.2307692 Z M28,10.1538462 C28.9372105,10.1538462 29.6969697,10.9115181 29.6969697,11.8461538 C29.6969697,12.7807896 28.9372105,13.5384615 28,13.5384615 C27.0627895,13.5384615 26.3030303,12.7807896 26.3030303,11.8461538 C26.3030303,10.9115181 27.0627895,10.1538462 28,10.1538462 Z" id="Shape" fill="#41288D" fill-rule="nonzero"></path>
                    </g>
                </g>
            </g>
        </g>
    </g>
</svg>