<?xml version="1.0" encoding="UTF-8"?>
<svg width="54px" height="54px" viewBox="0 0 54 54" version="1.1" xmlns="http://www.w3.org/2000/svg" xmlns:xlink="http://www.w3.org/1999/xlink">
    <!-- Generator: Sketch 45.2 (43514) - http://www.bohemiancoding.com/sketch -->
    <title>feature3</title>
    <desc>Created with Sketch.</desc>
    <defs></defs>
    <g id="Page-1" stroke="none" stroke-width="1" fill="none" fill-rule="evenodd">
        <g id="Mobile-320" transform="translate(-32.000000, -2440.000000)">
            <g id="LH-features" transform="translate(16.000000, 1917.000000)">
                <g id="Group-12" transform="translate(16.000000, 523.000000)">
                    <g id="feature3">
                        <path d="M48.9375,0 L5.0625,0 C2.26655845,0 0,2.26655845 0,5.0625 L0,48.9375 C0,51.7334415 2.26655845,54 5.0625,54 L48.9375,54 C51.7334415,54 54,51.7334415 54,48.9375 L54,5.0625 C54,2.26655845 51.7334415,0 48.9375,0 Z" id="Path" fill="#FFFFFF"></path>
                        <polygon id="Shape" fill="#768FFF" fill-rule="nonzero" points="6.159375 6.159375 48.0853125 6.159375 48.0853125 48.22875 6.159375 48.22875"></polygon>
                        <path d="M48.9375,0 L5.0625,0 C2.26655845,0 0,2.26655845 0,5.0625 L0,48.9375 C0,51.7334415 2.26655845,54 5.0625,54 L48.9375,54 C51.7334415,54 54,51.7334415 54,48.9375 L54,5.0625 C54,2.26655845 51.7334415,0 48.9375,0 Z M52.3125,48.9375 C52.3125,50.801461 50.801461,52.3125 48.9375,52.3125 L5.0625,52.3125 C3.19853897,52.3125 1.6875,50.801461 1.6875,48.9375 L1.6875,5.0625 C1.6875,3.19853897 3.19853897,1.6875 5.0625,1.6875 L48.9375,1.6875 C50.801461,1.6875 52.3125,3.19853897 52.3125,5.0625 L52.3125,48.9375 Z" id="Shape" fill="#41288D" fill-rule="nonzero"></path>
                        <path d="M5.0625,5.0625 L5.0625,48.9375 L48.9375,48.9375 L48.9375,5.0625 L5.0625,5.0625 Z M47.25,47.25 L6.75,47.25 L6.75,6.75 L47.25,6.75 L47.25,47.25 Z" id="Shape" fill="#41288D" fill-rule="nonzero"></path>
                        <path d="M25.531875,32.3409375 L23.1103125,34.7625 L24.3,35.9521875 L26.713125,33.5390625 C27.9964087,34.5889979 29.5605963,35.2375635 31.2103125,35.40375 L31.2103125,38.8125 L32.8978125,38.8125 L32.8978125,35.3953125 C34.5475287,35.229126 36.1117163,34.5805604 37.395,33.530625 L39.8165625,35.94375 L41.00625,34.7540625 L38.593125,32.3325 C39.6415393,31.0515528 40.2900146,29.4905171 40.4578125,27.84375 L43.875,27.84375 L43.875,26.15625 L40.4578125,26.15625 C40.291626,24.5065338 39.6430604,22.9423462 38.593125,21.6590625 L41.00625,19.2375 L39.8165625,18.0478125 L37.395,20.4609375 C36.1130539,19.4155619 34.552108,18.7700579 32.90625,18.6046875 L32.90625,15.1875 L31.21875,15.1875 L31.21875,18.6046875 C29.5690338,18.770874 28.0048462,19.4194396 26.7215625,20.469375 L24.3084375,18.05625 L23.11875,19.2459375 L25.5403125,21.6675 C24.4888587,22.9474463 23.8374113,24.5085724 23.6671875,26.15625 L20.25,26.15625 L20.25,27.84375 L23.6671875,27.84375 C23.833374,29.4934662 24.4819396,31.0576538 25.531875,32.3409375 L25.531875,32.3409375 Z M32.0625,20.25 C35.7904221,20.25 38.8125,23.2720779 38.8125,27 C38.8125,30.7279221 35.7904221,33.75 32.0625,33.75 C28.3345779,33.75 25.3125,30.7279221 25.3125,27 C25.3125,23.2720779 28.3345779,20.25 32.0625,20.25 Z" id="Shape" fill="#41288D" fill-rule="nonzero"></path>
                        <path d="M32.0625,30.375 C33.926461,30.375 35.4375,28.863961 35.4375,27 C35.4375,25.136039 33.926461,23.625 32.0625,23.625 C30.198539,23.625 28.6875,25.136039 28.6875,27 C28.6875,28.863961 30.198539,30.375 32.0625,30.375 Z" id="Shape" fill="#41288D" fill-rule="nonzero"></path>
                        <path d="M32.0625,25.3125 C32.9944805,25.3125 33.75,26.0680195 33.75,27 C33.75,27.9319805 32.9944805,28.6875 32.0625,28.6875 C31.1305195,28.6875 30.375,27.9319805 30.375,27 C30.375,26.0680195 31.1305195,25.3125 32.0625,25.3125 Z" id="Path" fill="#FFFFFF"></path>
                        <polygon id="Shape" fill="#FFFFFF" fill-rule="nonzero" points="5.0625 11.8125 8.4375 11.8125 8.4375 18.5625 5.0625 18.5625"></polygon>
                        <path d="M10.125,10.125 L3.375,10.125 L3.375,20.25 L10.125,20.25 L10.125,10.125 Z M8.4375,18.5625 L5.0625,18.5625 L5.0625,11.8125 L8.4375,11.8125 L8.4375,18.5625 Z M10.125,33.75 L3.375,33.75 L3.375,43.875 L10.125,43.875 L10.125,33.75 Z M8.4375,42.1875 L5.0625,42.1875 L5.0625,35.4375 L8.4375,35.4375 L8.4375,42.1875 Z" id="Shape" fill="#41288D" fill-rule="nonzero"></path>
                        <polygon id="Shape" fill="#FFFFFF" fill-rule="nonzero" points="5.0625 35.4375 8.4375 35.4375 8.4375 42.1875 5.0625 42.1875"></polygon>
                    </g>
                </g>
            </g>
        </g>
    </g>
</svg>