<?xml version="1.0" encoding="UTF-8"?>
<svg width="54px" height="55px" viewBox="0 0 54 55" version="1.1" xmlns="http://www.w3.org/2000/svg" xmlns:xlink="http://www.w3.org/1999/xlink">
    <!-- Generator: Sketch 45.2 (43514) - http://www.bohemiancoding.com/sketch -->
    <title>feature8</title>
    <desc>Created with Sketch.</desc>
    <defs></defs>
    <g id="Page-1" stroke="none" stroke-width="1" fill="none" fill-rule="evenodd">
        <g id="Mobile-320" transform="translate(-32.000000, -3570.000000)">
            <g id="LH-features" transform="translate(16.000000, 1917.000000)">
                <g id="Group-15" transform="translate(16.000000, 1653.000000)">
                    <g id="feature8">
                        <rect id="Rectangle-path" fill="#FFFFFF" fill-rule="nonzero" transform="translate(28.792039, 18.878184) rotate(-10.000000) translate(-28.792039, -18.878184) " x="6.07197449" y="4.85677204" width="45.4401286" height="28.0428232" rx="3.4"></rect>
                        <path d="M53.9240625,25.0376923 L51.87375,13.3692308 L51.03,8.41076923 L50.439375,5.02615385 C50.207313,3.69104053 49.452597,2.50439253 48.3432627,1.73041396 C47.2339283,0.956435395 45.8620688,0.659379359 44.533125,0.905384615 L7.9734375,7.37 C6.64211712,7.60272314 5.45884028,8.35958929 4.68706051,9.47208415 C3.91528075,10.584579 3.61906862,11.960347 3.864375,13.2930769 L4.1596875,14.9853846 L4.2609375,15.5776923 L7.3828125,33.3469231 C7.6148745,34.6820364 8.36959046,35.8686844 9.47892482,36.642663 C10.5882592,37.4166415 11.9601187,37.7136976 13.2890625,37.4676923 L49.78125,30.9184615 C51.1100529,30.6931576 52.2944348,29.9458223 53.0720437,28.8419978 C53.8496525,27.7381732 54.1563006,26.3689744 53.9240625,25.0376923 L53.9240625,25.0376923 Z M6.125625,16.3053846 L49.3340625,8.69 L49.4015625,9.09615385 L49.91625,12.0238462 L6.7078125,19.6392308 L6.125625,16.3053846 Z M5.5434375,12.9715385 C5.22158746,11.1330902 6.44462472,9.38037554 8.2771875,9.05384615 L44.836875,2.58923077 C45.0291088,2.55545891 45.2239013,2.53847218 45.4190625,2.53846154 C47.0584018,2.53847719 48.4606515,3.71986547 48.7434375,5.33923077 L49.03875,7.03153846 L5.8303125,14.6469231 L5.5434375,12.9715385 Z M51.705,27.8553846 C51.192789,28.5919419 50.4097018,29.0941803 49.528125,29.2515385 L12.9684375,35.7161538 C12.7762037,35.7499257 12.5814112,35.7669124 12.38625,35.7669231 C10.7469107,35.7669074 9.34466103,34.5855191 9.061875,32.9661538 L7.0115625,21.2976923 L50.22,13.6823077 L52.2703125,25.3507692 C52.4171433,26.2315654 52.2109152,27.1348633 51.6965625,27.8638462 L51.705,27.8553846 Z" id="Shape" fill="#41288D" fill-rule="nonzero"></path>
                        <polygon id="Path" fill="#768FFF" points="6.125625 16.3053846 49.3340625 8.69 49.4015625 9.09615385 49.91625 12.0238462 6.7078125 19.6392308"></polygon>
                        <rect id="Rectangle-path" fill="#768FFF" fill-rule="nonzero" x="1.6875" y="26.2307692" width="43.875" height="27.0769231" rx="3.4"></rect>
                        <path d="M42.1875,24.5384615 L5.0625,24.5384615 C2.26655845,24.5384615 0,26.8114774 0,29.6153846 L0,49.9230769 C0,52.7269841 2.26655845,55 5.0625,55 L42.1875,55 C44.9834415,55 47.25,52.7269841 47.25,49.9230769 L47.25,29.6153846 C47.25,26.8114774 44.9834415,24.5384615 42.1875,24.5384615 L42.1875,24.5384615 Z M45.5625,49.9230769 C45.5625,51.7923484 44.051461,53.3076923 42.1875,53.3076923 L5.0625,53.3076923 C3.19853897,53.3076923 1.6875,51.7923484 1.6875,49.9230769 L1.6875,29.6153846 C1.6875,27.7461132 3.19853897,26.2307692 5.0625,26.2307692 L42.1875,26.2307692 C44.051461,26.2307692 45.5625,27.7461132 45.5625,29.6153846 L45.5625,49.9230769 Z" id="Shape" fill="#41288D" fill-rule="nonzero"></path>
                        <path d="M5.0625,46.5384615 L11.8125,46.5384615 L11.8125,48.2307692 L5.0625,48.2307692 L5.0625,46.5384615 Z M15.1875,46.5384615 L21.9375,46.5384615 L21.9375,48.2307692 L15.1875,48.2307692 L15.1875,46.5384615 Z M25.3125,46.5384615 L32.0625,46.5384615 L32.0625,48.2307692 L25.3125,48.2307692 L25.3125,46.5384615 Z M35.4375,46.5384615 L42.1875,46.5384615 L42.1875,48.2307692 L35.4375,48.2307692 L35.4375,46.5384615 Z" id="Shape" fill="#41288D" fill-rule="nonzero"></path>
                        <path d="M18.5625,34.6923077 C18.5625,32.8230362 17.051461,31.3076923 15.1875,31.3076923 C13.323539,31.3076923 11.8125,32.8230362 11.8125,34.6923077 C11.8125,36.5615792 13.323539,38.0769231 15.1875,38.0769231 C17.051461,38.0769231 18.5625,36.5615792 18.5625,34.6923077 Z M13.5,34.6923077 C13.5,33.757672 14.2555195,33 15.1875,33 C16.1194805,33 16.875,33.757672 16.875,34.6923077 C16.875,35.6269434 16.1194805,36.3846154 15.1875,36.3846154 C14.2555195,36.3846154 13.5,35.6269434 13.5,34.6923077 Z" id="Shape" fill="#41288D" fill-rule="nonzero"></path>
                        <path d="M8.4375,31.3076923 C6.57353897,31.3076923 5.0625,32.8230362 5.0625,34.6923077 C5.0625,36.5615792 6.57353897,38.0769231 8.4375,38.0769231 C10.301461,38.0769231 11.8125,36.5615792 11.8125,34.6923077 C11.8125,32.8230362 10.301461,31.3076923 8.4375,31.3076923 Z M8.4375,36.3846154 C7.50551948,36.3846154 6.75,35.6269434 6.75,34.6923077 C6.75,33.757672 7.50551948,33 8.4375,33 C9.36948052,33 10.125,33.757672 10.125,34.6923077 C10.125,35.6269434 9.36948052,36.3846154 8.4375,36.3846154 Z" id="Shape" fill="#41288D" fill-rule="nonzero"></path>
                    </g>
                </g>
            </g>
        </g>
    </g>
</svg>