<?xml version="1.0" encoding="UTF-8"?>
<svg width="54px" height="54px" viewBox="0 0 54 54" version="1.1" xmlns="http://www.w3.org/2000/svg" xmlns:xlink="http://www.w3.org/1999/xlink">
    <!-- Generator: Sketch 45.2 (43514) - http://www.bohemiancoding.com/sketch -->
    <title>feature6</title>
    <desc>Created with Sketch.</desc>
    <defs></defs>
    <g id="Page-1" stroke="none" stroke-width="1" fill="none" fill-rule="evenodd">
        <g id="Mobile-320" transform="translate(-32.000000, -3118.000000)">
            <g id="LH-features" transform="translate(16.000000, 1917.000000)">
                <g id="Group-17" transform="translate(16.000000, 1201.000000)">
                    <g id="feature6">
                        <polygon id="Shape" fill="#768FFF" fill-rule="nonzero" points="10.9940625 13.5 43.048125 13.5 43.048125 47.975625 10.9940625 47.975625"></polygon>
                        <polygon id="Shape" fill="#41288D" fill-rule="nonzero" points="42.1875 52.3125 11.8125 52.3125 11.8125 50.625 10.125 50.625 10.125 54 43.875 54 43.875 50.625 42.1875 50.625"></polygon>
                        <path d="M48.9375,0 L5.0625,0 C2.26655845,0 0,2.26655845 0,5.0625 L0,21.9375 C0,24.7334415 2.26655845,27 5.0625,27 L10.125,27 L10.125,48.9375 L43.875,48.9375 L43.875,27 L48.9375,27 C51.7334415,27 54,24.7334415 54,21.9375 L54,5.0625 C54,2.26655845 51.7334415,0 48.9375,0 Z M42.1875,47.25 L11.8125,47.25 L11.8125,14.34375 L15.1875,14.34375 L15.1875,38.9896875 C17.2706708,40.0550155 18.9500899,41.7699779 19.9715625,43.875 L34.02,43.875 C35.0414726,41.7699779 36.7208917,40.0550155 38.8040625,38.9896875 L38.8040625,14.34375 L42.1790625,14.34375 L42.1790625,47.25 L42.1875,47.25 Z M16.875,14.34375 L37.125,14.34375 L37.125,37.96875 C35.4432823,39.0303724 34.0378223,40.4763188 33.024375,42.1875 L20.975625,42.1875 C19.9621777,40.4763188 18.5567177,39.0303724 16.875,37.96875 L16.875,14.34375 L16.875,14.34375 Z M15.1875,12.65625 L10.125,12.65625 L10.125,16.875 L6.75,16.875 L6.75,10.125 L47.25,10.125 L47.25,16.875 L43.875,16.875 L43.875,12.65625 L15.1875,12.65625 Z" id="Shape" fill="#41288D" fill-rule="nonzero"></path>
                        <path d="M52.3125,21.9375 C52.3125,23.801461 50.801461,25.3125 48.9375,25.3125 L43.875,25.3125 L43.875,18.5625 L48.9375,18.5625 L48.9375,8.4375 L5.0625,8.4375 L5.0625,18.5625 L10.125,18.5625 L10.125,25.3125 L5.0625,25.3125 C3.19853897,25.3125 1.6875,23.801461 1.6875,21.9375 L1.6875,5.0625 C1.6875,3.19853897 3.19853897,1.6875 5.0625,1.6875 L48.9375,1.6875 C50.801461,1.6875 52.3125,3.19853897 52.3125,5.0625 L52.3125,21.9375 Z" id="Path" fill="#FFFFFF"></path>
                    </g>
                </g>
            </g>
        </g>
    </g>
</svg>