<?xml version="1.0" encoding="UTF-8"?>
<svg width="22px" height="20px" viewBox="0 0 22 20" version="1.1" xmlns="http://www.w3.org/2000/svg" xmlns:xlink="http://www.w3.org/1999/xlink">
    <!-- Generator: sketchtool 46.2 (44496) - http://www.bohemiancoding.com/sketch -->
    <title>B8370E87-F466-4372-A14D-A70DD5D1DF60</title>
    <desc>Created with sketchtool.</desc>
    <defs></defs>
    <g id="Page-1" stroke="none" stroke-width="1" fill="none" fill-rule="evenodd">
        <g id="FAQ-Desktop-HD" transform="translate(-113.000000, -347.000000)">
            <g id="Group" transform="translate(80.000000, 311.000000)">
                <g id="book-open-page-variant" transform="translate(32.000000, 34.000000)">
                    <rect id="Rectangle-2" x="0" y="0" width="24" height="24"></rect>
                    <path d="M19,2 L14,6.5 L14,17.5 L19,13 L19,2 L19,2 Z M6.5,5 C4.55,5 2.45,5.4 1,6.5 L1,21.16 C1,21.41 1.25,21.66 1.5,21.66 C1.6,21.66 1.65,21.59 1.75,21.59 C3.1,20.94 5.05,20.5 6.5,20.5 C8.45,20.5 10.55,20.9 12,22 C13.35,21.15 15.8,20.5 17.5,20.5 C19.15,20.5 20.85,20.81 22.25,21.56 C22.35,21.61 22.4,21.59 22.5,21.59 C22.75,21.59 23,21.34 23,21.09 L23,6.5 C22.4,6.05 21.75,5.75 21,5.5 L21,7.5 L21,13 L21,19 C19.9,18.65 18.7,18.5 17.5,18.5 C15.8,18.5 13.35,19.15 12,20 L12,13 L12,8.5 L12,6.5 C10.55,5.4 8.45,5 6.5,5 L6.5,5 Z" id="Shape" fill="#768FFF" fill-rule="nonzero"></path>
                </g>
            </g>
        </g>
    </g>
</svg>