<?xml version="1.0" encoding="UTF-8"?>
<svg width="24px" height="24px" viewBox="0 0 24 24" version="1.1" xmlns="http://www.w3.org/2000/svg" xmlns:xlink="http://www.w3.org/1999/xlink">
    <!-- Generator: Sketch 45.2 (43514) - http://www.bohemiancoding.com/sketch -->
    <title>checkbox-marked-circle</title>
    <desc>Created with Sketch.</desc>
    <defs></defs>
    <g id="Page-1" stroke="none" stroke-width="1" fill="none" fill-rule="evenodd">
        <g id="Mobile-320" transform="translate(-16.000000, -4330.000000)" fill-rule="nonzero" fill="#768fff">
            <g id="ChronoMint" transform="translate(4.000000, 3813.000000)">
                <g id="txt-chronomint" transform="translate(12.000000, 476.000000)">
                    <g id="checkbox-marked-circle" transform="translate(0.000000, 41.000000)">
                        <path d="M9.6,18 L3.6,12 L5.292,10.296 L9.6,14.604 L18.708,5.496 L20.4,7.2 L9.6,18 Z M12,8.8817842e-17 C5.372583,-2.57571742e-15 8.8817842e-17,5.372583 -4.4408921e-16,12 C-2.04281037e-15,15.1825979 1.26428208,18.2348448 3.51471863,20.4852814 C5.76515517,22.7357179 8.81740212,24 12,24 C15.1825979,24 18.2348448,22.7357179 20.4852814,20.4852814 C22.7357179,18.2348448 24,15.1825979 24,12 C24,8.81740212 22.7357179,5.76515517 20.4852814,3.51471863 C18.2348448,1.26428208 15.1825979,-1.77635684e-16 12,8.8817842e-17 Z" id="Shape"></path>
                    </g>
                </g>
            </g>
        </g>
    </g>
</svg>