<?xml version="1.0" encoding="UTF-8"?>
<svg width="49px" height="33px" viewBox="0 0 49 33" version="1.1" xmlns="http://www.w3.org/2000/svg" xmlns:xlink="http://www.w3.org/1999/xlink">
    <!-- Generator: Sketch 45.2 (43514) - http://www.bohemiancoding.com/sketch -->
    <title>logo-chronobank</title>
    <desc>Created with Sketch.</desc>
    <defs></defs>
    <g id="Page-1" stroke="none" stroke-width="1" fill="none" fill-rule="evenodd">
        <g id="Desktop-2-ver.2" transform="translate(-72.000000, -37.000000)" fill-rule="nonzero">
            <g id="Logo" transform="translate(72.000000, 31.000000)">
                <g id="logo-chronobank" transform="translate(0.000000, 6.000000)">
                    <g id="Group">
                        <path d="M46.3896369,6.63386841 C44.2390423,6.20182894 42.5413668,4.52707894 42.1034131,2.40596052 L45.2901313,2.40596052 C45.8957837,2.40596052 46.3896369,2.89184211 46.3896369,3.49018421 L46.3896369,6.63386841 Z M46.3896369,24.1837895 C43.0268571,24.6614211 40.3652433,27.2875263 39.8810733,30.6044605 L8.92149034,30.6044605 C8.43732047,27.2875263 5.77570654,24.6614211 2.41292664,24.1837895 L2.41292664,8.82619736 C5.77570654,8.34856577 8.43732047,5.72289476 8.92149034,2.40596052 L39.8810733,2.40596052 C40.3652433,5.72289476 43.0268571,8.34856577 46.3896369,8.82619736 L46.3896369,24.1837895 Z M46.3896369,29.5198026 C46.3896369,30.1185789 45.8957837,30.6044605 45.2901313,30.6044605 L42.1034131,30.6044605 C42.5413668,28.4829079 44.2390423,26.8085921 46.3896369,26.3761184 L46.3896369,29.5198026 Z M3.51243243,30.6044605 C2.90677992,30.6044605 2.41292664,30.1185789 2.41292664,29.5198026 L2.41292664,26.3761184 C4.56352123,26.8085921 6.26119693,28.4829079 6.6991506,30.6044605 L3.51243243,30.6044605 Z M2.41292664,3.49018421 C2.41292664,2.89184211 2.90677992,2.40596052 3.51243243,2.40596052 L6.6991506,2.40596052 C6.26119693,4.52707894 4.56352123,6.20182894 2.41292664,6.63386841 L2.41292664,3.49018421 Z M45.2901313,0.236644737 L3.51243243,0.236644737 C1.69371429,0.236644737 0.214355212,1.69602632 0.214355212,3.49018421 L0.214355212,29.5198026 C0.214355212,31.3143948 1.69371429,32.7737763 3.51243243,32.7737763 L45.2901313,32.7737763 C47.1092897,32.7737763 48.5882083,31.3143948 48.5882083,29.5198026 L48.5882083,3.49018421 C48.5882083,1.69602632 47.1092897,0.236644737 45.2901313,0.236644737 L45.2901313,0.236644737 Z" id="Fill-49" fill="#D9A162"></path>
                        <path d="M24.5306873,5.82146053 C18.4895676,5.82146053 13.6126564,10.6325132 13.6126564,16.5920526 C13.6126564,22.5520263 18.4895676,27.3630789 24.5306873,27.3630789 C30.5722471,27.3630789 35.4491583,22.5520263 35.4491583,16.5920526 C35.4491583,10.6325132 30.5722471,5.82146053 24.5306873,5.82146053 Z M24.5306873,7.73632894 C29.4802239,7.73632894 33.5080772,11.7093552 33.5080772,16.5920526 C33.5080772,21.4751842 29.4802239,25.4482105 24.5306873,25.4482105 C19.5811506,25.4482105 15.5537375,21.4751842 15.5537375,16.5920526 C15.5537375,11.7093552 19.5811506,7.73632894 24.5306873,7.73632894 L24.5306873,7.73632894 Z" id="Fill-50" fill="#4B8FB9"></path>
                        <path d="M28.7284401,16.3528026 L24.9919691,16.3528026 L24.9919691,12.1882895 C24.9919691,11.6615921 24.5548958,11.2308552 24.0214286,11.2308552 C23.4875212,11.2308552 23.050888,11.6615921 23.050888,12.1882895 L23.050888,16.8317368 C23.050888,16.9272632 23.0750965,16.9989079 23.0750965,17.0709868 C23.050888,17.1426316 23.050888,17.2385921 23.050888,17.3102368 C23.050888,17.8369342 23.4875212,18.2676711 24.0214286,18.2676711 L28.7284401,18.2676711 C29.2619073,18.2676711 29.6989807,17.8369342 29.6989807,17.3102368 C29.6989807,16.7835395 29.2619073,16.3528026 28.7284401,16.3528026" id="Fill-51" fill="#4B8FB9"></path>
                    </g>
                </g>
            </g>
        </g>
    </g>
</svg>