<?xml version="1.0" encoding="UTF-8"?>
<svg width="16px" height="16px" viewBox="0 0 16 16" version="1.1" xmlns="http://www.w3.org/2000/svg" xmlns:xlink="http://www.w3.org/1999/xlink">
    <!-- Generator: Sketch 45.2 (43514) - http://www.bohemiancoding.com/sketch -->
    <title>Shape</title>
    <desc>Created with Sketch.</desc>
    <defs></defs>
    <g id="Page-1" stroke="none" stroke-width="1" fill="none" fill-rule="evenodd">
        <g id="Desktop-2-ver.2" transform="translate(-936.000000, -673.000000)" fill-rule="nonzero" fill="#FF1744">
            <g id="Hero">
                <g id="hero-components">
                    <g id="markets-bar" transform="translate(0.000000, 620.000000)">
                        <g id="markets" transform="translate(76.000000, 9.000000)">
                            <g id="Group-34" transform="translate(0.000000, 1.000000)">
                                <g id="Group-27" transform="translate(696.000000, 0.000000)">
                                    <g id="Group-12-Copy-3" transform="translate(96.000000, 0.000000)">
                                        <g id="Group-15" transform="translate(0.000000, 21.000000)">
                                            <g id="Group-17" transform="translate(0.000000, 22.000000)">
                                                <g id="arrow-up-bold-circle-outline" transform="translate(68.000000, 0.000000)">
                                                    <path d="M8,4 L12,8 L9.6,8 L9.6,11.2 L6.4,11.2 L6.4,8 L4,8 L8,4 L8,4 Z M8,16 C5.87826808,16 3.84343678,15.1571453 2.34314575,13.6568542 C0.842854723,12.1565632 1.77635684e-16,10.1217319 0,8 C-1.0658141e-15,5.87826808 0.842854723,3.84343678 2.34314575,2.34314575 C3.84343678,0.842854723 5.87826808,3.55271368e-16 8,0 C10.1217319,-8.8817842e-16 12.1565632,0.842854723 13.6568542,2.34314575 C15.1571453,3.84343678 16,5.87826808 16,8 C16,12.418278 12.418278,16 8,16 L8,16 Z M8,14.4 C11.5346224,14.4 14.4,11.5346224 14.4,8 C14.4,4.4653776 11.5346224,1.6 8,1.6 C4.4653776,1.6 1.6,4.4653776 1.6,8 C1.6,11.5346224 4.4653776,14.4 8,14.4 L8,14.4 Z" id="Shape" transform="translate(8.000000, 8.000000) scale(1, -1) translate(-8.000000, -8.000000) "></path>
                                                </g>
                                            </g>
                                        </g>
                                    </g>
                                </g>
                            </g>
                        </g>
                    </g>
                </g>
            </g>
        </g>
    </g>
</svg>