<?xml version="1.0" encoding="UTF-8"?>
<svg width="209px" height="97px" viewBox="0 0 209 97" version="1.1" xmlns="http://www.w3.org/2000/svg" xmlns:xlink="http://www.w3.org/1999/xlink">
    <!-- Generator: sketchtool 46.2 (44496) - http://www.bohemiancoding.com/sketch -->
    <title>0C9CD64E-5BBE-4536-AEDE-7DD5F603087B</title>
    <desc>Created with sketchtool.</desc>
    <defs>
        <filter x="-11.1%" y="-19.2%" width="122.1%" height="160.3%" filterUnits="objectBoundingBox" id="filter-1">
            <feOffset dx="0" dy="16" in="SourceAlpha" result="shadowOffsetOuter1"></feOffset>
            <feGaussianBlur stdDeviation="12" in="shadowOffsetOuter1" result="shadowBlurOuter1"></feGaussianBlur>
            <feColorMatrix values="0 0 0 0 0.462745098   0 0 0 0 0.560784314   0 0 0 0 1  0 0 0 0.2 0" type="matrix" in="shadowBlurOuter1" result="shadowMatrixOuter1"></feColorMatrix>
            <feMerge>
                <feMergeNode in="shadowMatrixOuter1"></feMergeNode>
                <feMergeNode in="SourceGraphic"></feMergeNode>
            </feMerge>
        </filter>
        <rect id="path-2" x="0" y="0" width="161" height="47.9122995" rx="5.41935484"></rect>
        <filter x="-3.7%" y="-8.3%" width="107.5%" height="125.0%" filterUnits="objectBoundingBox" id="filter-3">
            <feOffset dx="0" dy="2" in="SourceAlpha" result="shadowOffsetOuter1"></feOffset>
            <feGaussianBlur stdDeviation="1" in="shadowOffsetOuter1" result="shadowBlurOuter1"></feGaussianBlur>
            <feColorMatrix values="0 0 0 0 0   0 0 0 0 0   0 0 0 0 0  0 0 0 0.24 0" type="matrix" in="shadowBlurOuter1" result="shadowMatrixOuter1"></feColorMatrix>
            <feOffset dx="0" dy="0" in="SourceAlpha" result="shadowOffsetOuter2"></feOffset>
            <feGaussianBlur stdDeviation="1" in="shadowOffsetOuter2" result="shadowBlurOuter2"></feGaussianBlur>
            <feColorMatrix values="0 0 0 0 0   0 0 0 0 0   0 0 0 0 0  0 0 0 0.12 0" type="matrix" in="shadowBlurOuter2" result="shadowMatrixOuter2"></feColorMatrix>
            <feMerge>
                <feMergeNode in="shadowMatrixOuter1"></feMergeNode>
                <feMergeNode in="shadowMatrixOuter2"></feMergeNode>
            </feMerge>
        </filter>
        <linearGradient x1="50%" y1="0%" x2="50%" y2="38.9125982%" id="linearGradient-4">
            <stop stop-color="#FBDA09" offset="0%"></stop>
            <stop stop-color="#FFBC00" offset="100%"></stop>
        </linearGradient>
        <path d="M13.0605974,2.80068548 C13.9898997,1.15444117 15.4994939,1.15953503 16.4259477,2.80068548 L29.6571016,26.2387832 C30.5864309,27.8850275 29.8054221,29.2195722 27.9281253,29.2195722 L1.55885285,29.2195722 C-0.32536368,29.2195722 -1.09659911,27.8799336 -0.170172239,26.2387832 L13.0605974,2.80068548 Z" id="path-5"></path>
        <linearGradient x1="0%" y1="58.4755255%" x2="69.3064856%" y2="39.0830098%" id="linearGradient-7">
            <stop stop-color="#01E2FF" offset="0%"></stop>
            <stop stop-color="#01C4FF" offset="100%"></stop>
        </linearGradient>
        <linearGradient x1="20.2810876%" y1="20.1019903%" x2="83.820166%" y2="83.6214476%" id="linearGradient-8">
            <stop stop-color="#28D781" offset="0%"></stop>
            <stop stop-color="#02F076" offset="100%"></stop>
        </linearGradient>
        <linearGradient x1="74.4881466%" y1="17.4301299%" x2="10.1079427%" y2="91.1838038%" id="linearGradient-9">
            <stop stop-color="#F2414E" offset="0%"></stop>
            <stop stop-color="#E02554" offset="100%"></stop>
        </linearGradient>
    </defs>
    <g id="Page-1" stroke="none" stroke-width="1" fill="none" fill-rule="evenodd">
        <g id="Desktop-2-ver.2" transform="translate(-754.000000, -4793.000000)">
            <g id="downloads-dapp-copy" filter="url(#filter-1)" transform="translate(560.000000, 4735.000000)">
                <g id="Playstore" transform="translate(218.000000, 66.000000)">
                    <g id="background">
                        <use fill="black" fill-opacity="1" filter="url(#filter-3)" xlink:href="#path-2"></use>
                        <use fill="#000000" fill-rule="evenodd" xlink:href="#path-2"></use>
                    </g>
                    <g id="get-it-on" transform="translate(49.371890, 8.072727)" fill="#FFFFFF">
                        <path d="M35.9462004,7.85454545 C33.7935155,7.85454545 32.0484196,6.09624556 32.0484196,3.92727273 C32.0484196,1.75829989 33.7935155,0 35.9462004,0 C38.0988853,0 39.8439812,1.75829989 39.8439812,3.92727273 C39.8439812,6.09624556 38.0988853,7.85454545 35.9462004,7.85454545 Z M35.9462004,6.65454545 C37.4411205,6.65454545 38.6529926,5.43350386 38.6529926,3.92727273 C38.6529926,2.42104159 37.4411205,1.2 35.9462004,1.2 C34.4512804,1.2 33.2394082,2.42104159 33.2394082,3.92727273 C33.2394082,5.43350386 34.4512804,6.65454545 35.9462004,6.65454545 Z" id="o"></path>
                        <path d="M9.52790854,4.36363636 L9.52790854,6.76363636 L12.6677875,6.76363636 L12.6677875,7.63636364 L8.33691997,7.63636364 L8.33691997,7.2 L8.33691997,0.818181818 L8.33691997,0.327272727 L12.6677875,0.327272727 L12.6677875,1.2 L9.52790854,1.2 L9.52790854,3.49090909 L12.3429724,3.49090909 L12.3429724,4.36363636 L9.52790854,4.36363636 Z" id="e"></path>
                        <path d="M16.8903833,1.2 L16.8903833,7.63636364 L15.6993948,7.63636364 L15.6993948,1.2 L13.8587761,1.2 L13.8587761,0.327272727 L18.731002,0.327272727 L18.731002,1.2 L16.8903833,1.2 Z" id="t"></path>
                        <path d="M27.5010087,1.2 L27.5010087,7.63636364 L26.3100202,7.63636364 L26.3100202,1.2 L24.4694015,1.2 L24.4694015,0.327272727 L29.3416274,0.327272727 L29.3416274,1.2 L27.5010087,1.2 Z" id="t"></path>
                        <rect id="i" x="22.195696" y="0.327272727" width="1.19098857" height="7.30909091"></rect>
                        <path d="M41.5221923,0.327272727 L40.8184264,0.327272727 L40.8184264,7.63636364 L42.0094149,7.63636364 L42.0094149,1.93170732 L45.4741089,7.63636364 L46.0696032,7.63636364 L46.6650975,7.63636364 L46.6650975,0.327272727 L45.4741089,0.327272727 L45.4741089,5.67538803 L42.2259583,0.327272727 L41.5221923,0.327272727 Z" id="n"></path>
                        <g id="g" transform="translate(0.000000, 0.109091)">
                            <polygon id="Rectangle-1" points="3.87431416 3.50946669 7.13519524 3.50946669 7.10290929 4.54930867 3.87431416 4.54930867"></polygon>
                            <path d="M6.49350603,1.06282132 C5.8588125,0.388370313 4.93034909,0 3.82588523,0 C1.71290716,0 0,1.72400137 0,3.85066484 C0,5.9773283 1.7129092,7.69828031 3.82588523,7.70132967 C5.97416216,7.72081402 7.7659694,6.19608478 7.40767101,3.54811804 C7.40767101,3.53520821 7.40761688,3.52232438 7.40750882,3.50946669 L6.45498447,3.50946669 C6.46273979,3.62001611 6.46544402,3.73378678 6.46286553,3.85066484 C6.46513563,5.74191552 5.38272498,6.62899263 3.85817118,6.62899263 C2.33361739,6.62899263 1.09772234,5.38509291 1.09772234,3.85066484 C1.09772234,2.31623677 2.33361739,1.07233704 3.85817118,1.07233704 C4.62088099,1.07233704 5.2819097,1.33489619 5.74732513,1.81383511 L6.49350603,1.06282132 Z" id="Oval-1"></path>
                        </g>
                    </g>
                    <g id="googleplay" transform="translate(48.830531, 20.945455)" fill="#FFFFFF">
                        <g id="big-P" transform="translate(67.561533, 0.545455)">
                            <path d="M0.54135844,3.83415466e-07 L6.67959372,0 C6.67959372,0 10.2132066,0.605752841 10.2132063,4.69415985 C10.213206,8.78256687 6.67959372,9.38831971 6.67959372,9.38831971 L0.54135844,9.38832009 L0.54135844,3.83415466e-07 Z M1.73234701,2.27093594 L1.73234701,7.30909091 L5.89928102,7.30909091 C5.89928102,7.30909091 7.79556153,7.30909091 7.79556153,4.79001342 C7.79556153,2.27093594 5.89928102,2.27093594 5.89928102,2.27093594 L1.73234701,2.27093594 Z" id="Combined-Shape"></path>
                            <rect id="Rectangle-6" x="0" y="0" width="2.16543376" height="15.2727273"></rect>
                        </g>
                        <rect id="y" x="79.0383322" y="0.545454545" width="2.16543376" height="15.2727273"></rect>
                        <path d="M89.2297317,14.7261963 C88.6332949,15.222024 87.6797421,15.6886801 86.1736999,15.7834517 C82.7234387,16.0005684 82.7216411,12.8283024 82.7216411,12.6143821 C82.7216411,12.4004619 82.5514621,9.81344105 85.2960542,9.40221946 C87.2394955,9.11103411 88.6006685,9.59620488 89.2297317,9.90426003 L89.2297317,9.45552048 C89.0754681,8.86121198 88.59675,7.76921165 87.1615733,7.76921165 C85.1898539,7.76921165 84.7544315,8.84328835 84.7544315,8.84328835 L82.950714,7.76921165 C82.950714,7.76921165 83.9600417,5.67272727 86.9885924,5.67272727 C90.7543014,5.67272728 91.3953902,8.28975053 91.3953902,9.17116033 C91.3953902,9.17545062 91.395315,9.17971316 91.3951655,9.18394813 L91.3951655,15.8132812 L89.2297317,15.8132812 L89.2297317,14.7261963 Z M89.0750428,11.4548651 C89.0750428,11.4548651 84.903305,10.3219283 84.7582907,12.6832564 C84.6132765,15.0445844 88.760484,13.9107422 89.131029,12.2368253 C89.1310289,11.7045277 89.0750428,11.4548651 89.0750428,11.4548651 Z" id="a"></path>
                        <path d="M95.4584544,15.2387368 L93.4384667,20.0727273 L95.6039005,20.0727273 L101.462414,6.05284091 L99.2969801,6.05284091 L96.5411713,12.6477096 L93.7632818,6 L91.597848,6 L95.4584544,15.2387368 Z" id="y"></path>
                        <path d="M62.713706,9.57007158 L55.8650925,12.4218708 C55.8650925,12.4218708 56.3074012,13.9991965 58.366486,14.0097684 C59.9788262,14.0180466 60.8890015,12.5698453 60.8890015,12.5698453 L62.6265866,13.7554931 C62.6265866,13.7554931 61.2244507,16.0403326 58.3527996,16.0403326 C54.8239364,16.0403326 53.2696705,12.9312813 53.2696705,10.9121609 C53.2696705,8.96679047 54.5033579,5.67272727 58.1338166,5.67272727 C61.7642753,5.67272727 62.713706,9.57007158 62.713706,9.57007158 Z M60.1079534,8.7621985 C60.1079534,8.7621985 59.2463027,7.44129905 57.9248353,7.6849021 C55.1295124,8.20019985 55.4812801,10.6648974 55.4812801,10.6648974 L60.1079534,8.7621985 Z" id="e"></path>
                        <rect id="i" x="50.0215198" y="0.545454545" width="2.29089881" height="15.2406417"></rect>
                        <path d="M46.3554292,6.00395594 L48.4731419,6.02238912 L48.4731419,15.6387668 C48.4731419,18.095725 47.0213269,20.68928 43.6034028,20.68928 C40.1854786,20.68928 39.0816149,17.6380427 39.0816149,17.6380427 L41.0265364,16.813897 C41.0265364,16.813897 41.619725,18.6943725 43.7044718,18.69437 C46.0785421,18.6943671 46.3556924,16.5181466 46.3556924,15.7732199 L46.3556924,14.7296202 C46.3556924,14.7296202 45.534243,16.0250058 43.4939113,16.0250086 C41.2817753,16.0250117 38.6529926,14.1153641 38.6529926,10.8597937 C38.6529926,7.60422332 41.1283293,5.74207356 43.5195076,5.67433738 C45.4348193,5.62008132 46.3554292,6.95505925 46.3554292,6.95505925 L46.3554292,6.00395594 Z M43.6747302,14.0708461 C45.2190532,14.0708461 46.4709743,12.6454995 46.4709743,10.8872454 C46.4709743,9.12899129 45.2190532,7.7036447 43.6747302,7.7036447 C42.1304072,7.7036447 40.878486,9.12899129 40.878486,10.8872454 C40.878486,12.6454995 42.1304072,14.0708461 43.6747302,14.0708461 Z" id="g"></path>
                        <path d="M32.5472594,16.0363636 C29.7004953,16.0363636 27.3927371,13.7163846 27.3927371,10.8545455 C27.3927371,7.9927063 29.7004953,5.67272727 32.5472594,5.67272727 C35.3940234,5.67272727 37.7017817,7.9927063 37.7017817,10.8545455 C37.7017817,13.7163846 35.3940234,16.0363636 32.5472594,16.0363636 Z M32.5135697,14.0042781 C34.1137116,14.0042781 35.4108829,12.5940947 35.4108829,10.8545455 C35.4108829,9.11499616 34.1137116,7.70481283 32.5135697,7.70481283 C30.9134278,7.70481283 29.6162565,9.11499616 29.6162565,10.8545455 C29.6162565,12.5940947 30.9134278,14.0042781 32.5135697,14.0042781 Z" id="o"></path>
                        <path d="M21.3952755,16.0363636 C18.5485114,16.0363636 16.2407532,13.7163846 16.2407532,10.8545455 C16.2407532,7.9927063 18.5485114,5.67272727 21.3952755,5.67272727 C24.2420396,5.67272727 26.5497978,7.9927063 26.5497978,10.8545455 C26.5497978,13.7163846 24.2420396,16.0363636 21.3952755,16.0363636 Z M21.3615858,14.0042781 C22.9617277,14.0042781 24.258899,12.5940947 24.258899,10.8545455 C24.258899,9.11499616 22.9617277,7.70481283 21.3615858,7.70481283 C19.7614439,7.70481283 18.4642726,9.11499616 18.4642726,10.8545455 C18.4642726,12.5940947 19.7614439,14.0042781 21.3615858,14.0042781 Z" id="o"></path>
                        <g id="big-g">
                            <polygon id="Rectangle-1" points="8.0855252 7.31550802 14.8908422 7.31550802 14.8234629 9.48306595 8.0855252 9.48306595"></polygon>
                            <path d="M13.5516648,2.21545852 C12.227087,0.809560651 10.2894242,0 7.98445613,0 C3.57476277,0 0,3.593693 0,8.02673797 C0,12.4597829 3.57476702,16.0471195 7.98445613,16.0534759 C12.4678167,16.0940912 16.2072405,12.9157824 15.4594873,7.39607704 C15.4594873,7.36916642 15.4593744,7.34230997 15.4591488,7.31550802 L13.4712719,7.31550802 C13.487457,7.54594907 13.4931006,7.78310484 13.4877194,8.02673797 C13.492457,11.9690633 11.233513,13.8181818 8.05183551,13.8181818 C4.87015802,13.8181818 2.29089881,11.2252641 2.29089881,8.02673797 C2.29089881,4.82821185 4.87015802,2.23529412 8.05183551,2.23529412 C9.64357773,2.23529412 11.0231159,2.78260051 11.9944177,3.78095205 L13.5516648,2.21545852 Z" id="Oval-1"></path>
                        </g>
                    </g>
                    <g id="logo_play" transform="translate(10.801614, 8.509091)">
                        <mask id="mask-6" fill="white">
                            <use xlink:href="#path-5"></use>
                        </mask>
                        <use id="yellow" fill="url(#linearGradient-4)" transform="translate(14.743496, 15.393742) rotate(-270.000000) translate(-14.743496, -15.393742) " xlink:href="#path-5"></use>
                        <polygon id="blue" fill="url(#linearGradient-7)" mask="url(#mask-6)" points="1 -0.0107575762 16.1349576 15.1458262 0.804509452 30.9014725"></polygon>
                        <polygon id="green" fill="url(#linearGradient-8)" mask="url(#mask-6)" points="-2.11230977 -3.13095881 16.1331614 15.1502595 21.5577526 9.93613401"></polygon>
                        <polygon id="red" fill="url(#linearGradient-9)" mask="url(#mask-6)" points="16.1356468 15.1467717 24.4401521 23.5806586 -0.368768006 32.0145455"></polygon>
                    </g>
                </g>
            </g>
        </g>
    </g>
</svg>