<?xml version="1.0" encoding="UTF-8"?>
<svg width="105px" height="116px" viewBox="0 0 105 116" version="1.1" xmlns="http://www.w3.org/2000/svg" xmlns:xlink="http://www.w3.org/1999/xlink">
    <!-- Generator: sketchtool 46.2 (44496) - http://www.bohemiancoding.com/sketch -->
    <title>A17E601D-BF4B-4099-8F1A-28C312176F5C</title>
    <desc>Created with sketchtool.</desc>
    <defs></defs>
    <g id="Page-1" stroke="none" stroke-width="1" fill="none" fill-rule="evenodd">
        <g id="icns-roadmap" transform="translate(-10.000000, -335.000000)">
            <g id="ico_09-copy" transform="translate(11.000000, 335.000000)">
                <path d="M64.7103356,87.3626747 C64.7103356,87.3626747 64.7082416,89.722506 64.7082416,90.9104578 L71.3921611,93.547012 L71.1129664,95.1053253 L32.5875973,95.1053253 L32.3084027,93.547012 L38.9930201,90.9104578 C38.9930201,89.722506 38.9902282,87.3626747 38.9902282,87.3626747 L64.7103356,87.3626747 L64.7103356,87.3626747 Z M64.7103356,85.2662892 L38.9895302,85.2662892 C38.4339329,85.2662892 37.9006711,85.4871084 37.5077047,85.8812289 C37.1147383,86.2746506 36.8941745,86.8085301 36.8948725,87.3654699 C36.8948725,87.3654699 36.8962685,88.4269398 36.8969664,89.4835181 L31.5399195,91.5966747 C30.6115973,91.9628434 30.0699597,92.9341687 30.2458523,93.9173735 L30.525047,95.4756867 C30.7044295,96.4749639 31.5727248,97.2017108 32.5868993,97.2017108 L71.1122685,97.2017108 C72.125745,97.2017108 72.9940403,96.4749639 73.1734228,95.4756867 L73.4526174,93.9173735 C73.6285101,92.9341687 73.0875705,91.9628434 72.1585503,91.5966747 L66.8015034,89.4835181 L66.8028993,87.3647711 C66.8035973,86.8078313 66.5830336,86.2746506 66.1900671,85.8812289 C65.7971007,85.4878072 65.2659329,85.2662892 64.7103356,85.2662892 L64.7103356,85.2662892 Z" id="Shape" fill="#422F8B" fill-rule="nonzero"></path>
                <path d="M77.0256107,43.7445783 C78.2121879,43.7445783 79.1747114,44.7089157 79.1747114,45.8968675 L79.1747114,82.8177108 C79.1747114,84.0056627 78.2121879,84.9693012 77.0256107,84.9693012 L26.8710872,84.9693012 C25.6845101,84.9693012 24.7219866,84.0056627 24.7219866,82.8177108 L24.7219866,45.8968675 C24.7219866,44.7089157 25.6845101,43.7445783 26.8710872,43.7445783 L77.0256107,43.7445783 L77.0256107,43.7445783 Z M77.0256107,41.6481928 L26.8710872,41.6481928 C24.5314362,41.6481928 22.6273289,43.554506 22.6273289,45.8968675 L22.6273289,82.8177108 C22.6273289,85.1607711 24.5314362,87.0656867 26.8710872,87.0656867 L77.0249128,87.0656867 C79.3645638,87.0656867 81.2679732,85.1600723 81.2679732,82.8177108 L81.2679732,45.8968675 C81.2686711,43.554506 79.3645638,41.6481928 77.0256107,41.6481928 L77.0256107,41.6481928 Z" id="Shape" fill="#422F8B" fill-rule="nonzero"></path>
                <path d="M51.8513289,80.0295181 C52.9192483,80.0295181 53.7854497,80.8960241 53.7854497,81.9658795 C53.7854497,83.0343373 52.9199463,83.902241 51.8513289,83.902241 C50.7820134,83.902241 49.9158121,83.0350361 49.9158121,81.9658795 C49.9158121,80.8960241 50.7820134,80.0295181 51.8513289,80.0295181 Z" id="Shape" stroke="#422F8B" stroke-width="1.4" stroke-linecap="round"></path>
                <g id="Group" transform="translate(25.825503, 44.722892)">
                    <rect id="Rectangle-path" fill="#768FFF" x="0.996724832" y="1.12016867" width="50.2641074" height="32.1180241"></rect>
                    <path d="M50.5628456,1.81896386 L50.5628456,32.5393976 L1.69471141,32.5393976 L1.69471141,1.81896386 L50.5628456,1.81896386 L50.5628456,1.81896386 Z M51.9588188,0.421373494 L0.298738255,0.421373494 L0.298738255,33.936988 L51.9588188,33.936988 L51.9588188,0.421373494 L51.9588188,0.421373494 Z" id="Shape" fill="#422F8B" fill-rule="nonzero"></path>
                </g>
                <path d="M76.3981208,65.806241 C76.3981208,65.806241 75.0475168,64.0459759 73.6515436,64.0459759 C72.2555705,64.0459759 70.4359195,65.2248434 70.4359195,65.2248434 C70.4359195,65.2248434 68.8528859,62.7357349 67.1079195,62.7357349 C65.362953,62.7357349 62.7455034,63.4345301 62.7455034,63.4345301 L60.0408054,62.6483855 L55.0802148,52.8645542 L52.5060403,53.7380482 L49.8878926,52.8645542 L46.2548725,59.3298072 C46.2548725,59.3298072 42.590443,59.2424578 40.8454765,61.3388434 C39.1005101,63.4345301 39.0132617,64.7447711 39.0132617,64.7447711 C39.0132617,64.7447711 36.5703087,64.6574217 34.9998389,65.3562169 C33.4293691,66.0543133 32.2951409,67.8013012 32.2951409,67.8013012 C32.2951409,67.8013012 30.5501745,66.665759 29.328698,66.4037108 C28.1072215,66.1416627 27.5237047,66.4903614 27.5237047,66.4903614 L27.5383624,77.262988 L76.3995168,77.3063133 L76.3995168,65.806241 L76.3981208,65.806241 Z" id="Shape" fill="#F8F9FE"></path>
                <path d="M50.3436779,52.6528193 C47.6285101,53.762506 48.1868993,56.6205783 52.5102282,56.6205783 C57.0869262,56.6205783 57.3891544,53.762506 54.6725906,52.6528193" id="Shape" stroke="#422F8B" stroke-width="2.1" stroke-linecap="round"></path>
                <path d="M52.6442416,9.63848193 C52.6442416,9.63848193 44.1595168,18.2168916 44.1595168,29.4723855 C44.1595168,40.7285783 46.4056376,53.2803373 52.6442416,53.2803373 C58.8814497,53.2803373 61.1289664,40.7285783 61.1289664,29.4723855 C61.1289664,18.2168916 52.6442416,9.63848193 52.6442416,9.63848193 Z" id="Shape" stroke="#422F8B" stroke-width="2.1" fill="#F8F9FE" stroke-linejoin="round"></path>
                <path d="M52.6449396,31.6058072 C50.597745,31.6058072 48.9386309,33.2668434 48.9386309,35.3157108 C48.9386309,37.3645783 50.597745,39.0263133 52.6449396,39.0263133 C54.6914362,39.0263133 56.3505503,37.3652771 56.3505503,35.3157108 C56.3505503,33.2661446 54.6914362,31.6058072 52.6449396,31.6058072 Z" id="Shape" stroke="#422F8B" stroke-width="1.4" fill="#768FFF"></path>
                <path d="M46.1487785,41.5384819 C46.1487785,41.5384819 41.6739866,44.7319759 42.226094,50.7576867 C43.0727517,60.0097349 44.5538792,57.5255181 44.8791409,55.9497349 C45.917047,50.9163133 49.089396,51.1818554 49.089396,51.1818554 C49.089396,51.1818554 48.777396,47.1980241 48.0661477,44.5551807 C47.1992483,41.3330361 46.1487785,41.5384819 46.1487785,41.5384819 Z" id="Shape" stroke="#422F8B" stroke-width="2.1" fill="#F8F9FE"></path>
                <path d="M59.4391409,41.5384819 C59.4391409,41.5384819 63.9125369,44.7319759 63.3604295,50.7576867 C62.5137718,60.0097349 61.0326443,57.5255181 60.7073826,55.9497349 C59.6701745,50.9163133 56.4978255,51.1818554 56.4978255,51.1818554 C56.4978255,51.1818554 56.8084295,47.1980241 57.5203758,44.5551807 C58.3886711,41.3330361 59.4391409,41.5384819 59.4391409,41.5384819 Z" id="Shape" stroke="#422F8B" stroke-width="2.1" fill="#F8F9FE"></path>
                <g id="Group" transform="translate(44.671141, 23.060241)" stroke="#422F8B" stroke-width="1.4" stroke-linecap="round" stroke-linejoin="round" stroke-dasharray="0,2.918090152740478">
                    <path d="M2.29288591,1.94195181 C3.76424161,2.55060241 5.89449664,2.93424096 8.15318121,2.93424096 C11.1684832,2.93424096 13.7691812,2.24942169 14.9655302,1.25992771" id="Shape"></path>
                </g>
                <g id="Group" transform="translate(47.463087, 43.325301)" stroke="#422F8B" stroke-width="1.4" stroke-linecap="round" stroke-linejoin="round" stroke-dasharray="0,2.5888099193573">
                    <path d="M2.81009396,1.38571084 C3.55414765,1.59185542 4.42802685,1.74838554 5.36193289,1.74838554 C6.87516779,1.74838554 8.22926174,1.33679518 9.13524832,0.970626506" id="Shape"></path>
                </g>
                <path d="M49.4244295,60.9845542 L47.0198658,68.0381928" id="Shape" stroke="#422F8B" stroke-width="1.4" stroke-linecap="round"></path>
                <path d="M50.544,70.1625301 C50.544,70.1625301 47.0038121,67.1633012 43.1837315,68.955012 C39.3413154,70.7579036 39.7203221,74.2490843 39.7203221,74.2490843" id="Shape" stroke="#422F8B" stroke-width="1.4" stroke-linecap="round"></path>
                <path d="M58.450094,73.5174458 C58.450094,73.5174458 56.1376644,70.067494 52.4613691,70.2498795 C47.4944966,70.4965542 46.0552483,73.1701446 46.0552483,73.1701446" id="Shape" stroke="#422F8B" stroke-width="1.4" stroke-linecap="round"></path>
                <path d="M38.3271409,71.2044337 C38.3271409,71.2044337 36.1738523,69.0060241 31.771651,69.8515663 C28.2021477,70.5370843 27.0197584,73.6061928 27.0197584,73.6061928" id="Shape" stroke="#422F8B" stroke-width="1.4" stroke-linecap="round"></path>
                <path d="M41.3731544,75.7186506 C41.3731544,75.7186506 39.6309799,73.656506 35.8444027,74.3553012 C32.7997852,74.9164337 32.3181745,77.402747 32.3181745,77.402747" id="Shape" stroke="#422F8B" stroke-width="1.4" stroke-linecap="round"></path>
                <path d="M47.0547651,61.6085783 C47.0547651,61.6085783 44.7597852,60.6924578 42.9045369,62.4513253 C41.6767785,63.6148193 41.8966443,65.2122651 41.8966443,65.2122651" id="Shape" stroke="#422F8B" stroke-width="1.4" stroke-linecap="round"></path>
                <path d="M47.527302,66.433759 C47.527302,66.433759 44.8917047,64.7161205 41.6718926,65.3666988 C37.7638658,66.1556386 36.8355436,69.4490602 36.8355436,69.4490602" id="Shape" stroke="#422F8B" stroke-width="1.4" stroke-linecap="round"></path>
                <path d="M48.1868993,59.7078554 L45.8423624,65.2451084" id="Shape" stroke="#422F8B" stroke-width="1.4" stroke-linecap="round"></path>
                <path d="M51.8715705,56.4661446 L51.3899597,61.9209398" id="Shape" stroke="#422F8B" stroke-width="1.4" stroke-linecap="round"></path>
                <path d="M54.235651,56.3312771 L55.3964027,61.1997831" id="Shape" stroke="#422F8B" stroke-width="1.4" stroke-linecap="round"></path>
                <path d="M50.2229262,56.0964819 L49.4670067,57.9014699" id="Shape" stroke="#422F8B" stroke-width="1.4" stroke-linecap="round"></path>
                <path d="M55.5283221,63.8440241 L56.8202953,69.5503855" id="Shape" stroke="#422F8B" stroke-width="1.4" stroke-linecap="round"></path>
                <path d="M51.6461208,66.178 L51.2768859,70.3588916" id="Shape" stroke="#422F8B" stroke-width="1.4" stroke-linecap="round"></path>
                <path d="M53.9543624,68.2583133 L53.3931812,60.9593976" id="Shape" stroke="#422F8B" stroke-width="1.4" stroke-linecap="round"></path>
                <path d="M59.9940403,62.4464337 L56.3770738,54.8533253" id="Shape" stroke="#422F8B" stroke-width="1.4" stroke-linecap="round"></path>
                <path d="M48.6322148,54.5696145 L45.4200805,61.1893012" id="Shape" stroke="#422F8B" stroke-width="1.4" stroke-linecap="round"></path>
                <path d="M55.5639195,70.6349157 C55.5639195,70.6349157 58.6678658,67.941759 62.9604832,69.5972048 C68.5583356,71.7557831 66.8964295,77.7123133 66.8964295,77.7123133" id="Shape" stroke="#422F8B" stroke-width="1.4" stroke-linecap="round"></path>
                <path d="M38.7215034,64.6944578 C38.7215034,64.6944578 36.6114899,64.1906265 34.4009664,65.4135181 C32.5457181,66.4393494 32.3398121,67.4756627 32.3398121,67.4756627 C32.3398121,67.4756627 29.9722416,65.8279036 27.2961611,66.239494" id="Shape" stroke="#422F8B" stroke-width="1.4" stroke-linecap="round" stroke-linejoin="round"></path>
                <path d="M63.0093423,63.445012 C63.0093423,63.445012 64.3711141,62.0816627 67.2558926,62.5631325 C69.4685101,62.9313976 70.3814765,65.2101687 70.3814765,65.2101687 C70.3814765,65.2101687 73.0819866,63.1731807 76.6158926,65.2255422" id="Shape" stroke="#422F8B" stroke-width="1.4" stroke-linecap="round" stroke-linejoin="round"></path>
                <path d="M66.1788993,71.773253 C66.1788993,71.773253 68.3175302,69.0360723 71.8053691,69.5091566 C76.3688054,70.1275904 77.0388725,73.4496627 77.0388725,73.4496627" id="Shape" stroke="#422F8B" stroke-width="1.4" stroke-linecap="round"></path>
                <path d="M58.1080805,63.069759 C58.1080805,63.069759 60.8693154,62.1117108 62.9604832,63.4939277 C64.3697181,64.4268193 64.6112215,66.1940723 64.6112215,66.1940723" id="Shape" stroke="#422F8B" stroke-width="1.4" stroke-linecap="round"></path>
                <path d="M66.9110872,67.9836867 C66.9110872,67.9836867 68.3601074,66.9271084 70.9894228,66.9271084 C73.4903087,66.9271084 75.293906,68.092 75.293906,68.092" id="Shape" stroke="#422F8B" stroke-width="1.4" stroke-linecap="round"></path>
                <path d="M38.8352752,66.6671566 C38.8352752,66.6671566 38.3180671,62.7839518 42.0194899,60.4380964 C44.3263356,58.9762169 46.2081074,59.330506 46.2081074,59.330506" id="Shape" stroke="#422F8B" stroke-width="1.4" stroke-linecap="round"></path>
                <path d="M56.3128591,66.433759 C56.3128591,66.433759 59.799302,65.0941687 63.0184161,65.7440482 C66.925745,66.5336867 67.8547651,69.8278072 67.8547651,69.8278072" id="Shape" stroke="#422F8B" stroke-width="1.4" stroke-linecap="round"></path>
                <path d="M56.5313289,58.9853012 L58.8479463,65.621759" id="Shape" stroke="#422F8B" stroke-width="1.4" stroke-linecap="round"></path>
                <path d="M0.164026846,37.1773012 L3.21422819,40.2324337" id="Shape" stroke="#768FFF" stroke-width="0.7" stroke-linecap="round" stroke-linejoin="round"></path>
                <path d="M3.21283221,37.1766024 L0.161932886,40.2324337" id="Shape" stroke="#768FFF" stroke-width="0.7" stroke-linecap="round" stroke-linejoin="round"></path>
                <path d="M90.3941477,14.8703614 L90.3941477,19.1882169" id="Shape" stroke="#768FFF" stroke-width="0.7" stroke-linecap="round" stroke-linejoin="round"></path>
                <path d="M92.5509262,17.028241 L88.2359732,17.028241" id="Shape" stroke="#768FFF" stroke-width="0.7" stroke-linecap="round" stroke-linejoin="round"></path>
                <polygon id="Shape" stroke="#768FFF" stroke-width="0.7" stroke-linecap="round" stroke-linejoin="round" points="4.76724832 85.7666265 3.7125906 82.4159036 6.08504698 79.8261687 9.51006711 80.5878554 10.5633289 83.9378795 8.19296644 86.5269157"></polygon>
                <path d="M32.7006711,0.90773494 L34.1978523,4.80561446 L30.9584966,7.43518072 L27.458094,5.1626988 L28.5350872,1.12995181 L32.7006711,0.90773494 L32.7006711,0.90773494 Z M32.7006711,0.208939759 C32.6881074,0.208939759 32.6762416,0.208939759 32.6636779,0.209638554 L28.498094,0.431156627 C28.1958658,0.447228916 27.9383087,0.656168675 27.8608322,0.94826506 L26.7838389,4.98101205 C26.7056644,5.27310843 26.8250201,5.58337349 27.0783893,5.74759036 L30.5787919,8.02007229 C30.6953557,8.09554217 30.8272752,8.13257831 30.9584966,8.13257831 C31.1148456,8.13257831 31.2704966,8.08016867 31.3982282,7.97674699 L34.6375839,5.34718072 C34.8721074,5.15640964 34.9579597,4.83636145 34.8497718,4.5533494 L33.3525906,0.65546988 C33.2485906,0.38573494 32.9882416,0.208939759 32.7006711,0.208939759 L32.7006711,0.208939759 Z" id="Shape" fill="#768FFF" fill-rule="nonzero"></path>
                <polygon id="Shape" stroke="#768FFF" stroke-width="0.7" points="73.1804027 112.536771 70.4135839 115.307494 67.6460671 112.536771 70.4135839 109.767446"></polygon>
                <polygon id="Shape" stroke="#768FFF" stroke-width="0.7" stroke-linecap="round" stroke-linejoin="round" points="103.316671 53.3145783 102.97745 60.4408916 96.9845369 56.5814458"></polygon>
            </g>
        </g>
    </g>
</svg>