<?xml version="1.0" encoding="UTF-8"?>
<svg width="50px" height="87px" viewBox="0 0 50 87" version="1.1" xmlns="http://www.w3.org/2000/svg" xmlns:xlink="http://www.w3.org/1999/xlink">
    <!-- Generator: sketchtool 46.2 (44496) - http://www.bohemiancoding.com/sketch -->
    <title>095DA383-F5F0-46FA-904B-69C04F1EC51C</title>
    <desc>Created with sketchtool.</desc>
    <defs></defs>
    <g id="Page-1" stroke="none" stroke-width="1" fill="none" fill-rule="evenodd">
        <g id="icns-roadmap" transform="translate(-187.000000, -193.000000)">
            <g id="ico_06-copy" transform="translate(187.000000, 194.000000)">
                <path d="M36.8464789,11.6161983 C38.5373239,11.6161983 39.9084507,12.9832231 39.9084507,14.669876 L39.9084507,69.650124 C39.9084507,71.3367769 38.5380282,72.7045041 36.8464789,72.7045041 L12.6830986,72.7045041 C10.9915493,72.7045041 9.62183099,71.3374793 9.62183099,69.650124 L9.62183099,14.669876 C9.62183099,12.9832231 10.9915493,11.6161983 12.6830986,11.6161983 L36.8464789,11.6161983 L36.8464789,11.6161983 Z M36.8464789,9.50876033 L12.6830986,9.50876033 C9.83028169,9.50876033 7.50915493,11.8241322 7.50915493,14.669876 L7.50915493,69.650124 C7.50915493,72.4965702 9.83028169,74.8119421 12.6830986,74.8119421 L36.8464789,74.8119421 C39.7,74.8119421 42.0211268,72.4965702 42.0211268,69.650124 L42.0211268,14.669876 C42.0204225,11.8241322 39.6992958,9.50876033 36.8464789,9.50876033 L36.8464789,9.50876033 Z" id="Shape" fill="#422F8B" fill-rule="nonzero"></path>
                <path d="M0.428169014,40.716405 L0.428169014,9.49049587 C0.428169014,5.42524793 3.73098592,2.13061983 7.80774648,2.13061983 L32.5401408,2.13061983" id="Shape" stroke="#768FFF" stroke-width="0.7" stroke-linecap="round" stroke-linejoin="round" stroke-dasharray="3.5,3.5"></path>
                <path d="M49.4528169,44.3060744 L49.4528169,75.531281 C49.4528169,79.5958264 46.15,82.891157 42.0732394,82.891157 L17.3408451,82.891157" id="Shape" stroke="#768FFF" stroke-width="0.7" stroke-linecap="round" stroke-linejoin="round" stroke-dasharray="3.5,3.5"></path>
                <path d="M24.8415493,66.0204132 C26.3640845,66.0204132 27.5978873,67.2504545 27.5978873,68.7678099 C27.5978873,70.2865702 26.3640845,71.517314 24.8415493,71.517314 C23.3190141,71.517314 22.0859155,70.2865702 22.0859155,68.7678099 C22.0859155,67.2504545 23.3190141,66.0204132 24.8415493,66.0204132 Z" id="Shape" stroke="#422F8B" stroke-width="0.7"></path>
                <path d="M34.0028169,0.273966942 C34.9542254,0.273966942 35.7253521,1.04247934 35.7253521,1.99152893 C35.7253521,2.94057851 34.9535211,3.70909091 34.0028169,3.70909091 C33.0521127,3.70909091 32.2816901,2.93987603 32.2816901,1.99152893 C32.2816901,1.04318182 33.0521127,0.273966942 34.0028169,0.273966942 Z" id="Shape" stroke="#422F8B" stroke-width="1.4" fill="#FFFFFF"></path>
                <path d="M15.6788732,81.1082645 C16.6302817,81.1082645 17.4014085,81.8774793 17.4014085,82.825124 C17.4014085,83.774876 16.6295775,84.542686 15.6788732,84.542686 C14.728169,84.542686 13.9577465,83.7741736 13.9577465,82.825124 C13.9577465,81.8774793 14.728169,81.1082645 15.6788732,81.1082645 Z" id="Shape" stroke="#422F8B" stroke-width="1.4" fill="#FFFFFF"></path>
                <path d="M18.3267606,13.8521901 L31.3549296,13.8521901 C31.8683099,13.8521901 32.2852113,14.2680579 32.2852113,14.7801653 C32.2852113,15.2922727 31.8683099,15.7081405 31.3549296,15.7081405 L18.3267606,15.7081405 C17.8133803,15.7081405 17.3957746,15.2922727 17.3957746,14.7801653 C17.3957746,14.2680579 17.8133803,13.8521901 18.3267606,13.8521901 Z" id="Shape" stroke="#422F8B" stroke-width="0.7"></path>
                <g id="Group" transform="translate(10.563380, 17.561983)">
                    <rect id="Rectangle-path" fill="#768FFF" x="1.17464789" y="1.07128099" width="26.0584507" height="45.6597521"></rect>
                    <path d="M26.5288732,1.77376033 L26.5288732,46.0285537 L1.87957746,46.0285537 L1.87957746,1.77376033 L26.5288732,1.77376033 L26.5288732,1.77376033 Z M27.9373239,0.368801653 L0.470422535,0.368801653 L0.470422535,47.4335124 L27.9373239,47.4335124 L27.9373239,0.368801653 L27.9373239,0.368801653 Z" id="Shape" fill="#422F8B" fill-rule="nonzero"></path>
                </g>
                <g id="Group" transform="translate(14.788732, 33.016529)" fill-rule="nonzero">
                    <path d="M7.03732394,17.5121074 C2.9471831,17.5121074 0.505633803,15.0056612 0.505633803,10.8069421 L0.505633803,0.71231405 L2.58802817,0.71231405 L2.58802817,10.7830579 C2.58802817,13.8739669 4.16830986,15.5760744 7.03732394,15.5760744 C9.90704225,15.5760744 11.4873239,13.8739669 11.4873239,10.7830579 L11.4873239,0.71231405 L13.5697183,0.71231405 L13.5697183,10.8069421 C13.5704225,15.0681818 11.1894366,17.5121074 7.03732394,17.5121074 Z" id="Shape" fill="#FFFFFF"></path>
                    <path d="M13.2183099,1.06355372 L13.2183099,10.8069421 C13.2183099,14.7183471 11.1260563,17.1608678 7.03802817,17.1608678 C2.97323944,17.1608678 0.858450704,14.6951653 0.858450704,10.8069421 L0.858450704,1.06355372 L2.23661972,1.06355372 L2.23661972,10.7830579 C2.23661972,13.9835537 3.92394366,15.927314 7.03802817,15.927314 C10.1760563,15.927314 11.8401408,13.9828512 11.8401408,10.7830579 L11.8401408,1.06355372 L13.2183099,1.06355372 L13.2183099,1.06355372 Z M13.9225352,0.36107438 L13.2183099,0.36107438 L11.8401408,0.36107438 L11.1352113,0.36107438 L11.1352113,1.06355372 L11.1352113,10.7830579 C11.1352113,12.8097107 10.4239437,15.2248347 7.03802817,15.2248347 C4.39647887,15.2248347 2.94084507,13.6477686 2.94084507,10.7830579 L2.94084507,1.06355372 L2.94084507,0.36107438 L2.23661972,0.36107438 L0.858450704,0.36107438 L0.154225352,0.36107438 L0.154225352,1.06355372 L0.154225352,10.8069421 C0.154225352,15.2255372 2.72746479,17.8633471 7.03802817,17.8633471 C11.3492958,17.8633471 13.9225352,15.2255372 13.9225352,10.8069421 L13.9225352,1.06355372 L13.9225352,0.36107438 L13.9225352,0.36107438 Z" id="Shape" fill="#422F8B"></path>
                </g>
                <g id="Group" transform="translate(30.281690, 33.016529)" fill-rule="nonzero">
                    <rect id="Rectangle-path" fill="#FFFFFF" x="0.843661972" y="0.71231405" width="2.0584507" height="16.5145868"></rect>
                    <path d="M2.55,1.06355372 L2.55,16.8756612 L1.19577465,16.8756612 L1.19577465,1.06355372 L2.55,1.06355372 L2.55,1.06355372 Z M3.25422535,0.36107438 L2.55,0.36107438 L1.19577465,0.36107438 L0.491549296,0.36107438 L0.491549296,1.06355372 L0.491549296,16.8756612 L0.491549296,17.5781405 L1.19577465,17.5781405 L2.55,17.5781405 L3.25422535,17.5781405 L3.25422535,16.8756612 L3.25422535,1.06355372 L3.25422535,0.36107438 L3.25422535,0.36107438 Z" id="Shape" fill="#422F8B"></path>
                </g>
            </g>
        </g>
    </g>
</svg>