<?xml version="1.0" encoding="UTF-8"?>
<svg width="110px" height="103px" viewBox="0 0 110 103" version="1.1" xmlns="http://www.w3.org/2000/svg" xmlns:xlink="http://www.w3.org/1999/xlink">
    <!-- Generator: sketchtool 46.2 (44496) - http://www.bohemiancoding.com/sketch -->
    <title>21B52248-9B3A-4863-A87C-2DA3ED794971</title>
    <desc>Created with sketchtool.</desc>
    <defs></defs>
    <g id="Page-1" stroke="none" stroke-width="1" fill="none" fill-rule="evenodd" stroke-linecap="round" stroke-linejoin="round">
        <g id="icns-roadmap" transform="translate(-157.000000, -1.000000)">
            <g id="ico_02-copy" transform="translate(157.000000, 1.000000)">
                <path d="M46.2390577,79.8737379 L43.9828974,61.7676828 M46.5395064,83.5119724 L47.2703654,101.424579" id="Shape" stroke="#768FFF" stroke-width="1.4"></path>
                <path d="M45.7506538,79.9905103 L40.3649359,66.0643448 M46.9755064,83.4254483 L51.7267885,97.2650897" id="Shape" stroke="#768FFF" stroke-width="1.4"></path>
                <path d="M45.2964872,80.2156138 L33.9423205,64.3746621 M47.3646923,83.2144138 L57.5624808,98.1444" id="Shape" stroke="#768FFF" stroke-width="1.4"></path>
                <path d="M44.9317564,80.5631172 L30.9853462,68.537669 M47.7000769,82.919669 L60.1645064,93.3834621" id="Shape" stroke="#768FFF" stroke-width="1.4"></path>
                <path d="M44.6522692,80.9858897 L25.8707308,71.6335448 M47.9313526,82.5412138 L66.0560962,90.2109103" id="Shape" stroke="#768FFF" stroke-width="1.4"></path>
                <path d="M44.5090321,81.4705655 L28.2547564,77.5889379 M48.0759872,82.1184414 L64.3791731,84.3786207" id="Shape" stroke="#768FFF" stroke-width="1.4"></path>
                <path d="M44.4761923,81.9770483 L26.5107564,82.5707586 M48.0885641,81.6738621 L67.22575,79.3144966" id="Shape" stroke="#768FFF" stroke-width="1.4"></path>
                <path d="M44.5928782,82.4694621 L26.3130192,87.9127448 M48.0026218,81.2342069 L63.5574808,74.4578897" id="Shape" stroke="#768FFF" stroke-width="1.4"></path>
                <path d="M44.8143718,82.9252966 L29.8653013,91.9533517 M47.7937051,80.8430897 L62.8378013,69.2150897" id="Shape" stroke="#768FFF" stroke-width="1.4"></path>
                <path d="M45.1602372,83.2924966 L31.4255385,97.6294759 M47.5002436,80.5061379 L57.9188269,66.2803034" id="Shape" stroke="#768FFF" stroke-width="1.4"></path>
                <path d="M45.5787692,83.5745793 L37.4282244,98.3906069 M47.1257308,80.2725931 L54.8339872,61.173269" id="Shape" stroke="#768FFF" stroke-width="1.4"></path>
                <path d="M46.0594872,83.7187862 L42.5547179,98.3765379 M46.7051026,80.1269793 L48.755141,63.3806897" id="Shape" stroke="#768FFF" stroke-width="1.4"></path>
                <path d="M97.446,62.6076 L89.62525,61.6677931 M100.080167,62.9332966 L108.800167,64.041931" id="Shape" stroke="#422F8B" stroke-width="2.1"></path>
                <path d="M97.5494103,63.3363724 L89.8628141,66.7649793 M99.9921282,62.2938621 L108.26984,58.758331" id="Shape" stroke="#422F8B" stroke-width="2.1"></path>
                <path d="M98.0014808,63.9174207 L92.5067628,71.3767862 M99.5973526,61.785269 L105.347103,53.8749931" id="Shape" stroke="#422F8B" stroke-width="2.1"></path>
                <path d="M98.6806346,64.1931724 L97.7688077,72.1590207 M99.004141,61.5418759 L100.284192,52.2247034" id="Shape" stroke="#422F8B" stroke-width="2.1"></path>
                <path d="M99.4059038,64.0883586 L102.562712,71.4816 M98.3690064,61.6305103 L95.0473013,53.3298207" id="Shape" stroke="#422F8B" stroke-width="2.1"></path>
                <path d="M99.9816474,63.6353379 L106.375615,68.4799862 M97.8631346,62.0265517 L90.4252821,56.3827862" id="Shape" stroke="#422F8B" stroke-width="2.1"></path>
                <path d="M13.2183462,38.5778069 L3.3713141,43.0538483 M15.7511987,37.4121931 L26.8112051,32.266469" id="Shape" stroke="#422F8B" stroke-width="0.7"></path>
                <path d="M13.4286603,38.9028 L6.78804487,44.3383448 M15.5751218,37.1167448 L23.2910641,30.4339862" id="Shape" stroke="#422F8B" stroke-width="0.7"></path>
                <path d="M13.7081474,39.1736276 L7.17792949,48.6800276 M15.3228846,36.889531 L22.540641,26.636069" id="Shape" stroke="#422F8B" stroke-width="0.7"></path>
                <path d="M14.0526154,39.3487862 L10.3661795,49.5853655 M15.0238333,36.7207034 L19.0645192,26.0796414" id="Shape" stroke="#422F8B" stroke-width="0.7"></path>
                <path d="M14.4292244,39.4437517 L13.3818462,52.0615034 M14.692641,36.6510621 L15.8308526,23.1427448" id="Shape" stroke="#422F8B" stroke-width="0.7"></path>
                <path d="M14.8135192,39.4219448 L16.4848526,49.2744414 M14.3509679,36.6573931 L12.6460962,25.4648276" id="Shape" stroke="#422F8B" stroke-width="0.7"></path>
                <path d="M15.1866346,39.3129103 L19.9064744,49.2505241 M14.028859,36.7629103 L8.93241026,24.8246897" id="Shape" stroke="#422F8B" stroke-width="0.7"></path>
                <path d="M15.5094423,39.1011724 L23.2044231,48.1932414 M13.7353974,36.9401793 L6.78315385,28.1632552" id="Shape" stroke="#422F8B" stroke-width="0.7"></path>
                <path d="M15.7784487,38.8197931 L24.8827436,45.1072138 M13.5097115,37.1934207 L3.74722436,29.7650069" id="Shape" stroke="#422F8B" stroke-width="0.7"></path>
                <path d="M15.9531282,38.4736966 L27.9962308,42.8913517 M13.3420192,37.4952 L3.0443141,33.4510759" id="Shape" stroke="#422F8B" stroke-width="0.7"></path>
                <path d="M16.0460577,38.0938345 L27.1347115,39.0153517 M13.2735449,37.8286345 L0.614173077,36.4836414" id="Shape" stroke="#422F8B" stroke-width="0.7"></path>
                <path d="M16.0250962,37.7069379 L25.9958013,35.8526483 M13.2784359,38.1733241 L3.30144231,39.7504552" id="Shape" stroke="#422F8B" stroke-width="0.7"></path>
                <path d="M70.6236154,18.0955034 L73.1816218,20.671531" id="Shape" stroke="#422F8B" stroke-width="1.4"></path>
                <path d="M73.1823205,18.0955034 L70.6243141,20.671531" id="Shape" stroke="#422F8B" stroke-width="1.4"></path>
                <path d="M71.7387692,0.692896552 L71.7387692,2.17928276" id="Shape" stroke="#768FFF" stroke-width="1.4"></path>
                <path d="M71.7387692,37.5838345 L71.7387692,39.0695172" id="Shape" stroke="#768FFF" stroke-width="1.4"></path>
                <path d="M77.1049231,10.5242897 L76.6884872,11.2488414" id="Shape" stroke="#768FFF" stroke-width="1.4"></path>
                <path d="M66.7904487,28.5107586 L66.3740128,29.2346069" id="Shape" stroke="#768FFF" stroke-width="1.4"></path>
                <path d="M88.2445833,10.2858207 L86.9673269,11.0293655" id="Shape" stroke="#768FFF" stroke-width="1.4"></path>
                <path d="M56.511609,28.7316414 L55.2336538,29.4737793" id="Shape" stroke="#768FFF" stroke-width="1.4"></path>
                <path d="M82.4703782,19.8794483 L81.6403013,19.8794483" id="Shape" stroke="#768FFF" stroke-width="1.4"></path>
                <path d="M61.8421282,19.8794483 L61.0113526,19.8794483" id="Shape" stroke="#768FFF" stroke-width="1.4"></path>
                <path d="M88.2473782,29.4737793 L86.9694231,28.7316414" id="Shape" stroke="#768FFF" stroke-width="1.4"></path>
                <path d="M56.5144038,11.0293655 L55.23575,10.2858207" id="Shape" stroke="#768FFF" stroke-width="1.4"></path>
                <path d="M77.1070192,29.2346069 L76.6912821,28.5107586" id="Shape" stroke="#768FFF" stroke-width="1.4"></path>
                <path d="M66.7918462,11.2488414 L66.3754103,10.5242897" id="Shape" stroke="#768FFF" stroke-width="1.4"></path>
                <path d="M81.2699808,3.26118621 L80.5307372,4.54849655" id="Shape" stroke="#768FFF" stroke-width="1.4"></path>
                <path d="M62.9475,35.2096966 L62.2096538,36.4970069" id="Shape" stroke="#768FFF" stroke-width="1.4"></path>
                <path d="M81.0338141,14.4762621 L80.3141346,14.8948138" id="Shape" stroke="#768FFF" stroke-width="1.4"></path>
                <path d="M63.1682949,24.861269 L62.4486154,25.2798207" id="Shape" stroke="#768FFF" stroke-width="1.4"></path>
                <path d="M90.8004936,19.8787448 L89.3248013,19.8787448" id="Shape" stroke="#768FFF" stroke-width="1.4"></path>
                <path d="M54.1562308,19.8787448 L52.6812372,19.8787448" id="Shape" stroke="#768FFF" stroke-width="1.4"></path>
                <path d="M81.0352115,25.2798207 L80.3155321,24.861269" id="Shape" stroke="#768FFF" stroke-width="1.4"></path>
                <path d="M63.1682949,14.8955172 L62.4493141,14.477669" id="Shape" stroke="#768FFF" stroke-width="1.4"></path>
                <path d="M81.2727756,36.4970069 L80.5342308,35.2104" id="Shape" stroke="#768FFF" stroke-width="1.4"></path>
                <path d="M62.9516923,4.5492 L62.2131474,3.26188966" id="Shape" stroke="#768FFF" stroke-width="1.4"></path>
                <path d="M71.7429615,30.6816 L71.7429615,29.8452" id="Shape" stroke="#768FFF" stroke-width="1.4"></path>
                <path d="M71.7429615,9.91369655 L71.7429615,9.0765931" id="Shape" stroke="#768FFF" stroke-width="1.4"></path>
            </g>
        </g>
    </g>
</svg>