<?xml version="1.0" encoding="UTF-8"?>
<svg width="96px" height="66px" viewBox="0 0 96 66" version="1.1" xmlns="http://www.w3.org/2000/svg" xmlns:xlink="http://www.w3.org/1999/xlink">
    <!-- Generator: sketchtool 46.2 (44496) - http://www.bohemiancoding.com/sketch -->
    <title>AE52C6B1-693F-4FAB-BF29-4F16FFE94753</title>
    <desc>Created with sketchtool.</desc>
    <defs></defs>
    <g id="Page-1" stroke="none" stroke-width="1" fill="none" fill-rule="evenodd">
        <g id="icns-roadmap" transform="translate(-306.000000, -20.000000)">
            <g id="ico_03-copy" transform="translate(307.000000, 20.000000)">
                <polyline id="Shape" stroke="#768FFF" stroke-width="2.1" stroke-linecap="round" stroke-linejoin="round" points="84.5235373 1.28182796 90.7962836 1.28112903 90.7962836 7.53021505"></polyline>
                <path d="M44.8471194,27.2713441 C48.8175672,17.7778495 40.1281791,9.40822581 32.5702985,15.2148925 C27.9776269,18.7430645 29.467597,27.8863978 38.1752239,29.9573118 C59.221403,34.9630108 87.6395672,4.20682796 87.6395672,4.20682796" id="Shape" stroke="#768FFF" stroke-width="2.1" stroke-linecap="round" stroke-linejoin="round"></path>
                <path d="M6.26362687,58.8969892 C6.26362687,58.8969892 28.3620448,53.4803226 41.7395075,33.8733871" id="Shape" stroke="#768FFF" stroke-width="2.1" stroke-linecap="round" stroke-linejoin="round"></path>
                <polyline id="Shape" stroke="#422F8B" stroke-width="1.4" stroke-linecap="round" stroke-linejoin="round" points="5.21068657 4.43887097 5.21068657 59.8866667 90.336806 59.8866667"></polyline>
                <polyline id="Shape" stroke="#422F8B" stroke-width="1.4" stroke-linecap="round" stroke-linejoin="round" points="0.564 5.29924731 5.21068657 0.668870968 9.85807463 5.29924731"></polyline>
                <polyline id="Shape" stroke="#422F8B" stroke-width="1.4" stroke-linecap="round" stroke-linejoin="round" points="89.1477761 55.2192473 93.7951642 59.8496237 89.1477761 64.4786022"></polyline>
                <path d="M58.5900597,0.729677419 L59.9306119,2.80548387 L58.3641791,4.71634409 L56.0555672,3.82241935 L56.1958657,1.35870968 L58.5900597,0.729677419 L58.5900597,0.729677419 Z M58.5900597,0.0307526882 C58.5304328,0.0307526882 58.470806,0.0384408602 58.4111791,0.0538172043 L56.0169851,0.682849462 C55.7230597,0.759731183 55.5126119,1.01693548 55.4957761,1.31887097 L55.3554776,3.78258065 C55.3386418,4.08521505 55.5175224,4.36408602 55.8016269,4.4738172 L58.1102388,5.36774194 C58.1930149,5.39989247 58.278597,5.41526882 58.3641791,5.41526882 C58.5704179,5.41526882 58.7710448,5.3244086 58.9071343,5.15876344 L60.4735672,3.24790323 C60.6657761,3.01306452 60.6847164,2.68177419 60.5198657,2.42736559 L59.1793134,0.35155914 C59.0488358,0.148172043 58.8243582,0.0307526882 58.5900597,0.0307526882 L58.5900597,0.0307526882 Z" id="Shape" fill="#768FFF" fill-rule="nonzero"></path>
                <polygon id="Shape" stroke="#768FFF" stroke-width="0.7" points="21.4446269 39.2481183 18.5748209 42.1067204 15.7050149 39.2481183 18.5748209 36.3888172"></polygon>
                <polygon id="Shape" stroke="#768FFF" stroke-width="0.7" stroke-linecap="round" stroke-linejoin="round" points="67.0058657 42.101129 69.8483134 48.2188172 63.1083731 47.6128495"></polygon>
            </g>
        </g>
    </g>
</svg>