<?xml version="1.0" encoding="UTF-8"?>
<svg width="111px" height="68px" viewBox="0 0 111 68" version="1.1" xmlns="http://www.w3.org/2000/svg" xmlns:xlink="http://www.w3.org/1999/xlink">
    <!-- Generator: sketchtool 46.2 (44496) - http://www.bohemiancoding.com/sketch -->
    <title>Road July</title>
    <desc>Created with sketchtool.</desc>
    <defs></defs>
    <g id="Page-1" stroke="none" stroke-width="1" fill="none" fill-rule="evenodd">
        <g id="icns-roadmap" transform="translate(-325.000000, -186.000000)">
            <g id="ico_07-copy" transform="translate(325.000000, 187.000000)">
                <path d="M56.3249045,23.6119167 C56.3249045,23.6119167 57.1292357,20.9081875 54.01,20.9081875 C47.9740127,20.9081875 16.6646497,20.9081875 16.6646497,20.9081875 C15.5520382,20.9081875 14.873121,21.8824792 14.873121,23.0256667 L14.873121,53.3438646 C14.873121,54.4870521 15.7748408,55.4138854 16.8867516,55.4138854 L56.3038854,55.4138854 C57.4157962,55.4138854 58.3161146,54.4870521 58.3161146,53.3438646 L58.3161146,26.7190417 C58.3161146,25.5744583 57.4157962,24.6490208 56.3038854,24.6490208 C56.3038854,24.6490208 19.8735669,24.6490208 17.5376433,24.6490208 C15.5681529,24.6490208 14.796051,23.0354375 15.3425478,22.1197708 C15.8378981,21.28925 16.648535,21.0931354 16.648535,21.0931354" id="Shape" stroke="#422F8B" stroke-width="2.1" fill="#F8F9FE" stroke-linecap="round" stroke-linejoin="round"></path>
                <path d="M15.116242,26.98425 C15.116242,26.98425 15.5282166,27.9676146 18.2691083,27.9676146 C26.7496178,27.9676146 53.5840127,27.9676146 53.5840127,27.9676146 C54.6728025,27.9676146 55.4757325,28.3605417 55.4757325,29.4060208 L55.2024841,50.5982604 C55.2024841,51.6430417 54.7141401,52.1113438 53.626051,52.1113438 C53.626051,52.1113438 26.2416561,52.1113438 18.2312739,52.1113438 C15.6150955,52.1113438 14.842293,50.9011563 14.842293,50.9011563" id="Shape" stroke="#422F8B" stroke-width="0.7" stroke-linecap="round" stroke-linejoin="round" stroke-dasharray="1.4,2.1"></path>
                <g id="Group" transform="translate(49.745223, 35.593750)">
                    <path d="M3.88152866,7.26391667 C2.67363057,7.26391667 1.69203822,6.28473958 1.69203822,5.08153125 L1.69203822,3.71221875 C1.69203822,2.50901042 2.67433121,1.53053125 3.88152866,1.53053125 L8.4966242,1.53053125 C9.70452229,1.53053125 10.6868153,2.50901042 10.6868153,3.71221875 L10.6868153,5.08153125 C10.6868153,6.28473958 9.70452229,7.26391667 8.4966242,7.26391667 L3.88152866,7.26391667 Z" id="Shape" fill="#F8F9FE"></path>
                    <path d="M8.4966242,2.57810417 C9.12509554,2.57810417 9.63585987,3.0861875 9.63585987,3.71291667 L9.63585987,5.08222917 C9.63585987,5.70895833 9.12509554,6.21773958 8.4966242,6.21773958 L3.88152866,6.21773958 C3.25235669,6.21773958 2.74229299,5.70895833 2.74229299,5.08222917 L2.74229299,3.71291667 C2.74229299,3.0861875 3.25305732,2.57810417 3.88152866,2.57810417 L8.4966242,2.57810417 L8.4966242,2.57810417 Z M8.4966242,0.484354167 L3.88152866,0.484354167 C2.09420382,0.484354167 0.641082803,1.93253125 0.641082803,3.71291667 L0.641082803,5.08222917 C0.641082803,6.86261458 2.09420382,8.31148958 3.88152866,8.31148958 L8.4966242,8.31148958 C10.283949,8.31148958 11.7377707,6.86261458 11.7377707,5.08222917 L11.7377707,3.71291667 C11.7377707,1.93253125 10.283949,0.484354167 8.4966242,0.484354167 L8.4966242,0.484354167 Z" id="Shape" fill="#422F8B" fill-rule="nonzero"></path>
                </g>
                <path d="M54.6209554,39.1915104 C55.0399363,39.1915104 55.3790446,39.53 55.3790446,39.9480521 C55.3790446,40.3661042 55.0399363,40.7052917 54.6209554,40.7052917 C54.2012739,40.7052917 53.8607643,40.3661042 53.8607643,39.9480521 C53.8607643,39.53 54.2012739,39.1915104 54.6209554,39.1915104 Z" id="Shape" fill="#422F8B"></path>
                <polygon id="Shape" fill="#422F8B" fill-rule="nonzero" points="23.6478981 42.8876771 23.6478981 37.5911875 25.5515287 37.5911875 25.5515287 36.3698333 20.3317834 36.3698333 20.3317834 37.5911875 22.2452229 37.5911875 22.2452229 42.8876771"></polygon>
                <polygon id="Shape" fill="#422F8B" fill-rule="nonzero" points="32.4471975 42.8876771 32.4471975 41.665625 29.2095541 41.665625 29.2095541 40.1902292 32.3778344 40.1902292 32.3778344 38.968875 29.2095541 38.968875 29.2095541 37.5911875 32.4471975 37.5911875 32.4471975 36.3698333 27.8159873 36.3698333 27.8159873 42.8876771"></polygon>
                <path d="M37.233949,43.0049271 C38.9995541,43.0049271 39.8529299,42.1060104 39.8529299,40.9132708 C39.8529299,38.4803333 36.095414,39.1740625 36.095414,38.1376562 C36.095414,37.7468229 36.4296178,37.4830104 37.0272611,37.4830104 C37.6949682,37.4830104 38.4012102,37.7077396 38.9308917,38.1955833 L39.7050955,37.1801146 C39.057707,36.5840938 38.1945223,36.2707292 37.1540764,36.2707292 C35.6147771,36.2707292 34.6717197,37.1696458 34.6717197,38.2542083 C34.6717197,40.7073854 38.4390446,39.9159479 38.4390446,41.0689062 C38.4390446,41.4401979 38.0670064,41.7919479 37.3019108,41.7919479 C36.3987898,41.7919479 35.6827389,41.3913438 35.2217197,40.911875 L34.4664331,41.9678229 C35.074586,42.5847812 35.977707,43.0049271 37.233949,43.0049271 Z" id="Shape" fill="#422F8B" fill-rule="nonzero"></path>
                <polygon id="Shape" fill="#422F8B" fill-rule="nonzero" points="44.9542675 42.8876771 44.9542675 37.5911875 46.8571975 37.5911875 46.8571975 36.3698333 41.6374522 36.3698333 41.6374522 37.5911875 43.5508917 37.5911875 43.5508917 42.8876771"></polygon>
                <path d="M92.2444586,12.3210208 C93.4502548,12.3210208 94.4283439,13.2953125 94.4283439,14.497125 L94.4283439,53.4611146 C94.4283439,54.6629271 93.4502548,55.6372188 92.2444586,55.6372188 L74.1575159,55.6372188 C72.9517197,55.6372188 71.9736306,54.6629271 71.9736306,53.4611146 L71.9736306,14.497125 C71.9736306,13.2953125 72.9517197,12.3210208 74.1575159,12.3210208 L92.2444586,12.3210208 L92.2444586,12.3210208 Z M92.2444586,10.2272708 L74.1575159,10.2272708 C71.7942675,10.2272708 69.8717197,12.1430521 69.8717197,14.497125 L69.8717197,53.4611146 C69.8717197,55.8158854 71.7942675,57.7309687 74.1575159,57.7309687 L92.2444586,57.7309687 C94.607707,57.7309687 96.5302548,55.8158854 96.5302548,53.4611146 L96.5302548,14.497125 C96.5309554,12.1430521 94.607707,10.2272708 92.2444586,10.2272708 L92.2444586,10.2272708 Z" id="Shape" fill="#422F8B" fill-rule="nonzero"></path>
                <path d="M83.1571975,51.5697604 C83.8550318,51.5697604 84.4232484,52.1350729 84.4232484,52.8295 C84.4232484,53.524625 83.8550318,54.0899375 83.1571975,54.0899375 C82.4600637,54.0899375 81.8925478,53.524625 81.8925478,52.8295 C81.8925478,52.134375 82.4600637,51.5697604 83.1571975,51.5697604 L83.1571975,51.5697604 Z M83.1571975,50.8718437 C82.0719108,50.8718437 81.1919108,51.749125 81.1919108,52.8295 C81.1919108,53.9112708 82.0719108,54.7878542 83.1571975,54.7878542 C84.2431847,54.7878542 85.1238854,53.9112708 85.1238854,52.8295 C85.1231847,51.749125 84.2431847,50.8718437 83.1571975,50.8718437 L83.1571975,50.8718437 Z" id="Shape" fill="#422F8B" fill-rule="nonzero"></path>
                <path d="M79.3352229,13.5298125 L86.9798726,13.5298125 C87.2818471,13.5298125 87.5249682,13.7733854 87.5249682,14.0734896 C87.5249682,14.3735938 87.2811465,14.6171667 86.9798726,14.6171667 L79.3352229,14.6171667 C79.0325478,14.6171667 78.7894268,14.3735937 78.7894268,14.0734896 C78.7887261,13.7733854 79.0325478,13.5298125 79.3352229,13.5298125 Z" id="Shape" stroke="#422F8B" stroke-width="0.7"></path>
                <polygon id="Shape" stroke="#422F8B" stroke-width="1.4" fill="#768FFF" points="74.0292994 16.5134062 92.2850955 16.5134062 92.2850955 49.3161875 74.0292994 49.3161875"></polygon>
                <g id="Group" transform="translate(77.770701, 25.125000)" fill-rule="nonzero">
                    <path d="M1.39286624,17.1164063 C1.19949045,17.1164063 1.04254777,16.9600729 1.04254777,16.7674479 L1.04254777,5.22879167 C1.04254777,2.21867708 3.2943949,0.871 5.52592357,0.871 C8.01318471,0.871 9.68420382,2.303125 9.68420382,4.4345625 C9.68420382,5.770375 8.93031847,6.7 7.97815287,7.19970833 C8.97656051,7.66591667 9.95535032,8.65975 9.95535032,10.3193958 C9.95535032,12.4578125 8.22968153,14.0099792 5.85312102,14.0099792 C4.80917197,14.0099792 3.84649682,13.6603229 3.10242038,13.0287083 L3.10242038,16.76675 C3.10242038,16.959375 2.94547771,17.1157083 2.75210191,17.1157083 L1.39286624,17.1157083 L1.39286624,17.1164063 Z M3.10242038,10.9684583 C3.53191083,11.5456354 4.40210191,12.101875 5.45305732,12.101875 C6.97063694,12.101875 7.84082803,11.3802292 7.84082803,10.1211875 C7.84082803,8.36732292 5.93019108,8.23122917 5.34515924,8.23122917 L4.71038217,8.23122917 C4.51700637,8.23122917 4.36006369,8.07489583 4.36006369,7.88227083 L4.36006369,6.67278125 C4.36006369,6.48015625 4.51700637,6.32382292 4.71038217,6.32382292 L5.30872611,6.32382292 C5.83490446,6.32382292 7.55076433,6.19680208 7.55076433,4.5601875 C7.55076433,3.32976042 6.53343949,2.77840625 5.52522293,2.77840625 C4.35375796,2.77840625 3.10171975,3.42188542 3.10171975,5.22809375 L3.10171975,10.9684583 L3.10242038,10.9684583 Z" id="Shape" fill="#F8F9FE"></path>
                    <path d="M5.52592357,1.21926042 C7.70140127,1.21926042 9.33388535,2.39385417 9.33388535,4.43386458 C9.33388535,6.16679167 7.93751592,7.03360417 6.81369427,7.23251042 C7.91929936,7.32254167 9.60503185,8.26123958 9.60503185,10.3193958 C9.60503185,12.3070625 7.99146497,13.6610208 5.85312102,13.6610208 C4.47496815,13.6610208 3.40509554,13.0294063 2.75210191,12.14375 L2.75210191,16.76675 L1.39286624,16.76675 L1.39286624,5.22809375 C1.39286624,2.43014583 3.47726115,1.21926042 5.52592357,1.21926042 L5.52592357,1.21926042 Z M5.45305732,12.4508333 C7.21165605,12.4508333 8.1911465,11.5302812 8.1911465,10.1211875 C8.1911465,8.58646875 6.9033758,7.88227083 5.34515924,7.88227083 L4.71038217,7.88227083 L4.71038217,6.67278125 L5.30872611,6.67278125 C6.74082803,6.67278125 7.9010828,5.98742708 7.9010828,4.5601875 C7.9010828,3.224375 6.83191083,2.42944792 5.52522293,2.42944792 C4.0377707,2.42944792 2.75140127,3.35 2.75140127,5.22809375 L2.75140127,11.0787292 C3.26006369,11.8366667 4.29280255,12.4508333 5.45305732,12.4508333 L5.45305732,12.4508333 Z M5.52592357,0.52134375 C2.1866879,0.52134375 0.692229299,2.8851875 0.692229299,5.22809375 L0.692229299,16.76675 C0.692229299,17.152 1.00541401,17.4646667 1.39286624,17.4646667 L2.75210191,17.4646667 C3.13955414,17.4646667 3.45273885,17.152 3.45273885,16.76675 L3.45273885,13.7091771 C4.15407643,14.1307188 4.97802548,14.3589375 5.85312102,14.3589375 C8.43356688,14.3589375 10.3056688,12.6602083 10.3056688,10.3193958 C10.3056688,8.79165625 9.55038217,7.7761875 8.65917197,7.18435417 C9.45789809,6.59042708 10.0338217,5.66917708 10.0338217,4.4345625 C10.0345223,2.09375 8.22267516,0.52134375 5.52592357,0.52134375 L5.52592357,0.52134375 Z M3.45273885,10.8484167 L3.45273885,5.22809375 C3.45273885,3.2788125 5.03968153,3.12736458 5.52592357,3.12736458 C6.29872611,3.12736458 7.2011465,3.50284375 7.2011465,4.5601875 C7.2011465,5.837375 5.87764331,5.97486458 5.30942675,5.97486458 L4.7110828,5.97486458 C4.32363057,5.97486458 4.01044586,6.28753125 4.01044586,6.67278125 L4.01044586,7.88227083 C4.01044586,8.26821875 4.32363057,8.5801875 4.7110828,8.5801875 L5.34585987,8.5801875 C5.9911465,8.5801875 7.49121019,8.7309375 7.49121019,10.1211875 C7.49121019,11.54075 6.21464968,11.7529167 5.45375796,11.7529167 C4.57726115,11.7529167 3.84719745,11.3202083 3.45273885,10.8484167 L3.45273885,10.8484167 Z" id="Shape" fill="#422F8B"></path>
                </g>
                <path d="M79.4298089,0.0460625 L96.0461146,0.0460625 C102.042866,0.0460625 106.901783,4.88751042 106.901783,10.8609792 L106.901783,30.3461146" id="Shape" stroke="#768FFF" stroke-width="0.7" stroke-linecap="round" stroke-linejoin="round" stroke-dasharray="3.5,3.5"></path>
                <path d="M33.8155414,66.3034792 L14.3938854,66.3034792 C8.39853503,66.3034792 3.53821656,61.4620313 3.53821656,55.4885625 L3.53821656,40.1937188" id="Shape" stroke="#768FFF" stroke-width="0.7" stroke-linecap="round" stroke-linejoin="round" stroke-dasharray="3.5,3.5"></path>
                <polygon id="Shape" stroke="#422F8B" stroke-width="1.4" stroke-linecap="round" stroke-linejoin="round" points="106.863949 35.1931458 103.863121 30.0927708 109.798217 30.0557812"></polygon>
                <polygon id="Shape" stroke="#422F8B" stroke-width="1.4" stroke-linecap="round" stroke-linejoin="round" points="3.59707006 34.2607292 6.59789809 39.3618021 0.662802548 39.3987917"></polygon>
            </g>
        </g>
    </g>
</svg>