<?xml version="1.0" encoding="UTF-8"?>
<svg width="107px" height="108px" viewBox="0 0 107 108" version="1.1" xmlns="http://www.w3.org/2000/svg" xmlns:xlink="http://www.w3.org/1999/xlink">
    <!-- Generator: sketchtool 46.2 (44496) - http://www.bohemiancoding.com/sketch -->
    <title>F1327408-01A4-446B-88FF-D5FA76CC361E</title>
    <desc>Created with sketchtool.</desc>
    <defs></defs>
    <g id="Page-1" stroke="none" stroke-width="1" fill="none" fill-rule="evenodd">
        <g id="icns-roadmap" transform="translate(-306.000000, -334.000000)">
            <g id="ico_12-copy" transform="translate(307.000000, 335.000000)">
                <path d="M76.846,35.0637 L76.846,35.0637 L29.3531,35.0637 C27.2482,35.0637 25.536,36.7535 25.536,38.8297 L25.536,67.5101 C25.536,69.5884 27.2482,71.2768 29.3531,71.2768 L76.8453,71.2768 C78.9516,71.2768 80.6631,69.5884 80.6631,67.5101 L80.6631,38.8297 C80.6638,36.7535 78.9516,35.0637 76.846,35.0637" id="Shape" stroke="#422F8B" stroke-width="2.1"></path>
                <path d="M53.1328,40.8877 C60.0439,40.8877 65.646,46.4891 65.646,53.3995 C65.646,60.3099 60.0439,65.9113 53.1328,65.9113 C46.2224,65.9113 40.6203,60.3099 40.6203,53.3995 C40.6196,46.4891 46.2217,40.8877 53.1328,40.8877 Z" id="Shape" stroke="#422F8B" stroke-width="1.4" fill="#768FFF"></path>
                <path d="M71.9012,35.1841 C71.9012,35.1841 72.3471,38.7457 74.6095,40.8961 C76.6493,42.8351 80.5308,43.3832 80.5308,43.3832" id="Shape" stroke="#422F8B" stroke-width="1.4"></path>
                <path d="M34.4106,35.1841 C34.4106,35.1841 33.9654,38.7457 31.703,40.8961 C29.6618,42.8351 25.781,43.3832 25.781,43.3832" id="Shape" stroke="#422F8B" stroke-width="1.4"></path>
                <path d="M71.7269,71.0815 C71.7269,71.0815 72.1714,67.5199 74.4345,65.3709 C76.4743,63.4326 80.3558,62.8845 80.3558,62.8845" id="Shape" stroke="#422F8B" stroke-width="1.4"></path>
                <path d="M34.4106,71.0815 C34.4106,71.0815 33.9654,67.5199 31.703,65.3709 C29.6618,63.4326 25.781,62.8845 25.781,62.8845" id="Shape" stroke="#422F8B" stroke-width="1.4"></path>
                <g id="Group" transform="translate(41.300000, 49.700000)" fill-rule="nonzero">
                    <path d="M2.4668,6.895 C2.2736,6.895 2.1168,6.7382 2.1168,6.545 L2.1168,2.5396 L0.9002,2.5396 C0.707,2.5396 0.5502,2.3828 0.5502,2.1896 L0.5502,1.1858 C0.5502,0.9926 0.707,0.8358 0.9002,0.8358 L5.1751,0.8358 C5.3683,0.8358 5.5251,0.9926 5.5251,1.1858 L5.5251,2.1896 C5.5251,2.3828 5.3683,2.5396 5.1751,2.5396 L3.9662,2.5396 L3.9662,6.545 C3.9662,6.7382 3.8094,6.895 3.6162,6.895 L2.4668,6.895 Z" id="Shape" fill="#F8F9FE"></path>
                    <path d="M5.1751,1.1858 L5.1751,2.1896 L3.6162,2.1896 L3.6162,6.545 L2.4668,6.545 L2.4668,2.1896 L0.9002,2.1896 L0.9002,1.1858 L5.1751,1.1858 L5.1751,1.1858 Z M5.1751,0.4858 L0.9002,0.4858 C0.5138,0.4858 0.2002,0.7994 0.2002,1.1858 L0.2002,2.1896 C0.2002,2.576 0.5138,2.8896 0.9002,2.8896 L1.7668,2.8896 L1.7668,6.545 C1.7668,6.9321 2.0804,7.245 2.4668,7.245 L3.6162,7.245 C4.0026,7.245 4.3162,6.9321 4.3162,6.545 L4.3162,2.8896 L5.1751,2.8896 C5.5615,2.8896 5.8751,2.576 5.8751,2.1896 L5.8751,1.1858 C5.8751,0.7994 5.5615,0.4858 5.1751,0.4858 L5.1751,0.4858 Z" id="Shape" fill="#422F8B"></path>
                </g>
                <g id="Group" transform="translate(47.600000, 49.700000)" fill-rule="nonzero">
                    <path d="M0.7308,6.895 C0.5376,6.895 0.3808,6.7382 0.3808,6.545 L0.3808,1.1858 C0.3808,0.9926 0.5376,0.8358 0.7308,0.8358 L4.5234,0.8358 C4.7166,0.8358 4.8734,0.9926 4.8734,1.1858 L4.8734,2.1896 C4.8734,2.3828 4.7166,2.5396 4.5234,2.5396 L2.2218,2.5396 L2.2218,2.9729 L4.4667,2.9729 C4.6599,2.9729 4.8167,3.1297 4.8167,3.3229 L4.8167,4.3281 C4.8167,4.5213 4.6599,4.6781 4.4667,4.6781 L2.2218,4.6781 L2.2218,5.1905 L4.5234,5.1905 C4.7166,5.1905 4.8734,5.3473 4.8734,5.5405 L4.8734,6.5457 C4.8734,6.7389 4.7166,6.8957 4.5234,6.8957 L0.7308,6.8957 L0.7308,6.895 Z" id="Shape" fill="#F8F9FE"></path>
                    <path d="M4.5234,1.1858 L4.5234,2.1896 L1.8718,2.1896 L1.8718,3.3229 L4.4667,3.3229 L4.4667,4.3281 L1.8718,4.3281 L1.8718,5.5405 L4.5234,5.5405 L4.5234,6.5457 L0.7308,6.5457 L0.7308,1.1865 L4.5234,1.1865 L4.5234,1.1858 Z M4.5234,0.4858 L0.7308,0.4858 C0.3444,0.4858 0.0308,0.7994 0.0308,1.1858 L0.0308,6.545 C0.0308,6.9321 0.3444,7.245 0.7308,7.245 L4.5234,7.245 C4.9098,7.245 5.2234,6.9321 5.2234,6.545 L5.2234,5.5398 C5.2234,5.2682 5.0694,5.033 4.8433,4.9168 C5.0379,4.7922 5.1667,4.5752 5.1667,4.3267 L5.1667,3.3215 C5.1667,3.101 5.0645,2.9036 4.9049,2.7755 C5.0967,2.6509 5.2234,2.4346 5.2234,2.1889 L5.2234,1.1851 C5.2234,0.7994 4.9098,0.4858 4.5234,0.4858 L4.5234,0.4858 Z" id="Shape" fill="#422F8B"></path>
                </g>
                <g id="Group" transform="translate(52.500000, 49.700000)" fill-rule="nonzero">
                    <path d="M3.5441,6.9916 C2.513,6.9916 1.6436,6.6605 1.029,6.0354 C0.91,5.9143 0.8953,5.7253 0.9933,5.5867 L1.6121,4.7187 C1.6723,4.634 1.7682,4.5801 1.8718,4.5724 C1.8802,4.5717 1.8886,4.5717 1.897,4.5717 C1.9922,4.5717 2.0832,4.6102 2.149,4.6788 C2.3695,4.9091 2.8518,5.2948 3.5994,5.2948 C4.0012,5.2948 4.1818,5.152 4.1818,5.0498 C4.1818,4.9413 3.6099,4.8048 3.3348,4.7404 C2.4444,4.529 1.0969,4.2098 1.0969,2.7363 C1.0969,1.5883 2.0993,0.7546 3.4797,0.7546 C4.4205,0.7546 5.2031,1.0374 5.8065,1.5953 C5.9381,1.7178 5.9563,1.9208 5.8471,2.0643 L5.2115,2.8994 C5.152,2.9778 5.0617,3.0275 4.9637,3.0359 C4.9532,3.0366 4.9441,3.0366 4.9336,3.0366 C4.8461,3.0373 4.7607,3.0037 4.6956,2.9435 C4.3575,2.6306 3.8766,2.4507 3.3754,2.4507 C3.2781,2.4507 2.9617,2.4647 2.9617,2.639 C3.0254,2.7146 3.4636,2.8189 3.7534,2.8882 C4.6634,3.1059 6.0389,3.4342 6.0389,4.921 C6.0389,5.922 5.3837,6.9916 3.5441,6.9916 Z" id="Shape" fill="#F8F9FE"></path>
                    <path d="M3.4804,1.1046 C4.3323,1.1046 5.0393,1.3615 5.5692,1.8522 L4.9336,2.6866 C4.5003,2.2855 3.9214,2.1007 3.3754,2.1007 C2.8847,2.1007 2.6117,2.3177 2.6117,2.639 C2.6117,3.4909 5.6889,2.9204 5.6889,4.921 C5.6889,5.9017 4.991,6.6409 3.5441,6.6409 C2.5165,6.6409 1.7766,6.2958 1.2789,5.789 L1.8977,4.921 C2.2757,5.3144 2.8616,5.6441 3.6008,5.6441 C4.228,5.6441 4.5332,5.3557 4.5332,5.0491 C4.5332,4.1013 1.4483,4.7523 1.4483,2.7349 C1.4476,1.8438 2.2176,1.1046 3.4804,1.1046 L3.4804,1.1046 Z M3.4804,0.4046 C1.8963,0.4046 0.7476,1.3853 0.7476,2.7363 C0.7476,3.5049 1.0619,4.0103 1.4889,4.3533 C1.4273,4.3974 1.3727,4.4527 1.3279,4.5157 L0.7091,5.3837 C0.5124,5.6602 0.5418,6.0382 0.7805,6.2804 C1.4623,6.9741 2.4185,7.3416 3.5448,7.3416 C5.6448,7.3416 6.3896,6.0382 6.3896,4.9217 C6.3896,4.0432 5.9773,3.5042 5.453,3.157 C5.4663,3.1423 5.4789,3.1269 5.4915,3.1115 L6.1271,2.2771 C6.3455,1.9901 6.3105,1.5841 6.0452,1.3391 C5.3844,0.7273 4.4975,0.4046 3.4804,0.4046 L3.4804,0.4046 Z" id="Shape" fill="#422F8B"></path>
                </g>
                <g id="Group" transform="translate(58.800000, 49.700000)" fill-rule="nonzero">
                    <path d="M2.4178,6.895 C2.2246,6.895 2.0678,6.7382 2.0678,6.545 L2.0678,2.5396 L0.8512,2.5396 C0.658,2.5396 0.5012,2.3828 0.5012,2.1896 L0.5012,1.1858 C0.5012,0.9926 0.658,0.8358 0.8512,0.8358 L5.1261,0.8358 C5.3193,0.8358 5.4761,0.9926 5.4761,1.1858 L5.4761,2.1896 C5.4761,2.3828 5.3193,2.5396 5.1261,2.5396 L3.9172,2.5396 L3.9172,6.545 C3.9172,6.7382 3.7604,6.895 3.5672,6.895 L2.4178,6.895 Z" id="Shape" fill="#F8F9FE"></path>
                    <path d="M5.1261,1.1858 L5.1261,2.1896 L3.5672,2.1896 L3.5672,6.545 L2.4171,6.545 L2.4171,2.1896 L0.8505,2.1896 L0.8505,1.1858 L5.1261,1.1858 L5.1261,1.1858 Z M5.1261,0.4858 L0.8512,0.4858 C0.4641,0.4858 0.1512,0.7994 0.1512,1.1858 L0.1512,2.1896 C0.1512,2.576 0.4641,2.8896 0.8512,2.8896 L1.7178,2.8896 L1.7178,6.545 C1.7178,6.9321 2.0307,7.245 2.4178,7.245 L3.5679,7.245 C3.955,7.245 4.2679,6.9321 4.2679,6.545 L4.2679,2.8896 L5.1268,2.8896 C5.5139,2.8896 5.8268,2.576 5.8268,2.1896 L5.8268,1.1858 C5.8261,0.7994 5.5132,0.4858 5.1261,0.4858 L5.1261,0.4858 Z" id="Shape" fill="#422F8B"></path>
                </g>
                <path d="M52.5021,0.6454 C81.3239,0.6454 104.6857,24.0051 104.6857,52.8192 C104.6857,81.6375 81.3239,104.9965 52.5021,104.9965 C23.6817,104.9965 0.3185,81.6375 0.3185,52.8192 C0.3185,24.0051 23.681,0.6454 52.5021,0.6454 Z" id="Shape" stroke="#422F8B" stroke-width="2.1" stroke-linecap="round" stroke-linejoin="round" stroke-dasharray="0,27.32240104675293"></path>
                <path d="M52.5021,7.0896 C77.7644,7.0896 98.2415,27.5646 98.2415,52.8192 C98.2415,78.0787 77.7644,98.5516 52.5021,98.5516 C27.2412,98.5516 6.7634,78.0787 6.7634,52.8192 C6.7627,27.5646 27.2412,7.0896 52.5021,7.0896 Z" id="Shape" stroke="#768FFF" stroke-width="1.4" stroke-linecap="round" stroke-linejoin="round" stroke-dasharray="0,11.9726598739624"></path>
            </g>
        </g>
    </g>
</svg>