<?xml version="1.0" encoding="UTF-8"?>
<svg width="104px" height="105px" viewBox="0 0 104 105" version="1.1" xmlns="http://www.w3.org/2000/svg" xmlns:xlink="http://www.w3.org/1999/xlink">
    <!-- Generator: sketchtool 46.2 (44496) - http://www.bohemiancoding.com/sketch -->
    <title>02A806F2-DFD1-409C-B966-156B82F5C120</title>
    <desc>Created with sketchtool.</desc>
    <defs></defs>
    <g id="Page-1" stroke="none" stroke-width="1" fill="none" fill-rule="evenodd">
        <g id="icns-roadmap" transform="translate(-487.000000, -334.000000)">
            <g id="ico_11-copy" transform="translate(488.000000, 335.000000)">
                <path d="M74.4935342,34.2950548 L74.4935342,34.2950548 L27.0935753,34.2950548 C24.9927945,34.2950548 23.2839452,35.9815479 23.2839452,38.0536849 L23.2839452,66.6814521 C23.2839452,68.7556849 24.9927945,70.4407808 27.0935753,70.4407808 L74.4935342,70.4407808 C76.5957123,70.4407808 78.303863,68.7556849 78.303863,66.6814521 L78.303863,38.0536849 C78.303863,35.9815479 76.5957123,34.2950548 74.4935342,34.2950548" id="Shape" stroke="#422F8B" stroke-width="2.1"></path>
                <path d="M50.8267397,40.1076575 C57.7250137,40.1076575 63.3154521,45.6980959 63.3154521,52.5949726 C63.3154521,59.4953425 57.7243151,65.0857808 50.8267397,65.0857808 C43.929863,65.0857808 38.338726,59.4953425 38.338726,52.5949726 C38.3380274,45.6980959 43.929863,40.1076575 50.8267397,40.1076575 Z" id="Shape" stroke="#422F8B" stroke-width="1.4" fill="#768FFF"></path>
                <path d="M69.5591096,34.4152192 C69.5591096,34.4152192 70.004137,37.9698493 72.2621096,40.1160411 C74.2979178,42.0512466 78.1718219,42.598274 78.1718219,42.598274" id="Shape" stroke="#422F8B" stroke-width="1.4"></path>
                <path d="M32.1418767,34.4152192 C32.1418767,34.4152192 31.6975479,37.9698493 29.4388767,40.1160411 C27.4023699,42.0512466 23.5284658,42.598274 23.5284658,42.598274" id="Shape" stroke="#422F8B" stroke-width="1.4"></path>
                <path d="M69.3851507,70.245863 C69.3851507,70.245863 69.8287808,66.6912329 72.0874521,64.5464384 C74.1232603,62.6119315 77.9971644,62.0649041 77.9971644,62.0649041" id="Shape" stroke="#422F8B" stroke-width="1.4"></path>
                <path d="M32.1418767,70.245863 C32.1418767,70.245863 31.6975479,66.6912329 29.4388767,64.5464384 C27.4023699,62.6119315 23.5284658,62.0649041 23.5284658,62.0649041" id="Shape" stroke="#422F8B" stroke-width="1.4"></path>
                <g id="Group" transform="translate(46.109589, 44.712329)" fill-rule="nonzero">
                    <path d="M1.24635616,15.5053973 C1.05353425,15.5053973 0.897041096,15.3489041 0.897041096,15.1560822 L0.897041096,4.55856164 C0.897041096,1.77452055 2.97127397,0.528164384 5.02664384,0.528164384 C7.31884932,0.528164384 8.85863014,1.85486301 8.85863014,3.82989041 C8.85863014,5.04550685 8.18864384,5.89783562 7.33282192,6.36731507 C8.23615068,6.81024658 9.10594521,7.72615068 9.10594521,9.23519178 C9.10594521,11.2158082 7.51586301,12.653589 5.3249589,12.653589 C4.38530137,12.653589 3.51690411,12.3447945 2.83853425,11.7851918 L2.83853425,15.1567808 C2.83853425,15.3496027 2.6820411,15.5060959 2.48921918,15.5060959 L1.24635616,15.5060959 L1.24635616,15.5053973 Z M2.83853425,9.82064384 C3.22906849,10.3425205 4.01293151,10.8427397 4.96027397,10.8427397 C6.32958904,10.8427397 7.11484932,10.1895205 7.11484932,9.05215068 C7.11484932,7.46765753 5.38923288,7.34539726 4.86036986,7.34539726 L4.27841096,7.34539726 C4.08558904,7.34539726 3.92909589,7.18890411 3.92909589,6.99608219 L3.92909589,5.88526027 C3.92909589,5.69243836 4.08558904,5.53594521 4.27841096,5.53594521 L4.82753425,5.53594521 C5.30190411,5.53594521 6.85006849,5.42136986 6.85006849,3.94586301 C6.85006849,2.83573973 5.93346575,2.3390137 5.02664384,2.3390137 C3.96891781,2.3390137 2.83923288,2.92236986 2.83923288,4.55926027 L2.83923288,9.82064384 L2.83853425,9.82064384 Z" id="Shape" fill="#F8F9FE"></path>
                    <path d="M5.02664384,0.877479452 C7.0170411,0.877479452 8.50931507,1.95546575 8.50931507,3.82989041 C8.50931507,5.42067123 7.23152055,6.21641096 6.20383562,6.39805479 C7.21475342,6.48119178 8.75663014,7.34469863 8.75663014,9.23519178 C8.75663014,11.0600137 7.28112329,12.304274 5.3249589,12.304274 C4.06393151,12.304274 3.08584932,11.724411 2.48921918,10.9105068 L2.48921918,15.1567808 L1.24635616,15.1567808 L1.24635616,4.55926027 C1.24635616,1.98830137 3.15152055,0.877479452 5.02664384,0.877479452 L5.02664384,0.877479452 Z M4.96027397,11.1920548 C6.56852055,11.1920548 7.46416438,10.3460137 7.46416438,9.05215068 C7.46416438,7.64231507 6.28627397,6.99608219 4.86036986,6.99608219 L4.27841096,6.99608219 L4.27841096,5.88526027 L4.82753425,5.88526027 C6.13746575,5.88526027 7.19938356,5.25579452 7.19938356,3.94586301 C7.19938356,2.71906849 6.22130137,1.98969863 5.02664384,1.98969863 C3.6650137,1.98969863 2.48991781,2.8350411 2.48991781,4.55926027 L2.48991781,9.93312329 C2.95310959,10.6275616 3.89765753,11.1920548 4.96027397,11.1920548 L4.96027397,11.1920548 Z M5.02664384,0.178849315 C2.79731507,0.178849315 0.547726027,1.53279452 0.547726027,4.55856164 L0.547726027,15.1560822 C0.547726027,15.5424247 0.860712329,15.8547123 1.24635616,15.8547123 L2.48921918,15.8547123 C2.87486301,15.8547123 3.18784932,15.5424247 3.18784932,15.1560822 L3.18784932,12.4488904 C3.81871233,12.8086849 4.55017808,13.0022055 5.3249589,13.0022055 C7.71846575,13.0022055 9.45526027,11.4177123 9.45526027,9.23449315 C9.45526027,7.8470137 8.79016438,6.91154795 7.99093151,6.35194521 C8.70143836,5.79653425 9.20724658,4.95119178 9.20724658,3.82919178 C9.20794521,1.6459726 7.52773973,0.178849315 5.02664384,0.178849315 L5.02664384,0.178849315 Z M3.18784932,9.69908219 L3.18784932,4.55786301 C3.18784932,2.82176712 4.59489041,2.68693151 5.02594521,2.68693151 C5.70641096,2.68693151 6.50005479,3.0159863 6.50005479,3.94446575 C6.50005479,5.06436986 5.32984932,5.18523288 4.82683562,5.18523288 L4.27771233,5.18523288 C3.89206849,5.18523288 3.57908219,5.49821918 3.57908219,5.88386301 L3.57908219,6.99468493 C3.57908219,7.3810274 3.89206849,7.69331507 4.27771233,7.69331507 L4.85967123,7.69331507 C5.43184932,7.69331507 6.76483562,7.82535616 6.76483562,9.05075342 C6.76483562,10.2419178 5.78326027,10.4920274 4.95957534,10.4920274 C4.18689041,10.4934247 3.54275342,10.1154658 3.18784932,9.69908219 L3.18784932,9.69908219 Z" id="Shape" fill="#422F8B"></path>
                </g>
                <path d="M50.9028904,0.620383562 C78.897,0.620383562 101.58711,23.3090959 101.58711,51.2962192 C101.58711,79.2910274 78.8963014,101.978342 50.9028904,101.978342 C22.9108767,101.978342 0.218671233,79.2903288 0.218671233,51.2962192 C0.218671233,23.3090959 22.9108767,0.620383562 50.9028904,0.620383562 Z" id="Shape" stroke="#768FFF" stroke-width="2.1" stroke-linecap="round" stroke-linejoin="round" stroke-dasharray="0,26.59020004272461"></path>
            </g>
        </g>
    </g>
</svg>