<?xml version="1.0" encoding="UTF-8"?>
<svg width="125px" height="126px" viewBox="0 0 125 126" version="1.1" xmlns="http://www.w3.org/2000/svg" xmlns:xlink="http://www.w3.org/1999/xlink">
    <!-- Generator: sketchtool 46.2 (44496) - http://www.bohemiancoding.com/sketch -->
    <title>E3AEA8A7-6F2B-4779-AE2F-ECF3566834DF</title>
    <desc>Created with sketchtool.</desc>
    <defs></defs>
    <g id="Page-1" stroke="none" stroke-width="1" fill="none" fill-rule="evenodd">
        <g id="icns-roadmap" transform="translate(0.000000, -508.000000)">
            <g id="ico_13-copy" transform="translate(0.000000, 508.000000)">
                <polyline id="Shape" stroke="#422F8B" stroke-width="1.4" fill="#768FFF" fill-rule="nonzero" points="48.853352 67.676676 41.6592179 56.8854749 30.8666201 49.6913408 23.7611732 38.9874302 35.0048883 27.7451117 42.1103352 38.448324 52.902933 45.6431564 60.0963687 56.4336592"></polyline>
                <polyline id="Shape" stroke="#422F8B" stroke-width="1.4" fill="#768FFF" fill-rule="nonzero" points="61.6236034 80.4462291 72.4148045 87.6389665 79.6096369 98.4308659 90.3121508 105.536313 101.555168 94.2939944 90.8519553 87.1878492 83.6578212 76.3973464 72.8666201 69.2046089"></polyline>
                <path d="M41.7381285,81.2604749 L39.8219274,83.1759777 C38.0181564,84.9790503 44.7541899,91.7157821 46.5572626,89.9113128 L48.474162,87.9965084" id="Shape" stroke="#422F8B" stroke-width="1.4"></path>
                <path d="M64.3365922,52.3680168 L64.3365922,52.3680168 L41.646648,75.0572626 C39.6480447,77.0551676 40.2772346,80.2248603 44.9986034,84.9462291 C49.7199721,89.6682961 52.7925978,89.972067 54.6773743,88.0858939 L77.3680168,65.3980447 C79.172486,63.5942737 79.1913408,60.6822626 77.4120112,58.902933 L70.8317039,52.3226257 C69.0537709,50.5453911 66.1403631,50.5642458 64.3365922,52.3680168" id="Shape" stroke="#422F8B" stroke-width="2.1"></path>
                <path d="M72.4217877,64.0502793 L58.7248603,77.7458101 C56.8393855,79.6319832 53.9881285,79.547486 52.146648,77.7053073 C50.3051676,75.8631285 49.9909218,73.0069832 51.9888268,71.0090782 L65.6857542,57.3135475 C67.4902235,55.5104749 74.2248603,62.2465084 72.4217877,64.0502793 Z" id="Shape" stroke="#422F8B" stroke-width="1.4" fill="#768FFF" fill-rule="nonzero"></path>
                <g id="Group" transform="translate(54.469274, 67.737430)" stroke="#422F8B" stroke-width="1.4" stroke-linecap="round" stroke-dasharray="0,2.766679978370666">
                    <path d="M0.729748603,2.93365922 C1.83659218,4.81494413 4.21927374,6.95670391 5.86522346,7.34427374" id="Shape"></path>
                </g>
                <g id="Group" transform="translate(31.424581, 38.407821)" stroke="#422F8B" stroke-width="1.4" stroke-linecap="round" stroke-dasharray="0,2.98368010520935">
                    <path d="M2.3547486,8.54818436 L9.72206704,1.18156425" id="Shape"></path>
                </g>
                <g id="Group" transform="translate(41.201117, 45.391061)" stroke="#422F8B" stroke-width="1.4" stroke-linecap="round" stroke-dasharray="0,2.656289935112">
                    <path d="M2.42108939,9.71019553 L10.853352,1.27793296" id="Shape"></path>
                </g>
                <g id="Group" transform="translate(79.608939, 87.290503)" stroke="#422F8B" stroke-width="1.4" stroke-linecap="round" stroke-dasharray="0,2.957989931106567">
                    <path d="M2.53840782,8.42527933 L9.84078212,1.1222067" id="Shape"></path>
                </g>
                <g id="Group" transform="translate(72.625698, 76.117318)" stroke="#422F8B" stroke-width="1.4" stroke-linecap="round" stroke-dasharray="0,2.571239924430847">
                    <path d="M1.87430168,9.25977654 L10.0356145,1.09846369" id="Shape"></path>
                </g>
                <path d="M77.0425978,35.1424581 C80.1159218,32.0691341 98.1019553,50.0565642 95.0286313,53.1298883 C90.0628492,58.0956704 82.0097765,58.0956704 77.0425978,53.1298883 C72.075419,48.1627095 72.075419,40.1089385 77.0425978,35.1424581 Z" id="Shape" stroke="#422F8B" stroke-width="2.1"></path>
                <path d="M95.5481844,52.6096369 C92.4755587,55.6829609 74.4895251,37.6962291 77.5621508,34.622905" id="Shape" stroke="#422F8B" stroke-width="1.4"></path>
                <path d="M84.1473464,46.0244413 L94.849162,35.3219274" id="Shape" stroke="#422F8B" stroke-width="1.4"></path>
                <g id="Group" transform="translate(42.597765, 74.720670)" stroke="#422F8B" stroke-width="1.4" stroke-linecap="round" stroke-dasharray="0,2.549680018424988">
                    <path d="M2.42877095,5.9273743 L6.92597765,1.43086592" id="Shape"></path>
                </g>
                <g id="Group" transform="translate(46.787709, 78.910615)" stroke="#422F8B" stroke-width="1.4" stroke-linecap="round" stroke-dasharray="0,2.549820041656494">
                    <path d="M2.28561453,5.78282123 L6.78282123,1.28701117" id="Shape"></path>
                </g>
                <path d="M94.849162,33.1641061 C95.4448324,32.5684358 96.4113128,32.5684358 97.0076816,33.1641061 C97.6040503,33.7604749 97.6040503,34.7269553 97.0076816,35.3219274 C96.4113128,35.9182961 95.4448324,35.9182961 94.849162,35.3219274 C94.2534916,34.7269553 94.2534916,33.7597765 94.849162,33.1641061 Z" id="Shape" stroke="#422F8B" stroke-width="2.1"></path>
                <path d="M68.9490223,46.8337989 C70.4392458,45.3435754 72.8547486,45.3435754 74.3456704,46.8337989 C75.8351955,48.325419 75.8351955,50.7409218 74.3456704,52.2304469 C72.8547486,53.7206704 70.4392458,53.7206704 68.9490223,52.2304469 C67.4587989,50.7402235 67.4587989,48.3247207 68.9490223,46.8337989 Z" id="Shape" stroke="#422F8B" stroke-width="1.4" fill="#768FFF"></path>
                <path d="M77.9420391,55.8282123 C79.4329609,54.3379888 81.8484637,54.3379888 83.3386872,55.8282123 C84.8289106,57.3177374 84.8289106,59.7332402 83.3386872,61.2234637 C81.8484637,62.7143855 79.4329609,62.7143855 77.9420391,61.2234637 C76.452514,59.7325419 76.452514,57.3170391 77.9420391,55.8282123 Z" id="Shape" stroke="#422F8B" stroke-width="1.4" fill="#768FFF"></path>
                <path d="M72.4113128,51.5558659 C74.125,49.8421788 76.9043296,49.8421788 78.6173184,51.5558659 C80.3303073,53.2688547 80.3303073,56.0467877 78.6173184,57.7604749 C76.9043296,59.474162 74.125,59.474162 72.4113128,57.7604749 C70.698324,56.0467877 70.698324,53.2688547 72.4113128,51.5558659 Z" id="Shape" stroke="#422F8B" stroke-width="1.4" fill="#768FFF"></path>
                <path d="M95.9581006,25.8037709 L95.9581006,26.7199721" id="Shape" stroke="#768FFF" stroke-width="0.7" stroke-linecap="round"></path>
                <path d="M95.9581006,41.7493017 L95.9581006,42.6655028" id="Shape" stroke="#768FFF" stroke-width="0.7" stroke-linecap="round"></path>
                <path d="M100.173184,26.9329609 L99.7157821,27.726257" id="Shape" stroke="#768FFF" stroke-width="0.7" stroke-linecap="round"></path>
                <path d="M92.200419,40.7423184 L91.7430168,41.5349162" id="Shape" stroke="#768FFF" stroke-width="0.7" stroke-linecap="round"></path>
                <path d="M103.259777,30.0181564 L102.465782,30.476257" id="Shape" stroke="#768FFF" stroke-width="0.7" stroke-linecap="round"></path>
                <path d="M89.450419,37.9916201 L88.6578212,38.4497207" id="Shape" stroke="#768FFF" stroke-width="0.7" stroke-linecap="round"></path>
                <path d="M104.390363,34.2339385 L103.474162,34.2339385" id="Shape" stroke="#768FFF" stroke-width="0.7" stroke-linecap="round"></path>
                <path d="M88.4448324,34.2339385 L87.5286313,34.2339385" id="Shape" stroke="#768FFF" stroke-width="0.7" stroke-linecap="round"></path>
                <path d="M103.260475,38.4490223 L102.467179,37.9909218" id="Shape" stroke="#768FFF" stroke-width="0.7" stroke-linecap="round"></path>
                <path d="M89.4518156,30.476257 L88.6578212,30.0181564" id="Shape" stroke="#768FFF" stroke-width="0.7" stroke-linecap="round"></path>
                <path d="M100.174581,41.5356145 L99.7171788,40.7423184" id="Shape" stroke="#768FFF" stroke-width="0.7" stroke-linecap="round"></path>
                <path d="M92.202514,27.726257 L91.7444134,26.9329609" id="Shape" stroke="#768FFF" stroke-width="0.7" stroke-linecap="round"></path>
                <path d="M20.6829609,66.5984637 L20.6829609,72.1173184" id="Shape" stroke="#768FFF" stroke-width="0.7" stroke-linecap="round" stroke-linejoin="round"></path>
                <path d="M23.4427374,69.3582402 L17.9217877,69.3582402" id="Shape" stroke="#768FFF" stroke-width="0.7" stroke-linecap="round" stroke-linejoin="round"></path>
                <path d="M121.291899,92.6696927 L121.291899,96.6187151" id="Shape" stroke="#768FFF" stroke-width="0.7" stroke-linecap="round" stroke-linejoin="round"></path>
                <path d="M123.265363,94.6445531 L119.317039,94.6445531" id="Shape" stroke="#768FFF" stroke-width="0.7" stroke-linecap="round" stroke-linejoin="round"></path>
                <path d="M74.3030726,121.111034 L77.9308659,124.738128" id="Shape" stroke="#768FFF" stroke-width="0.7" stroke-linecap="round" stroke-linejoin="round"></path>
                <path d="M77.9308659,121.111034 L74.3030726,124.738128" id="Shape" stroke="#768FFF" stroke-width="0.7" stroke-linecap="round" stroke-linejoin="round"></path>
                <polygon id="Shape" stroke="#768FFF" stroke-width="0.7" stroke-linecap="round" stroke-linejoin="round" points="52.6075419 29.7576816 51.0328212 24.7569832 54.575419 20.8924581 59.6941341 22.0300279 61.2688547 27.0300279 57.7255587 30.8945531"></polygon>
                <path d="M118.930168,56.1927374 L124.203911,57.9951117 L124.118017,63.5677374 L118.791899,65.2094972 L115.585894,60.6522346 L118.930168,56.1927374 L118.930168,56.1927374 Z M118.930168,55.4944134 C118.714385,55.4944134 118.506285,55.5942737 118.371508,55.773743 L115.027235,60.2332402 C114.84567,60.4755587 114.840084,60.8065642 115.013966,61.0537709 L118.219972,65.6110335 C118.353352,65.8002793 118.568436,65.9078212 118.791201,65.9078212 C118.859637,65.9078212 118.928771,65.8973464 118.997207,65.8763966 L124.323324,64.2346369 C124.611732,64.1459497 124.810754,63.8805866 124.815642,63.5789106 L124.901536,58.0062849 C124.906425,57.7032123 124.715084,57.4322626 124.428771,57.3344972 L119.155028,55.5321229 C119.081704,55.5069832 119.005587,55.4944134 118.930168,55.4944134 L118.930168,55.4944134 Z" id="Shape" fill="#768FFF" fill-rule="nonzero"></path>
                <polygon id="Shape" stroke="#768FFF" stroke-width="0.7" points="38.9581006 110.537709 32.5558659 116.940642 26.152933 110.537709 32.5558659 104.136173"></polygon>
                <polygon id="Shape" stroke="#768FFF" stroke-width="0.7" stroke-linecap="round" stroke-linejoin="round" points="6.51396648 37.9601955 7.18156425 45.1731844 0.601256983 42.1452514"></polygon>
                <polygon id="Shape" stroke="#768FFF" stroke-width="0.7" stroke-linecap="round" stroke-linejoin="round" points="71.6382682 0.642458101 76.9790503 3.17248603 72.1180168 6.53282123"></polygon>
            </g>
        </g>
    </g>
</svg>