<?xml version="1.0" encoding="UTF-8"?>
<svg width="113px" height="112px" viewBox="0 0 113 112" version="1.1" xmlns="http://www.w3.org/2000/svg" xmlns:xlink="http://www.w3.org/1999/xlink">
    <!-- Generator: sketchtool 46.2 (44496) - http://www.bohemiancoding.com/sketch -->
    <title>5DB4E49D-DB6F-42EA-99A2-C77ABC027C41</title>
    <desc>Created with sketchtool.</desc>
    <defs></defs>
    <g id="Page-1" stroke="none" stroke-width="1" fill="none" fill-rule="evenodd">
        <g id="icns-roadmap" transform="translate(-156.000000, -334.000000)">
            <g id="ico_10-copy" transform="translate(157.000000, 335.000000)">
                <path d="M78.8041401,37.8988535 L78.8041401,37.8988535 L31.2687261,37.8988535 C29.1619108,37.8988535 27.4481529,39.5901911 27.4481529,41.6682803 L27.4481529,70.3705732 C27.4481529,72.4507643 29.1619108,74.1407006 31.2687261,74.1407006 L78.8041401,74.1407006 C80.9123567,74.1407006 82.625414,72.4507643 82.625414,70.3705732 L82.625414,41.6682803 C82.625414,39.5901911 80.9123567,37.8988535 78.8041401,37.8988535" id="Shape" stroke="#768FFF" stroke-width="2.1"></path>
                <path d="M55.0693631,43.7281529 C61.9867516,43.7281529 67.5932484,49.333949 67.5932484,56.2471338 C67.5932484,63.1638217 61.986051,68.7703185 55.0693631,68.7703185 C48.1526752,68.7703185 42.5447771,63.1638217 42.5447771,56.2471338 C42.5447771,49.333949 48.1526752,43.7281529 55.0693631,43.7281529 Z" id="Shape" stroke="#422F8B" stroke-width="1.4" fill="#FFFFFF"></path>
                <path d="M73.8548408,38.0193631 C73.8548408,38.0193631 74.3011465,41.5842038 76.5656051,43.7365605 C78.6072611,45.6773248 82.492293,46.2259236 82.492293,46.2259236" id="Shape" stroke="#768FFF" stroke-width="1.4"></path>
                <path d="M36.330828,38.0193631 C36.330828,38.0193631 35.8852229,41.5842038 33.6207643,43.7365605 C31.577707,45.6773248 27.6933758,46.2259236 27.6933758,46.2259236" id="Shape" stroke="#768FFF" stroke-width="1.4"></path>
                <path d="M73.6803822,73.9452229 C73.6803822,73.9452229 74.1252866,70.3803822 76.3904459,68.2294268 C78.4321019,66.2893631 82.3171338,65.7407643 82.3171338,65.7407643" id="Shape" stroke="#768FFF" stroke-width="1.4"></path>
                <path d="M36.330828,73.9452229 C36.330828,73.9452229 35.8852229,70.3803822 33.6207643,68.2294268 C31.577707,66.2893631 27.6933758,65.7407643 27.6933758,65.7407643" id="Shape" stroke="#768FFF" stroke-width="1.4"></path>
                <path d="M59.9521019,60.3458599 C59.8750318,60.3647771 59.6998726,60.3850955 59.5632484,60.3850955 C58.9410828,60.3850955 58.6110828,59.8792357 58.6110828,59.1407643 L58.6110828,51.6782803 L57.5797452,51.6782803 L57.5797452,53.193758 C56.8223567,52.1259873 55.6557962,51.4449682 54.3140764,51.4449682 C51.825414,51.4449682 50.1151592,53.4074522 50.1151592,56.3809554 C50.1151592,59.3943949 51.825414,61.2994268 54.3140764,61.2994268 C55.7531847,61.2994268 56.9778981,60.5021019 57.6196815,59.5303185 C57.7170701,60.6198089 58.2803822,61.2994268 59.4273248,61.2994268 C59.6410191,61.2994268 59.8750318,61.2805096 60.0298726,61.2412739 L59.9521019,60.3458599 Z M54.4892357,60.3850955 C52.4090446,60.3850955 51.203949,58.6545223 51.203949,56.3802548 C51.203949,54.1066879 52.4097452,52.3578981 54.4892357,52.3578981 C55.8113376,52.3578981 57.036051,53.1734395 57.5797452,54.0674522 L57.5797452,58.7126752 C57.036051,59.6066879 55.8106369,60.3850955 54.4892357,60.3850955 Z" id="Shape" fill="#768FFF" fill-rule="nonzero"></path>
                <path d="M55.1394268,0.412675159 C85.2780255,0.412675159 109.706433,24.8396815 109.706433,54.9656688 C109.706433,85.0993631 85.2780255,109.525669 55.1394268,109.525669 C25.0022293,109.525669 0.572420382,85.1000637 0.572420382,54.9656688 C0.572420382,24.8396815 25.0022293,0.412675159 55.1394268,0.412675159 Z" id="Shape" stroke="#768FFF" stroke-width="2.8" stroke-linecap="round" stroke-linejoin="round" stroke-dasharray="0,85.63240051269531"></path>
                <path d="M55.1394268,12.0894904 C78.8279618,12.0894904 98.0282166,31.2883439 98.0282166,54.9656688 C98.0282166,78.6507006 78.8279618,97.8488535 55.1394268,97.8488535 C31.452293,97.8488535 12.2513376,78.6514013 12.2513376,54.9656688 C12.2513376,31.2883439 31.452293,12.0894904 55.1394268,12.0894904 Z" id="Shape" stroke="#768FFF" stroke-width="1.4" stroke-linecap="round" stroke-linejoin="round" stroke-dasharray="0,22.43107948303222"></path>
            </g>
        </g>
    </g>
</svg>