<?xml version="1.0" encoding="UTF-8"?>
<svg width="105px" height="87px" viewBox="0 0 105 87" version="1.1" xmlns="http://www.w3.org/2000/svg" xmlns:xlink="http://www.w3.org/1999/xlink">
    <!-- Generator: sketchtool 46.2 (44496) - http://www.bohemiancoding.com/sketch -->
    <title>55678394-6654-45EC-A017-EC36A14CA383</title>
    <desc>Created with sketchtool.</desc>
    <defs></defs>
    <g id="Page-1" stroke="none" stroke-width="1" fill="none" fill-rule="evenodd">
        <g id="icns-roadmap" transform="translate(-487.000000, -167.000000)">
            <g id="ico_08-copy" transform="translate(488.000000, 168.000000)">
                <path d="M46.956349,69.3222927 C46.956349,69.3222927 46.953557,71.1590569 46.953557,72.3476748 L53.0023087,74.9857073 L52.9429799,76.5441951 L17.628349,76.5441951 L17.6388188,74.9857073 L23.6875705,72.3476748 C23.6875705,71.1590569 23.6847785,69.3222927 23.6847785,69.3222927 L46.956349,69.3222927 L46.956349,69.3222927 Z M46.956349,67.2247317 L23.6840805,67.2247317 C23.1277852,67.2247317 22.5945235,67.4456748 22.202255,67.8400163 C21.8099866,68.2343577 21.5887248,68.7685366 21.5901208,69.3257886 C21.5901208,69.3257886 21.5915168,70.1032846 21.5915168,70.9737724 L16.8019329,73.0622439 C16.0425235,73.3943577 15.549745,74.1424878 15.5441611,74.9717236 L15.5336913,76.5302114 C15.5302013,77.0888618 15.7493691,77.6258374 16.1423356,78.0222764 C16.534604,78.4187154 17.0699597,78.6417561 17.627651,78.6417561 L52.9422819,78.6417561 C54.0688322,78.6417561 54.9929664,77.7502927 55.0355436,76.6232033 L55.0941745,75.0647154 C55.1262819,74.2019187 54.6279195,73.4069431 53.8377987,73.0629431 L49.0468188,70.9737724 C49.0475168,70.1032846 49.0489128,69.3257886 49.0489128,69.3257886 C49.0496107,68.7685366 48.829745,68.2343577 48.4367785,67.8400163 C48.0452081,67.4456748 47.5119463,67.2247317 46.956349,67.2247317 L46.956349,67.2247317 Z" id="Shape" fill="#422F8B" fill-rule="nonzero"></path>
                <path d="M31.7479195,30.5810407 C31.7479195,30.5810407 31.7479195,22.0558537 31.7479195,17.8481463 C31.7479195,13.640439 36.1703624,14.8584228 36.1703624,10.3186016 C36.1703624,6.99746341 36.1703624,5.78087805 36.1703624,5.78087805" id="Shape" stroke="#768FFF" stroke-width="1.4" stroke-linecap="round"></path>
                <path d="M1.47275168,71.2709268 C1.47275168,71.2709268 1.47275168,62.2961626 1.47275168,59.2966504 C1.47275168,55.1994146 7.55989262,53.3241951 7.55989262,49.524813" id="Shape" stroke="#768FFF" stroke-width="0.7" stroke-linecap="round"></path>
                <ellipse id="Oval" stroke="#768FFF" stroke-width="0.7" stroke-linecap="round" cx="1.47414765" cy="73.0643415" rx="1.26265772" ry="1.26482927"></ellipse>
                <path d="M52.0600268,25.0190081 C58.5275705,25.0190081 56.6555705,18.1998374 63.6333423,18.1998374 C66.2417181,18.1998374 67.3829262,18.1998374 67.3829262,18.1998374" id="Shape" stroke="#768FFF" stroke-width="0.7" stroke-linecap="round"></path>
                <ellipse id="Oval" stroke="#768FFF" stroke-width="0.7" stroke-linecap="round" cx="70.1644027" cy="18.1956423" rx="2.14910067" ry="2.15279675"></ellipse>
                <path d="M96.8184161,39.7676585 C96.8184161,35.0565366 101.769933,36.4199512 101.769933,31.3368618 C101.769933,29.4371707 101.769933,28.6072358 101.769933,28.6072358" id="Shape" stroke="#768FFF" stroke-width="0.7" stroke-linecap="round"></path>
                <ellipse id="Oval" stroke="#768FFF" stroke-width="0.7" stroke-linecap="round" cx="101.773423" cy="26.5795935" rx="1.56279195" ry="1.56547967"></ellipse>
                <path d="M31.512698,20.2973984 C31.512698,16.0896911 27.091651,17.3076748 27.091651,12.7678537 C27.091651,11.0709268 27.091651,10.3283902 27.091651,10.3283902" id="Shape" stroke="#768FFF" stroke-width="0.7" stroke-linecap="round"></path>
                <g id="Group" transform="translate(6.281879, 23.772358)">
                    <path d="M4.43919463,44.3592195 C2.67677852,44.3592195 1.24241611,42.9230894 1.24241611,41.1576423 L1.24241611,4.85795122 C1.24241611,3.09320325 2.67677852,1.65707317 4.43919463,1.65707317 L53.9020134,1.65707317 C55.6644295,1.65707317 57.0987919,3.09320325 57.0987919,4.85795122 L57.0987919,41.1569431 C57.0987919,42.9223902 55.6644295,44.3585203 53.9020134,44.3585203 L4.43919463,44.3585203 L4.43919463,44.3592195 Z" id="Shape" fill="#FFFFFF"></path>
                    <path d="M53.9020134,2.70655285 C55.0892886,2.70655285 56.0518121,3.67003252 56.0518121,4.85865041 L56.0518121,41.1576423 C56.0518121,42.3462602 55.0892886,43.310439 53.9020134,43.310439 L4.43919463,43.310439 C3.25191946,43.310439 2.28939597,42.3462602 2.28939597,41.1576423 L2.28939597,4.85795122 C2.28939597,3.67003252 3.25191946,2.70585366 4.43919463,2.70585366 L53.9020134,2.70585366 L53.9020134,2.70655285 Z M53.9020134,0.60899187 L4.43919463,0.60899187 C2.09814765,0.60899187 0.195436242,2.5156748 0.195436242,4.85865041 L0.195436242,41.1576423 C0.195436242,43.5013171 2.09884564,45.408 4.43919463,45.408 L53.9020134,45.408 C56.2423624,45.408 58.1457718,43.5006179 58.1457718,41.1576423 L58.1457718,4.85795122 C58.1457718,2.51497561 56.2416644,0.60899187 53.9020134,0.60899187 L53.9020134,0.60899187 Z" id="Shape" fill="#422F8B" fill-rule="nonzero"></path>
                </g>
                <path d="M35.4381745,62.2786829 C36.505396,62.2786829 37.3715973,63.146374 37.3715973,64.2161301 C37.3715973,65.2865854 36.506094,66.1542764 35.4381745,66.1542764 C34.369557,66.1542764 33.5040537,65.2865854 33.5040537,64.2161301 C33.5040537,63.146374 34.369557,62.2786829 35.4381745,62.2786829 Z" id="Shape" stroke="#422F8B" stroke-width="0.7"></path>
                <g id="Group" transform="translate(9.771812, 27.268293)">
                    <rect id="Rectangle-path" fill="#768FFF" x="0.870389262" y="1.32985366" width="49.3930201" height="32.1346341"></rect>
                    <path d="M49.5654228,2.02904065 L49.5654228,32.7653008 L1.56837584,32.7653008 L1.56837584,2.02904065 L49.5654228,2.02904065 L49.5654228,2.02904065 Z M50.961396,0.630666667 L0.172402685,0.630666667 L0.172402685,34.1636748 L50.961396,34.1636748 L50.961396,0.630666667 L50.961396,0.630666667 Z" id="Shape" fill="#422F8B" fill-rule="nonzero"></path>
                </g>
                <path d="M46.3072215,36.6457886 C46.3072215,36.6457886 47.0631409,34.2133171 44.1315973,34.2133171 C38.4548725,34.2133171 24.8350604,34.2133171 24.8350604,34.2133171 C23.7908725,34.2133171 22.9428188,35.0621301 22.9428188,36.108813 L22.9428188,53.2913333 C22.9428188,54.3373171 23.7908725,55.1861301 24.8350604,55.1861301 L46.2883758,55.1861301 C47.3325638,55.1861301 48.1785235,54.3373171 48.1785235,53.2913333 L48.1785235,38.7622276 C48.1785235,37.7155447 47.3325638,36.8674309 46.2883758,36.8674309 L46.3072215,36.6457886 Z" id="Shape" fill="#F8F9FE"></path>
                <path d="M46.3072215,36.6457886 C46.3072215,36.6457886 47.0631409,34.2133171 44.1315973,34.2133171 C38.4548725,34.2133171 24.8350604,34.2133171 24.8350604,34.2133171 C23.7908725,34.2133171 22.9428188,35.0621301 22.9428188,36.108813 L22.9428188,53.2913333 C22.9428188,54.3373171 23.7908725,55.1861301 24.8350604,55.1861301 L46.2883758,55.1861301 C47.3325638,55.1861301 48.1785235,54.3373171 48.1785235,53.2913333 L48.1785235,38.7622276 C48.1785235,37.7155447 47.3325638,36.8674309 46.2883758,36.8674309 C46.2883758,36.8674309 27.3331544,36.8674309 25.1379866,36.8674309 C22.9421208,36.8674309 23.3281074,35.0761138 23.3281074,35.0761138" id="Shape" stroke="#422F8B" stroke-width="1.4"></path>
                <g id="Group" transform="translate(22.335570, 37.056911)" stroke="#422F8B" stroke-width="0.7" stroke-linecap="round" stroke-linejoin="round">
                    <path d="M0.683328859,0.339804878 C0.683328859,0.339804878 0.777557047,0.574731707 1.18099329,0.815252033" id="Shape"></path>
                    <path d="M2.4855302,1.23965854 C2.82754362,1.29279675 3.23167785,1.32565854 3.71049664,1.32565854 C11.8525101,1.32565854 21.9118926,1.32565854 21.9118926,1.32565854 C22.9560805,1.32565854 23.7280537,1.71930081 23.7280537,2.76668293 L23.7280537,15.0968455 C23.7280537,16.1435285 23.2590067,16.6126829 22.2148188,16.6126829 C22.2148188,16.6126829 11.6277584,16.6126829 3.9366443,16.6126829 C2.98528859,16.6126829 2.288,16.4385854 1.78754362,16.2218374" id="Shape" stroke-dasharray="1.384950006008148,1.384950006008148"></path>
                    <path d="M1.18238926,15.8827317 C0.822228188,15.6261301 0.683328859,15.3995935 0.683328859,15.3995935" id="Shape"></path>
                </g>
                <path d="M43.3331007,43.8963577 L47.9307383,43.8963577 C48.5575302,43.8963577 49.0649664,44.406065 49.0649664,45.0332358 L49.0649664,47.4538211 C49.0649664,48.0816911 48.5575302,48.5920976 47.9307383,48.5920976 L43.3331007,48.5920976 C42.7063087,48.5920976 42.1981745,48.0823902 42.1981745,47.4538211 L42.1981745,45.0332358 C42.1981745,44.4053659 42.7056107,43.8963577 43.3331007,43.8963577 Z" id="Shape" stroke="#422F8B" stroke-width="1.4" fill="#F8F9FE"></path>
                <path d="M51.2978255,84.3079675 C51.2978255,84.3079675 59.2576644,84.3079675 61.9162953,84.3079675 C65.5507114,84.3079675 65.9722953,80.7567967 69.3407785,80.7567967 C72.7085638,80.7567967 76.7394362,80.7567967 76.7394362,80.7567967 C83.2991141,80.7567967 82.1327785,74.113122 82.1327785,74.113122" id="Shape" stroke="#768FFF" stroke-width="0.7" stroke-linecap="round"></path>
                <ellipse id="Oval" stroke="#768FFF" stroke-width="0.7" stroke-linecap="round" cx="49.7078121" cy="84.3072683" rx="1.12096644" ry="1.12289431"></ellipse>
                <path d="M44.8463356,45.5296585 C45.2651275,45.5296585 45.603651,45.8687642 45.603651,46.2875772 C45.603651,46.7063902 45.2651275,47.0454959 44.8463356,47.0454959 C44.4282416,47.0454959 44.0897181,46.7056911 44.0897181,46.2875772 C44.0897181,45.8694634 44.4282416,45.5296585 44.8463356,45.5296585 Z" id="Shape" fill="#422F8B"></path>
                <path d="M93.653745,30.6649431 C94.8403221,30.6649431 95.8028456,31.629122 95.8028456,32.8177398 L95.8028456,70.3452033 C95.8028456,71.5338211 94.8403221,72.498 93.653745,72.498 L76.3422819,72.498 C75.1550067,72.498 74.1924832,71.5338211 74.1924832,70.3452033 L74.1924832,32.8177398 C74.1924832,31.629122 75.1550067,30.6649431 76.3422819,30.6649431 L93.653745,30.6649431 L93.653745,30.6649431 Z M93.653745,28.5673821 L76.3422819,28.5673821 C74.0019329,28.5673821 72.0985235,30.474065 72.0985235,32.8177398 L72.0985235,70.3452033 C72.0985235,72.688878 74.0026309,74.595561 76.3422819,74.595561 L93.653745,74.595561 C95.993396,74.595561 97.8968054,72.6881789 97.8968054,70.3452033 L97.8968054,32.8177398 C97.8968054,30.474065 95.993396,28.5673821 93.653745,28.5673821 L93.653745,28.5673821 Z" id="Shape" fill="#422F8B" fill-rule="nonzero"></path>
                <path d="M85.0566443,67.3477886 C86.1252617,67.3477886 86.9907651,68.2147805 86.9907651,69.2852358 C86.9907651,70.3556911 86.1252617,71.2226829 85.0566443,71.2226829 C83.9894228,71.2226829 83.1225235,70.3556911 83.1225235,69.2852358 C83.1218255,68.2147805 83.9887248,67.3477886 85.0566443,67.3477886 Z" id="Shape" stroke="#422F8B" stroke-width="0.7"></path>
                <path d="M81.2951946,32.4129106 L88.817396,32.4129106 C89.1147383,32.4129106 89.3548456,32.6541301 89.3548456,32.9519837 C89.3548456,33.248439 89.1147383,33.4896585 88.817396,33.4896585 L81.2951946,33.4896585 C80.9978523,33.4896585 80.757047,33.248439 80.757047,32.9519837 C80.757047,32.6541301 80.9978523,32.4129106 81.2951946,32.4129106 Z" id="Shape" stroke="#422F8B" stroke-width="0.7"></path>
                <g id="Group" transform="translate(75.382550, 34.260163)">
                    <rect id="Rectangle-path" fill="#768FFF" x="0.876671141" y="1.32006504" width="17.4510604" height="30.0643415"></rect>
                    <path d="M17.629745,2.01925203 L17.629745,30.6852195 L1.57465772,30.6852195 L1.57465772,2.01925203 L17.629745,2.01925203 L17.629745,2.01925203 Z M19.0257181,0.620878049 L0.178684564,0.620878049 L0.178684564,32.0835935 L19.0257181,32.0835935 L19.0257181,0.620878049 L19.0257181,0.620878049 Z" id="Shape" fill="#422F8B" fill-rule="nonzero"></path>
                </g>
                <path d="M85.0768859,45.2954309 C82.0385503,45.2954309 79.5865235,47.7181138 79.5865235,50.721122 C79.5865235,53.7227317 82.0392483,56.1461138 85.0768859,56.1461138 C88.1159195,56.1461138 90.5679463,53.7227317 90.5679463,50.721122 C90.5679463,47.7181138 88.1152215,45.2954309 85.0768859,45.2954309 Z" id="Shape" fill="#F8F9FE" fill-rule="nonzero"></path>
                <path d="M85.0768859,44.7213984 C81.7174765,44.7213984 79.0057987,47.4013821 79.0057987,50.7225203 C79.0057987,54.041561 81.7174765,56.7208455 85.0768859,56.7208455 C88.4369933,56.7208455 91.1486711,54.041561 91.1486711,50.7225203 C91.1486711,47.4006829 88.4369933,44.7213984 85.0768859,44.7213984 Z M85.0768859,45.7883577 C87.829047,45.7883577 90.0688859,48.0019837 90.0688859,50.7218211 C90.0688859,53.4416585 87.829047,55.6545854 85.0768859,55.6545854 C82.3247248,55.6545854 80.0855839,53.4416585 80.0855839,50.7218211 C80.0855839,48.0019837 82.3247248,45.7883577 85.0768859,45.7883577 L85.0768859,45.7883577 Z" id="Shape" fill="#422F8B" fill-rule="nonzero"></path>
                <path d="M87.412349,50.5882764 L85.334443,50.5882764 L85.334443,48.268374 C85.334443,47.9747154 85.0901477,47.7348943 84.7935034,47.7348943 C84.497557,47.7348943 84.2553557,47.9747154 84.2553557,48.268374 L84.2553557,50.8553659 C84.2553557,50.9085041 84.2693154,50.9490569 84.2693154,50.9875122 C84.2553557,51.0287642 84.2553557,51.0812033 84.2553557,51.1217561 C84.2553557,51.4147154 84.498255,51.6545366 84.7935034,51.6545366 L87.412349,51.6545366 C87.7082953,51.6545366 87.9504966,51.4147154 87.9504966,51.1217561 C87.9504966,50.8287967 87.7075973,50.5882764 87.412349,50.5882764" id="Shape" fill="#422F8B" fill-rule="nonzero"></path>
                <ellipse id="Oval" stroke="#768FFF" stroke-width="1.4" stroke-linecap="round" cx="36.1682685" cy="2.92190244" rx="2.55951678" ry="2.5639187"></ellipse>
                <ellipse id="Oval" stroke="#768FFF" stroke-width="0.7" stroke-linecap="round" cx="27.0888591" cy="8.51889431" rx="1.39597315" ry="1.39837398"></ellipse>
            </g>
        </g>
    </g>
</svg>