<?xml version="1.0" encoding="UTF-8"?>
<svg width="92px" height="92px" viewBox="0 0 92 92" version="1.1" xmlns="http://www.w3.org/2000/svg" xmlns:xlink="http://www.w3.org/1999/xlink">
    <!-- Generator: sketchtool 46.2 (44496) - http://www.bohemiancoding.com/sketch -->
    <title>B8E442C2-39AC-4B7B-871E-1E9BF85EF2DC</title>
    <desc>Created with sketchtool.</desc>
    <defs></defs>
    <g id="Page-1" stroke="none" stroke-width="1" fill="none" fill-rule="evenodd">
        <g id="icns-roadmap" transform="translate(-10.000000, -187.000000)">
            <g id="ico_05-copy" transform="translate(10.000000, 187.000000)">
                <path d="M45.6071,13.6012519 C63.4487,13.6012519 77.9114,28.1119695 77.9114,46.0112366 C77.9114,63.9105038 63.4487,78.4205191 45.6071,78.4205191 C27.7676,78.4205191 13.3042,63.9105038 13.3042,46.0112366 C13.3042,28.1119695 27.7669,13.6012519 45.6071,13.6012519 Z" id="Shape" stroke="#422F8B" stroke-width="2.1" fill="#768FFF"></path>
                <ellipse id="Oval" stroke="#768FFF" stroke-width="0.7" stroke-dasharray="2.101959991455078,4.2038498878479" cx="45.6071" cy="46.0119389" rx="45.1661" ry="45.3138626"></ellipse>
                <path d="M10.8276,12.3708397 C13.8103,12.3708397 16.2281,14.7965496 16.2281,17.7890076 C16.2281,20.7814656 13.8103,23.2071756 10.8276,23.2071756 C7.8449,23.2071756 5.4264,20.7814656 5.4264,17.7890076 C5.4264,14.7965496 7.8449,12.3708397 10.8276,12.3708397 Z" id="Shape" stroke="#422F8B" stroke-width="1.4" fill="#F8F9FE"></path>
                <path d="M49.5096,34.8251603 L49.5096,42.2834809 L42.077,42.2834809 C42.077,38.1645496 42.077,34.8251603 42.077,34.8251603 C42.077,30.706229 45.4048,27.367542 49.5096,27.367542 L56.9429,27.367542 C52.8381,27.367542 49.5096,30.706229 49.5096,34.8251603 Z M42.077,49.7403969 L49.5096,49.7403969 C49.5096,53.8593282 49.5096,57.1980153 49.5096,57.1980153 C49.5096,61.3162443 46.1811,64.6556336 42.077,64.6556336 L34.6444,64.6556336 C38.7499,64.6556336 42.077,61.3162443 42.077,57.1980153 L42.077,49.7403969 Z" id="Shape" stroke="#422F8B" stroke-width="1.4" fill="#FFFFFF" stroke-linecap="round" stroke-linejoin="round"></path>
                <path d="M56.9429,64.6563359 L49.5096,64.6563359 C53.6144,64.6563359 56.9429,61.3169466 56.9429,57.1987176 L56.9429,34.8251603 C56.9429,30.706229 53.6144,27.367542 49.5096,27.367542 L56.9429,27.367542 C61.0484,27.367542 64.3769,30.706229 64.3769,34.8251603 L64.3769,57.1980153 C64.3769,61.3169466 61.0484,64.6563359 56.9429,64.6563359 Z M42.077,64.6563359 L34.6444,64.6563359 C30.5382,64.6563359 27.2104,61.3169466 27.2104,57.1987176 L27.2104,34.8251603 C27.2104,30.706229 30.5382,27.367542 34.6444,27.367542 L42.077,27.367542 C37.9729,27.367542 34.6444,30.706229 34.6444,34.8251603 L34.6444,57.1980153 C34.6444,61.3169466 37.9729,64.6563359 42.077,64.6563359 Z" id="Shape" stroke="#422F8B" stroke-width="1.4" fill="#FFFFFF" stroke-linecap="round" stroke-linejoin="round"></path>
            </g>
        </g>
    </g>
</svg>