<?xml version="1.0" encoding="UTF-8"?>
<svg width="86px" height="101px" viewBox="0 0 86 101" version="1.1" xmlns="http://www.w3.org/2000/svg" xmlns:xlink="http://www.w3.org/1999/xlink">
    <!-- Generator: sketchtool 46.2 (44496) - http://www.bohemiancoding.com/sketch -->
    <title>C79415FD-2A01-4E86-B7BB-645229EA8495</title>
    <desc>Created with sketchtool.</desc>
    <defs></defs>
    <g id="Page-1" stroke="none" stroke-width="1" fill="none" fill-rule="evenodd">
        <g id="icns-roadmap" transform="translate(-488.000000, -2.000000)">
            <g id="ico_04-copy" transform="translate(488.000000, 3.000000)">
                <path d="M68.736374,29.4317872 C68.736374,29.4317872 69.7851545,26.5790426 65.7214797,26.5790426 C57.855626,26.5790426 17.2174797,26.5790426 17.2174797,26.5790426 C15.7687642,26.5790426 14.5955285,27.7579149 14.5955285,29.2120213 L14.5955285,69.057766 C14.5955285,70.5118723 15.7694634,71.6907447 17.2174797,71.6907447 L68.605626,71.6907447 C70.0536423,71.6907447 71.2275772,70.5118723 71.2275772,69.057766 L71.2275772,32.8981915 C71.2275772,31.4440851 70.0536423,30.2652128 68.605626,30.2652128 C68.605626,30.2652128 20.6784553,30.2652128 17.6376911,30.2652128 C14.5955285,30.2652128 15.4345528,28.0535106 15.4345528,28.0535106" id="Shape" stroke="#422F8B" stroke-width="2.1"></path>
                <g id="Group" transform="translate(14.682927, 31.595745)" stroke="#422F8B" stroke-width="0.7" stroke-linecap="round" stroke-linejoin="round">
                    <path d="M0.0160813008,0.109531915 C0.0160813008,0.109531915 0.15801626,0.463404255 0.776796748,0.811659574" id="Shape"></path>
                    <path d="M3.46307317,1.45761702 C3.69730081,1.47095745 3.9455122,1.47797872 4.21120325,1.47797872 C15.4946829,1.47797872 50.7050407,1.47797872 50.7050407,1.47797872 C52.1523577,1.47797872 53.2221138,2.02493617 53.2221138,3.47904255 L53.2221138,35.1794043 C53.2221138,36.6335106 52.5725691,37.2857872 51.1245528,37.2857872 C51.1245528,37.2857872 15.1828455,37.2857872 4.52653659,37.2857872 C3.48684553,37.2857872 2.666,37.1355319 2.02554472,36.9241915" id="Shape" stroke-dasharray="2.09026997089386,2.78704993724823"></path>
                    <path d="M0.774,36.3196596 C0.225138211,35.9433191 0.0160813008,35.601383 0.0160813008,35.601383" id="Shape"></path>
                </g>
                <ellipse id="Oval" stroke="#E2E6F2" stroke-width="0.7" fill="#768FFF" cx="42.7070407" cy="51.3578298" rx="6.90307317" ry="6.93210638"></ellipse>
                <path d="M42.3861138,44.5935319 C46.0421626,44.5935319 49.0060163,47.5698511 49.0060163,51.2419787 C49.0060163,54.9141064 46.0421626,57.8897234 42.3861138,57.8897234 C38.7314634,57.8897234 35.7676098,54.9141064 35.7676098,51.2419787 C35.7676098,47.5698511 38.7314634,44.5935319 42.3861138,44.5935319 Z" id="Shape" stroke="#422F8B" stroke-width="1.4"></path>
                <path d="M56.8138374,62.5504468 L27.8912683,62.5504468 C26.6320325,62.5504468 25.6077236,61.5358723 25.6077236,60.2874894 L25.6077236,42.1908511 C25.6077236,40.9438723 26.6320325,39.9285957 27.8912683,39.9285957 L56.8138374,39.9285957 C58.0737724,39.9285957 59.0980813,40.9431702 59.0980813,42.1908511 L59.0980813,60.2874894 C59.0980813,61.5358723 58.0737724,62.5504468 56.8138374,62.5504468 Z M27.1298537,60.2881915 C27.1298537,60.7052553 27.4717561,61.0422766 27.8912683,61.0422766 L30.0979024,61.0422766 C29.7944553,59.5671064 28.619122,58.4029787 27.1298537,58.1024681 L27.1298537,60.2881915 Z M27.8912683,41.436766 C27.4717561,41.436766 27.1298537,41.7744894 27.1298537,42.1908511 L27.1298537,44.3765745 C28.619122,44.0760638 29.7944553,42.9119362 30.0979024,41.436766 L27.8912683,41.436766 Z M57.575252,42.1908511 C57.575252,41.7744894 57.2333496,41.436766 56.8138374,41.436766 L54.6079024,41.436766 C54.9113496,42.9119362 56.0866829,44.0760638 57.575252,44.3765745 L57.575252,42.1908511 Z M57.575252,45.9008936 C55.2476585,45.5687872 53.4039024,43.7432553 53.0696911,41.436766 L31.6361138,41.436766 C31.3012033,43.7432553 29.4581463,45.5687872 27.1298537,45.9008936 L27.1298537,56.5781489 C29.4581463,56.9109574 31.3012033,58.7357872 31.6361138,61.0415745 L53.0689919,61.0415745 C53.4039024,58.7357872 55.2469593,56.9102553 57.5745528,56.5781489 L57.5745528,45.9008936 L57.575252,45.9008936 Z M57.575252,58.1024681 C56.0866829,58.4029787 54.9106504,59.5671064 54.6079024,61.0422766 L56.8138374,61.0422766 C57.2333496,61.0422766 57.575252,60.7052553 57.575252,60.2881915 L57.575252,58.1024681 Z M42.4413496,58.7891489 C38.2609106,58.7891489 34.8845366,55.4435106 34.8845366,51.3002553 C34.8845366,47.157 38.2602114,43.8120638 42.4413496,43.8120638 C46.623187,43.8120638 50.0009593,47.157 50.0009593,51.3002553 C50.0009593,55.4435106 46.6238862,58.7891489 42.4413496,58.7891489 Z M42.4413496,45.1432979 C39.0167317,45.1432979 36.228374,47.9061702 36.228374,51.3002553 C36.228374,54.6950426 39.0167317,57.4579149 42.4413496,57.4579149 C45.8673659,57.4579149 48.657122,54.6950426 48.657122,51.3002553 C48.657122,47.9054681 45.868065,45.1432979 42.4413496,45.1432979 Z M45.3478699,52.4650851 L42.0896585,52.4650851 C41.7197886,52.4650851 41.418439,52.1652766 41.418439,51.8001702 C41.418439,51.749617 41.418439,51.6829149 41.4345203,51.6330638 C41.4345203,51.5839149 41.418439,51.5333617 41.418439,51.4673617 L41.418439,48.2389787 C41.418439,47.8731702 41.7204878,47.5733617 42.0896585,47.5733617 C42.4581301,47.5733617 42.760878,47.8724681 42.760878,48.2389787 L42.760878,51.1338511 L45.3478699,51.1338511 C45.7170407,51.1338511 46.0197886,51.4343617 46.0197886,51.8001702 C46.0197886,52.1652766 45.7170407,52.4650851 45.3478699,52.4650851 Z" id="Shape" fill="#422F8B"></path>
                <g id="Group" transform="translate(61.528455, 45.638298)">
                    <path d="M3.93013008,9.02585106 C2.48491057,9.02585106 1.30817886,7.84487234 1.30817886,6.39357447 L1.30817886,4.28648936 C1.30817886,2.83519149 2.48491057,1.65351064 3.93013008,1.65351064 L9.69842276,1.65351064 C11.1436423,1.65351064 12.320374,2.83448936 12.320374,4.28648936 L12.320374,6.39357447 C12.320374,7.84487234 11.1436423,9.02585106 9.69842276,9.02585106 L3.93013008,9.02585106 Z" id="Shape" fill="#F8F9FE"></path>
                    <path d="M9.69842276,2.70670213 C10.566813,2.70670213 11.2715935,3.41444681 11.2715935,4.28648936 L11.2715935,6.39357447 C11.2715935,7.26561702 10.566813,7.97265957 9.69842276,7.97265957 L3.93013008,7.97265957 C3.06104065,7.97265957 2.35695935,7.26561702 2.35695935,6.39357447 L2.35695935,4.28648936 C2.35695935,3.41514894 3.06104065,2.70670213 3.93013008,2.70670213 L9.69842276,2.70670213 L9.69842276,2.70670213 Z M9.69842276,0.600319149 L3.93013008,0.600319149 C1.90598374,0.600319149 0.259398374,2.25382979 0.259398374,4.28648936 L0.259398374,6.39357447 C0.259398374,8.42623404 1.90598374,10.0790426 3.93013008,10.0790426 L9.69842276,10.0790426 C11.7225691,10.0790426 13.3691545,8.42623404 13.3691545,6.39357447 L13.3691545,4.28648936 C13.3691545,2.25382979 11.7225691,0.600319149 9.69842276,0.600319149 L9.69842276,0.600319149 Z" id="Shape" fill="#422F8B" fill-rule="nonzero"></path>
                </g>
                <path d="M67.0317561,49.9247872 C67.6106829,49.9247872 68.0805366,50.3973191 68.0805366,50.9786809 C68.0805366,51.5600426 67.6106829,52.0318723 67.0317561,52.0318723 C66.4528293,52.0318723 65.9829756,51.5600426 65.9829756,50.9786809 C65.9829756,50.3973191 66.4528293,49.9247872 67.0317561,49.9247872 Z" id="Shape" fill="#422F8B"></path>
                <path d="M43.205561,0.190276596 L43.205561,4.01546809" id="Shape" stroke="#768FFF" stroke-width="0.7" stroke-linecap="round" stroke-linejoin="round"></path>
                <path d="M43.205561,95.1151277 L43.205561,98.9375106" id="Shape" stroke="#768FFF" stroke-width="0.7" stroke-linecap="round" stroke-linejoin="round"></path>
                <path d="M64.5713171,12.4009787 L62.9163415,15.2797021" id="Shape" stroke="#768FFF" stroke-width="0.7" stroke-linecap="round" stroke-linejoin="round"></path>
                <path d="M23.4982764,83.8445745 L21.844,86.7211915" id="Shape" stroke="#768FFF" stroke-width="0.7" stroke-linecap="round" stroke-linejoin="round"></path>
                <path d="M85.7874472,24.8735745 L82.4886829,26.7861702" id="Shape" stroke="#768FFF" stroke-width="0.7" stroke-linecap="round" stroke-linejoin="round"></path>
                <path d="M3.92663415,72.3352979 L0.629268293,74.2471915" id="Shape" stroke="#768FFF" stroke-width="0.7" stroke-linecap="round" stroke-linejoin="round"></path>
                <path d="M85.9384715,49.5589787 L82.6292195,49.5596809" id="Shape" stroke="#768FFF" stroke-width="0.7" stroke-linecap="round" stroke-linejoin="round"></path>
                <path d="M3.79169106,49.5596809 L0.481739837,49.5589787" id="Shape" stroke="#768FFF" stroke-width="0.7" stroke-linecap="round" stroke-linejoin="round"></path>
                <path d="M85.7916423,74.2471915 L82.4935772,72.3345957" id="Shape" stroke="#768FFF" stroke-width="0.7" stroke-linecap="round" stroke-linejoin="round"></path>
                <path d="M3.93152846,26.7861702 L0.633463415,24.8735745" id="Shape" stroke="#768FFF" stroke-width="0.7" stroke-linecap="round" stroke-linejoin="round"></path>
                <path d="M64.5776098,86.7218936 L62.9240325,83.8445745" id="Shape" stroke="#768FFF" stroke-width="0.7" stroke-linecap="round" stroke-linejoin="round"></path>
                <path d="M23.5059675,15.2804043 L21.8495935,12.4016809" id="Shape" stroke="#768FFF" stroke-width="0.7" stroke-linecap="round" stroke-linejoin="round"></path>
            </g>
        </g>
    </g>
</svg>