<?xml version="1.0" encoding="UTF-8"?>
<svg width="315px" height="237px" viewBox="0 0 315 237" version="1.1" xmlns="http://www.w3.org/2000/svg" xmlns:xlink="http://www.w3.org/1999/xlink">
    <!-- Generator: sketchtool 46.2 (44496) - http://www.bohemiancoding.com/sketch -->
    <title>5142CAAA-348F-4C4E-89BC-1F5CCB999EE8</title>
    <desc>Created with sketchtool.</desc>
    <defs>
        <filter x="-3.9%" y="-14.7%" width="107.9%" height="146.1%" filterUnits="objectBoundingBox" id="filter-1">
            <feOffset dx="0" dy="16" in="SourceAlpha" result="shadowOffsetOuter1"></feOffset>
            <feGaussianBlur stdDeviation="12" in="shadowOffsetOuter1" result="shadowBlurOuter1"></feGaussianBlur>
            <feColorMatrix values="0 0 0 0 0.392156863   0 0 0 0 0.305882353   0 0 0 0 0.749019608  0 0 0 0.2 0" type="matrix" in="shadowBlurOuter1" result="shadowMatrixOuter1"></feColorMatrix>
            <feMerge>
                <feMergeNode in="shadowMatrixOuter1"></feMergeNode>
                <feMergeNode in="SourceGraphic"></feMergeNode>
            </feMerge>
        </filter>
    </defs>
    <g id="Page-1" stroke="none" stroke-width="1" fill="none" fill-rule="evenodd" opacity="0.4">
        <g id="Desktop-2-ver.2" transform="translate(-57.000000, -4970.000000)" fill-rule="nonzero" fill="#644EBF">
            <g id="Join-slack" filter="url(#filter-1)" transform="translate(80.000000, 4977.000000)">
                <g id="slack" transform="translate(-32.000000, -55.000000)">
                    <path d="M124.45,138.4 L164.65,125.05 L177.55,163.6 L137.35,176.95 L124.45,138.4 L124.45,138.4 Z M236.35,176.65 C244.45,173.95 248.5,165.1 246.1,157 C243.4,148.9 234.55,144.4 226.45,147.25 L206.95,153.7 L194.05,115.15 L213.55,108.55 C221.65,106 226,97 223.3,88.9 C220.6,80.8 211.75,76 203.5,79.15 L184.15,85.6 L177.4,65.5 C174.7,57.4 166,52.9 157.75,55.75 C149.65,58.45 145.3,67.3 148,75.4 L154.75,95.5 L114.55,108.85 L107.8,88.75 C105.1,80.65 96.4,76 88.15,79 C80.05,81.7 76,90.55 78.4,98.5 L85.15,118.75 L65.65,125.35 C57.55,128.05 53.5,136.9 55.9,145 C58,151 63.85,155.5 70.15,155.65 L75.55,154.75 L95.05,148.3 L107.95,186.85 L88.45,193.45 C80.35,196 76,205 78.7,213.1 C80.8,219.4 86.65,223.6 92.95,223.75 L98.5,222.85 L117.85,216.4 L124.6,236.5 C126.7,242.95 132.55,247 138.85,247.15 L144.25,246.25 C152.35,243.55 156.7,234.85 154,226.6 L147.25,206.5 L187.45,193.15 L194.2,213.25 C196,219.55 202.15,223.6 208.45,223.75 L213.85,223 C221.95,220.3 226,211.45 223.6,203.5 L216.85,183.25 L236.35,176.65 L236.35,176.65 Z M288.55,109.75 C319.45,212.8 295.3,257.5 192.25,288.55 C89.2,319.45 44.5,295.3 13.45,192.25 C-17.45,89.2 6.7,44.5 109.75,13.45 C212.8,-17.45 257.5,6.7 288.55,109.75 Z" id="Shape"></path>
                </g>
            </g>
        </g>
    </g>
</svg>