<svg width="32px" height="32px" viewBox="0 0 32 32" xmlns="http://www.w3.org/2000/svg"
     xmlns:xlink="http://www.w3.org/1999/xlink">

    <g>
        <path d="M16,32 C7.163444,32 0,24.836556 0,16 C0,7.163444 7.163444,0 16,0 C24.836556,0 32,7.163444 32,16 C32,24.836556 24.836556,32 16,32 Z M23.5866667,18.28 C24.3066667,18.04 24.6666667,17.2533333 24.4533333,16.5333333 C24.2133333,15.8133333 23.4266667,15.4133333 22.7066667,15.6666667 L20.9733333,16.24 L19.8266667,12.8133333 L21.56,12.2266667 C22.28,12 22.6666667,11.2 22.4266667,10.48 C22.1866667,9.76 21.4,9.33333333 20.6666667,9.61333333 L18.9466667,10.1866667 L18.3466667,8.4 C18.1066667,7.68 17.3333333,7.28 16.6,7.53333333 C15.88,7.77333333 15.4933333,8.56 15.7333333,9.28 L16.3333333,11.0666667 L12.76,12.2533333 L12.16,10.4666667 C11.92,9.74666667 11.1466667,9.33333333 10.4133333,9.6 C9.69333333,9.84 9.33333333,10.6266667 9.54666667,11.3333333 L10.1466667,13.1333333 L8.41333333,13.72 C7.69333333,13.96 7.33333333,14.7466667 7.54666667,15.4666667 C7.73333333,16 8.25333333,16.4 8.81333333,16.4133333 L9.29333333,16.3333333 L11.0266667,15.76 L12.1733333,19.1866667 L10.44,19.7733333 C9.72,20 9.33333333,20.8 9.57333333,21.52 C9.76,22.08 10.28,22.4533333 10.84,22.4666667 L11.3333333,22.3866667 L13.0533333,21.8133333 L13.6533333,23.6 C13.84,24.1733333 14.36,24.5333333 14.92,24.5466667 L15.4,24.4666667 C16.12,24.2266667 16.5066667,23.4533333 16.2666667,22.72 L15.6666667,20.9333333 L19.24,19.7466667 L19.84,21.5333333 C20,22.0933333 20.5466667,22.4533333 21.1066667,22.4666667 L21.5866667,22.4 C22.3066667,22.16 22.6666667,21.3733333 22.4533333,20.6666667 L21.8533333,18.8666667 L23.5866667,18.28 Z"
              id="Combined-Shape"></path>
        <polygon id="Shape" points="13.64 14.88 17.2133333 13.6933333 18.36 17.12 14.7866667 18.3066667"></polygon>
    </g>

</svg>
