<?xml version="1.0" encoding="UTF-8"?>
<svg width="328px" height="237px" viewBox="0 0 328 237" version="1.1" xmlns="http://www.w3.org/2000/svg" xmlns:xlink="http://www.w3.org/1999/xlink">
    <!-- Generator: sketchtool 46.2 (44496) - http://www.bohemiancoding.com/sketch -->
    <title>176849D8-245F-4DC2-8B28-6FA1C00A2916</title>
    <desc>Created with sketchtool.</desc>
    <defs>
        <filter x="-3.9%" y="-14.7%" width="107.9%" height="146.1%" filterUnits="objectBoundingBox" id="filter-1">
            <feOffset dx="0" dy="16" in="SourceAlpha" result="shadowOffsetOuter1"></feOffset>
            <feGaussianBlur stdDeviation="12" in="shadowOffsetOuter1" result="shadowBlurOuter1"></feGaussianBlur>
            <feColorMatrix values="0 0 0 0 0.392156863   0 0 0 0 0.305882353   0 0 0 0 0.749019608  0 0 0 0.2 0" type="matrix" in="shadowBlurOuter1" result="shadowMatrixOuter1"></feColorMatrix>
            <feMerge>
                <feMergeNode in="shadowMatrixOuter1"></feMergeNode>
                <feMergeNode in="SourceGraphic"></feMergeNode>
            </feMerge>
        </filter>
    </defs>
    <g id="Page-1" stroke="none" stroke-width="1" fill="none" fill-rule="evenodd" opacity="0.4">
        <g id="Desktop-2-ver.2" transform="translate(-892.000000, -4970.000000)" fill-rule="nonzero" fill="#28264C">
            <g id="Join-slack" filter="url(#filter-1)" transform="translate(80.000000, 4977.000000)">
                <g id="telegram" transform="translate(832.000000, -19.000000)">
                    <path d="M108.766316,225.56875 L113.216842,158.4175 L235.288421,48.5625 C240.692632,43.64125 234.175789,41.26 227.023158,45.54625 L76.3410526,140.6375 L11.1726316,120 C-2.81473684,116.03125 -2.97368421,106.3475 14.3515789,99.3625 L268.190526,1.5725 C279.793684,-3.66625 290.92,4.43 286.469474,22.21 L243.235789,225.56875 C240.215789,240.015 231.473684,243.5075 219.393684,236.84 L153.589474,188.2625 L121.958947,218.90125 C118.303158,222.5525 115.283158,225.56875 108.766316,225.56875 Z" id="Shape"></path>
                </g>
            </g>
        </g>
    </g>
</svg>