<?xml version="1.0" encoding="UTF-8"?>
<svg width="25px" height="25px" viewBox="0 0 25 25" version="1.1" xmlns="http://www.w3.org/2000/svg" xmlns:xlink="http://www.w3.org/1999/xlink">
    <!-- Generator: Sketch 45.2 (43514) - http://www.bohemiancoding.com/sketch -->
    <title>play-circle-outline</title>
    <desc>Created with Sketch.</desc>
    <defs></defs>
    <g id="Page-1" stroke="none" stroke-width="1" fill="none" fill-rule="evenodd">
        <g id="Mobile-320" transform="translate(-16.000000, -192.000000)" fill-rule="nonzero" fill="#768FFF">
            <g id="Hero" transform="translate(-32.000000, -1.000000)">
                <g id="Group-2" transform="translate(48.000000, 105.000000)">
                    <g id="Group-37" transform="translate(0.000000, 88.000000)">
                        <g id="play-circle-outline">
                            <path d="M12.5,22.5 C6.9875,22.5 2.5,18.0125 2.5,12.5 C2.5,6.9875 6.9875,2.5 12.5,2.5 C18.0125,2.5 22.5,6.9875 22.5,12.5 C22.5,18.0125 18.0125,22.5 12.5,22.5 L12.5,22.5 Z M12.5,1.11022302e-16 C5.59644063,-2.66453526e-15 1.11022302e-16,5.59644063 -4.4408921e-16,12.5 C-2.10942375e-15,15.8152061 1.3169605,18.99463 3.66116524,21.3388348 C6.00536997,23.6830395 9.18479388,25 12.5,25 C15.8152061,25 18.99463,23.6830395 21.3388348,21.3388348 C23.6830395,18.99463 25,15.8152061 25,12.5 C25,9.18479388 23.6830395,6.00536997 21.3388348,3.66116524 C18.99463,1.3169605 15.8152061,-1.66533454e-16 12.5,-4.4408921e-16 L12.5,1.11022302e-16 Z M10,18.125 L17.5,12.5 L10,6.875 L10,18.125 Z" id="Shape"></path>
                        </g>
                    </g>
                </g>
            </g>
        </g>
    </g>
</svg>