<?xml version="1.0" encoding="UTF-8"?>
<svg width="24px" height="24px" viewBox="0 0 24 24" version="1.1" xmlns="http://www.w3.org/2000/svg" xmlns:xlink="http://www.w3.org/1999/xlink">
    <!-- Generator: sketchtool 46.2 (44496) - http://www.bohemiancoding.com/sketch -->
    <title>1205908E-ABB7-4979-BDC2-E39E7E34DA1C</title>
    <desc>Created with sketchtool.</desc>
    <defs>
        <filter x="-23.9%" y="-15.2%" width="147.8%" height="147.8%" filterUnits="objectBoundingBox" id="filter-1">
            <feOffset dx="0" dy="16" in="SourceAlpha" result="shadowOffsetOuter1"></feOffset>
            <feGaussianBlur stdDeviation="12" in="shadowOffsetOuter1" result="shadowBlurOuter1"></feGaussianBlur>
            <feColorMatrix values="0 0 0 0 0.462745098   0 0 0 0 0.560784314   0 0 0 0 1  0 0 0 0.2 0" type="matrix" in="shadowBlurOuter1" result="shadowMatrixOuter1"></feColorMatrix>
            <feMerge>
                <feMergeNode in="shadowMatrixOuter1"></feMergeNode>
                <feMergeNode in="SourceGraphic"></feMergeNode>
            </feMerge>
        </filter>
    </defs>
    <g id="Page-1" stroke="none" stroke-width="1" fill="none" fill-rule="evenodd">
        <g id="Team-Desktop" transform="translate(-1042.000000, -1871.000000)" fill="#FFFFFF">
            <g id="Group-19" transform="translate(80.000000, 1791.000000)">
                <g id="Group-5" transform="translate(576.000000, 0.000000)">
                    <g id="Group-4-Copy-3" transform="translate(288.000000, 0.000000)">
                        <g id="ava-team" filter="url(#filter-1)">
                            <g id="icns-soc" transform="translate(26.000000, 80.000000)">
                                <g id="facebook" transform="translate(72.000000, 0.000000)">
                                    <path d="M12,24 C5.372583,24 0,18.627417 0,12 C0,5.372583 5.372583,0 12,0 C18.627417,0 24,5.372583 24,12 C24,18.627417 18.627417,24 12,24 Z M17,4 L14.3,4 C12.3117749,4 10.7,5.52223185 10.7,7.4 L10.7,10.8 L8,10.8 L8,14.2 L10.7,14.2 L10.7,21 L14.3,21 L14.3,14.2 L17,14.2 L17,10.8 L14.3,10.8 L14.3,8.675 C14.3,8.0885 14.579,7.4 15.2,7.4 L17,7.4 L17,4 Z" id="Combined-Shape"></path>
                                </g>
                            </g>
                        </g>
                    </g>
                </g>
            </g>
        </g>
    </g>
</svg>