<?xml version="1.0" encoding="UTF-8"?>
<svg width="14px" height="15px" viewBox="0 0 14 15" version="1.1" xmlns="http://www.w3.org/2000/svg" xmlns:xlink="http://www.w3.org/1999/xlink">
    <!-- Generator: sketchtool 46.2 (44496) - http://www.bohemiancoding.com/sketch -->
    <title>Slack-Blue</title>
    <desc>Created with sketchtool.</desc>
    <defs>
        <filter x="-3.9%" y="-14.7%" width="107.9%" height="146.1%" filterUnits="objectBoundingBox" id="filter-1">
            <feOffset dx="0" dy="16" in="SourceAlpha" result="shadowOffsetOuter1"></feOffset>
            <feGaussianBlur stdDeviation="12" in="shadowOffsetOuter1" result="shadowBlurOuter1"></feGaussianBlur>
            <feColorMatrix values="0 0 0 0 0.392156863   0 0 0 0 0.305882353   0 0 0 0 0.749019608  0 0 0 0.2 0" type="matrix" in="shadowBlurOuter1" result="shadowMatrixOuter1"></feColorMatrix>
            <feMerge>
                <feMergeNode in="shadowMatrixOuter1"></feMergeNode>
                <feMergeNode in="SourceGraphic"></feMergeNode>
            </feMerge>
        </filter>
    </defs>
    <g id="Page-1" stroke="none" stroke-width="1" fill="none" fill-rule="evenodd">
        <g id="Desktop-2-ver.2" transform="translate(-192.000000, -5065.000000)" fill="#2962FF">
            <g id="Join-slack" filter="url(#filter-1)" transform="translate(80.000000, 4977.000000)">
                <g id="button-login-copy-2" transform="translate(96.000000, 78.000000)">
                    <g id="slack" transform="translate(16.000000, 10.000000)">
                        <path d="M11.8672016,7.06249292 C12.5078274,7.06249292 13.0000155,7.53124348 13.0000155,8.17186924 C13.0000155,8.67186984 12.7422027,9.02343276 12.2734521,9.18749546 L10.9297005,9.6484335 L11.3672011,10.9531226 C11.4062636,11.0703102 11.4218886,11.1953103 11.4218886,11.3203105 C11.4218886,11.9374987 10.921888,12.4531243 10.3046998,12.4531243 C9.8125117,12.4531243 9.37501118,12.1484365 9.21876099,11.6796859 L8.78907298,10.3906219 L6.36719509,11.2187479 L6.7968831,12.4999994 C6.83594565,12.617187 6.85938318,12.7421872 6.85938318,12.8671873 C6.85938318,13.4765631 6.35938258,14.0000012 5.73438184,14.0000012 C5.24219375,14.0000012 4.81250574,13.6953133 4.65625555,13.2265628 L4.22656754,11.9531238 L3.03125361,12.3671867 C2.90625346,12.4062493 2.77344081,12.4374993 2.64062815,12.4374993 C2.00781489,12.4374993 1.53125183,11.9687488 1.53125183,11.3359355 C1.53125183,10.8515599 1.8437522,10.4140594 2.30469025,10.2578092 L3.5234417,9.84374624 L2.70312822,7.39843082 L1.48437677,7.82030633 C1.35937662,7.85936887 1.23437647,7.8828064 1.10937632,7.8828064 C0.484375577,7.8828064 0,7.40624333 0,6.78124259 C0,6.29686701 0.312500373,5.85936649 0.773438422,5.7031163 L2.00000238,5.28905331 L1.58593939,4.04686433 C1.54687684,3.92967669 1.52343932,3.80467654 1.52343932,3.67967639 C1.52343932,3.06248815 2.02343991,2.54686254 2.64844066,2.54686254 C3.14062874,2.54686254 3.57031676,2.8515504 3.72656694,3.32030096 L4.14844245,4.57030245 L6.57032033,3.74998897 L6.14844483,2.49998748 C6.10938228,2.38279984 6.08594476,2.25779969 6.08594476,2.13279955 C6.08594476,1.51561131 6.59375786,0.999985695 7.2109461,0.999985695 C7.70313418,0.999985695 8.1406347,1.31248607 8.29688489,1.77342412 L8.71094788,3.03123812 L9.97657439,2.6015501 C10.0859495,2.57030007 10.1953247,2.55467505 10.3125123,2.55467505 C10.921888,2.55467505 11.4453261,3.00780059 11.4453261,3.63280133 C11.4453261,4.11717691 11.0703257,4.5234274 10.6328252,4.67186507 L9.40626121,5.09374058 L10.2265747,7.56249352 L11.5078262,7.124993 C11.6250139,7.08593045 11.750014,7.06249292 11.8672016,7.06249292 Z M5.66406925,9.10937036 L8.08594714,8.28905688 L7.26563366,5.82811645 L4.84375577,6.66405495 L5.66406925,9.10937036 Z"></path>
                    </g>
                </g>
            </g>
        </g>
    </g>
</svg>